<?xml version="1.0" encoding="UTF-8" standalone="no"?>
<svg
   xmlns:dc="http://purl.org/dc/elements/1.1/"
   xmlns:cc="http://creativecommons.org/ns#"
   xmlns:rdf="http://www.w3.org/1999/02/22-rdf-syntax-ns#"
   xmlns:svg="http://www.w3.org/2000/svg"
   xmlns="http://www.w3.org/2000/svg"
   xmlns:sodipodi="http://sodipodi.sourceforge.net/DTD/sodipodi-0.dtd"
   xmlns:inkscape="http://www.inkscape.org/namespaces/inkscape"
   enable-background="new 0 0 500 304"
   height="304"
   viewBox="0 0 158 304"
   width="158"
   id="svg2"
   version="1.1"
   inkscape:version="0.92.4 (5da689c313, 2019-01-14)"
   sodipodi:docname="anatomy_shoulder_press_anterior.svg">
  <metadata
     id="metadata452">
    <rdf:RDF>
      <cc:Work
         rdf:about="">
        <dc:format>image/svg+xml</dc:format>
        <dc:type
           rdf:resource="http://purl.org/dc/dcmitype/StillImage" />
        <dc:title></dc:title>
      </cc:Work>
    </rdf:RDF>
  </metadata>
  <defs
     id="defs450" />
  <sodipodi:namedview
     pagecolor="#ffffff"
     bordercolor="#666666"
     borderopacity="1"
     objecttolerance="10"
     gridtolerance="10"
     guidetolerance="10"
     inkscape:pageopacity="0"
     inkscape:pageshadow="2"
     inkscape:window-width="1920"
     inkscape:window-height="986"
     id="namedview448"
     showgrid="false"
     inkscape:zoom="1.9742421"
     inkscape:cx="193.71771"
     inkscape:cy="188.06436"
     inkscape:window-x="-11"
     inkscape:window-y="-11"
     inkscape:window-maximized="1"
     inkscape:current-layer="svg2" />
  <path
     d="m 67.598281,208.39999 c 0.4,-8.8 0.7,-17.4 1.1,-26.1 0.2,-4.1 1.7,-8.1 0,-12.2 -3.3,-7.7 -6.8,-15.4 -10.3,-23.5 -1.3,8.5 -2.5,16.5 -0.5,24.8 2.2,9.1 3.9,18.3 5.8,27.5 0.6,3.1 1,6.4 1.5,9.4 l 2.4,0 z"
     id="path4"
     style="fill:#b3b3b3"
     inkscape:connector-curvature="0" />
  <path
     d="m 107.39828,70.400001 c -2.3,-1.6 -4.4,-2.9 -6.3,-4.4 -1.899999,-1.4 -3.799999,-3 -5.799999,-4.3 -3,-1.9 -6.1,-3.8 -9.2,-5.3 -1.2,-0.6 -3.2,-0.8 -4.2,-0.1 -0.9,0.7 -1.2,2.6 -1.2,4.1 0,3.9 0.3,7.7 0.5,11.6 0,0.3 -0.2,0.7 -0.3,1 -0.9,3.4 -0.1,5.1 3.5,5.7 9.1,1.3 15.899999,-3.4 22.999999,-8.3 z"
     id="path6"
     style="fill:#b3b3b3"
     inkscape:connector-curvature="0" />
  <path
     d="m 91.998281,208.39999 c 2,-10.3 3.7,-20.7 6.1,-30.7 1.600003,-6.9 3.199999,-13.7 2.399999,-20.9 -0.4,-3.3 -0.899999,-6.7 -1.299999,-10 -0.9,1.2 -1.2,2.3 -1.7,3.3 -2.6,6.1 -5.4,12.1 -7.9,18.2 -1.3,3.1 -1.7,6.3 -1.4,9.8 0.8,8.1 1.2,16.2 1.6,24.3 0.1,2 -0.3,4 -0.4,6.1 1.2,-0.1 2,-0.1 2.6,-0.1 z"
     id="path8"
     style="fill:#b3b3b3"
     inkscape:connector-curvature="0" />
  <path
     d="m 50.498281,70.300001 c 5.1,4.4 10.4,7.1 16.6,8.3 2,0.4 4.3,0.3 6.3,0 3.4,-0.6 4.4,-2.1 3.5,-5.5 -0.1,-0.6 -0.3,-1.2 -0.3,-1.8 0.1,-4.3 0.4,-8.5 0.4,-12.7 0,-2.3 -1.8,-3.4 -4.1,-2.6 -2,0.8 -4.1,1.6 -5.8,2.7 -5.5,3.6 -10.9,7.5 -16.6,11.6 z"
     id="path10"
     style="fill:#b3b3b3"
     inkscape:connector-curvature="0" />
  <path
     d="m 76.898281,130.79999 c 0.1,-2.7 0.1,-5.6 0.1,-8.3 0,-5.7 -2.5,-8.2 -8.2,-8.4 -1.7,-0.1 -2.7,0.4 -2.5,2.4 0.2,2.4 0,5.1 0.6,7.4 1.4,5.9 3,11.7 4.9,17.3 0.3,1 2.1,1.5 3.2,2.2 0.6,-1.1 1.6,-2.1 1.7,-3.3 0.3,-2.9 0.2,-6 0.2,-9.3 z"
     id="path12"
     style="fill:#b3b3b3"
     inkscape:connector-curvature="0" />
  <path
     d="m 47.598281,71.300001 c -1.7,0.7 -3.3,1.3 -5,2 -0.6,0.3 -1.3,0.7 -1.5,1.3 -1.5,5.9 -3.1,11.9 -4.3,17.8 -0.3,1.4 0.8,4 2,4.7 2,1.2 3.8,-0.5 5.2,-2.1 0.3,-0.3 0.5,-0.7 0.7,-1.1 3.3,-4.7 4.6,-10.1 5.7,-15.7 0.7,-3 0.8,-5.7 -2.8,-6.9 z"
     id="path14"
     style="fill:#b3b3b3"
     inkscape:connector-curvature="0" />
  <path
     d="m 109.49828,70.800001 c -1,1.5 -2.8,2.9 -2.6,4.1 0.6,5.9 1.6,11.7 4.7,16.8 1.1,1.8 2.4,3.7 4,5 2.1,1.8 4.6,0.8 5.1,-2 0.2,-1.1 0.4,-2.3 0.2,-3.4 -0.7,-4 -1.7,-7.8 -2.5,-11.8 -0.8,-3.8 -2.2,-6.9 -6.6,-7.5 -0.8,-0.1 -1.3,-0.6 -2.3,-1.2 z"
     id="path16"
     style="fill:#b3b3b3"
     inkscape:connector-curvature="0" />
  <path
     d="m 80.098281,130.59999 c 0.2,0 0.5,0 0.7,0.1 0,3.1 -0.1,6.3 0.1,9.4 0.1,1.2 0.9,2.3 1.5,3.4 1.1,-0.7 2.3,-1.3 3.4,-2 0.4,-0.3 0.6,-0.9 0.8,-1.4 3,-7.6 4.5,-15.6 4.9,-23.7 0,-0.6 -0.2,-1.5 -0.6,-1.8 -1.6,-1.3 -8.5,0.6 -8.8,2.7 -0.9,4.3 -1.4,8.8 -2,13.3 z"
     id="path18"
     style="fill:#b3b3b3"
     inkscape:connector-curvature="0" />
  <path
     d="m 83.998281,284.89999 c 0.3,0.2 0.6,0.4 0.8,0.6 0.4,-0.8 1,-1.6 1.2,-2.4 2.7,-11.7 5.6,-23.2 8.1,-34.9 1.4,-6.5 2.6,-13.1 3.7,-19.7 0.2,-1.3 -0.7,-4 -1.6,-4.3 -2.2,-0.6 -2.6,1.8 -3.4,3.3 -0.5,0.9 -0.8,2 -1,3 -0.8,5.3 -1.8,10.5 -2.3,15.8 -0.7,8 -0.8,16 -1.8,24 -0.6,5.2 -2.5,10 -3.7,14.6 z"
     id="path20"
     style="fill:#b3b3b3"
     inkscape:connector-curvature="0" />
  <path
     d="m 72.998281,285.39999 c 0.3,-0.2 0.5,-0.4 0.8,-0.7 -2.9,-9.2 -5.3,-18.5 -5.4,-28.2 -0.1,-6.3 -0.4,-12.5 -1.1,-18.7 -0.5,-4 -1.8,-7.8 -3.1,-11.6 -0.3,-1 -1.8,-1.5 -2.8,-2.3 -0.5,1 -1.3,2 -1.4,3.1 -0.1,2.1 -0.1,4.4 0.3,6.4 1.6,7.5 3.3,14.9 5.1,22.4 2.1,9.2 4.3,18.4 6.4,27.6 0.1,0.9 0.7,1.5 1.2,2 z"
     id="path22"
     style="fill:#b3b3b3"
     inkscape:connector-curvature="0" />
  <path
     d="m 64.898281,131.29999 c -0.6,-7.4 -1,-14 -1.9,-20.5 -0.3,-1.7 -2.2,-3.5 -3.8,-4.8 -1.9,-1.5 -3,-0.8 -3.1,1.7 -0.2,4.1 0,8.1 -0.8,12 -1.2,6.2 2.9,9.9 7.8,12.2 0.4,0.1 1.5,-0.6 1.8,-0.6 z"
     id="path24"
     style="fill:#b3b3b3"
     inkscape:connector-curvature="0" />
  <path
     d="m 101.69828,119.89999 c 0,-4.1 0.1,-8.2 0,-12.3 0,-2.1 -1,-2.8 -2.899999,-1.9 -2.3,1.1 -4.2,2.9 -4.5,5.7 -0.7,6.2 -1.1,12.5 -1.7,18.7 -0.2,2.1 0.8,2.6 2.5,1.7 5.599999,-3.3 8.199999,-6.1 6.599999,-11.9 z"
     id="path26"
     style="fill:#b3b3b3"
     inkscape:connector-curvature="0" />
  <path
     d="m 58.698281,198.89999 c -0.8,-5.4 -1.7,-10.7 -2.3,-16.1 -1.1,-9.8 -1.5,-19.6 -0.5,-29.5 0.6,-6.5 1.2,-13 1.7,-19.5 0.1,-1 -0.5,-2.1 -0.7,-3.2 -0.3,0.1 -0.6,0.1 -0.9,0.2 -5.7,23 -4.3,45.6 2.7,68.1 z"
     id="path28"
     style="fill:#b3b3b3"
     inkscape:connector-curvature="0" />
  <path
     d="m 98.898281,199.79999 c 7.099999,-22.8 8.399999,-45.8 2.399999,-69.2 -0.6,0.6 -1.1,1.3 -1.1,2 0,1.7 0.1,3.3 0.2,5.1 0.6,7.7 1.5,15.3 1.8,23 0.6,13.2 -0.8,26.3 -3.299999,39.1 z"
     id="path30"
     style="fill:#b3b3b3"
     inkscape:connector-curvature="0" />
  <path
     d="m 71.398281,177.79999 c -0.3,3.4 -0.8,7 -1,10.4 -0.3,6.2 -0.4,12.5 -0.4,18.7 0,1.8 0.1,4.3 2.6,4.3 2.5,0.1 2.8,-2.4 3.2,-4.3 1.8,-10.2 -0.5,-19.8 -4.4,-29.1 z"
     id="path32"
     style="fill:#b3b3b3"
     inkscape:connector-curvature="0" />
  <path
     d="m 86.798281,177.49999 c -0.3,0 -0.6,0 -1,0 -3.3,9 -5.5,18.4 -4.1,28.1 0.2,1.5 0.7,3.1 1.5,4.5 1.1,1.8 3,1.5 4,-0.4 0.3,-0.7 0.6,-1.5 0.6,-2.3 -0.3,-10 -0.7,-19.9 -1,-29.9 z"
     id="path34"
     style="fill:#b3b3b3"
     inkscape:connector-curvature="0" />
  <path
     d="m 33.598281,97.800001 c -3.5,3.299989 -5.8,7.799989 -7.6,15.499989 -1.9,8.5 -3.7,17 -9.2,24.3 0.7,-0.2 1.3,-0.5 1.6,-1 4,-6.2 7.7,-12.5 11.7,-18.6 4.1,-6.2 5.5,-12.7 3.5,-20.199989 z"
     id="path36"
     style="fill:#b3b3b3"
     inkscape:connector-curvature="0" />
  <path
     d="m 140.29828,137.79999 c 0.2,-0.1 0.4,-0.3 0.6,-0.4 -4.8,-6.2 -6.9,-13.4 -8.6,-20.8 -1.1,-4.7 -2.7,-9.2 -4.5,-13.7 -0.7,-1.8 -2.2,-3.399992 -3.7,-5.399989 -2.2,8.099989 -0.5,14.799989 3.7,21.199989 4,5.9 7.5,12 11.3,17.8 0.3,0.6 0.8,0.9 1.2,1.3 z"
     id="path38"
     style="fill:#b3b3b3"
     inkscape:connector-curvature="0" />
  <path
     d="m 40.798281,71.400001 c 7.5,-0.2 13.7,-7.6 17.1,-18.7 -2,-0.7 -3.8,-0.5 -5.4,0.9 -5.8,4.6 -9.3,10.8 -11.7,17.8 z"
     id="path40"
     style="fill:#ff00ff"
     inkscape:connector-curvature="0" />
  <path
     d="m 100.19828,51.900001 c 2.8,11.4 9.3,19.6 16.7,19.5 -2.4,-6.9 -5.8,-13.1 -11.6,-17.5 -1.4,-1.2 -3.4,-1.3 -5.1,-2 z"
     id="path42"
     style="fill:#ff00ff"
     inkscape:connector-curvature="0" />
  <path
     d="m 75.998281,182.69999 c -3,-16.9 -10.6,-32.3 -17,-48.6 -0.6,5.1 0.3,9.5 2,13.7 4.9,11.8 10,23.4 15,34.9 z"
     id="path44"
     style="fill:#b3b3b3"
     inkscape:connector-curvature="0" />
  <path
     d="m 82.198281,182.29999 c 1.2,-3.1 2.3,-6.3 3.7,-9.4 3.5,-8.2 7.2,-16.3 10.6,-24.5 2.2,-5.4 2.8,-10.2 2.1,-13.8 -6.3,15.8 -13.8,30.9 -16.4,47.7 z"
     id="path46"
     style="fill:#b3b3b3"
     inkscape:connector-curvature="0" />
  <path
     d="m 76.998281,108.39999 c 0,-5.9 -1,-6.8 -6.7,-6.3 -3.8,0.4 -6.5,5.1 -4.7,8.5 0.3,0.6 1.3,0.9 2.1,1.1 1.4,0.3 2.8,0.2 4.3,0.5 5,1.4 5,1.6 5,-3.8 z"
     id="path48"
     style="fill:#b3b3b3"
     inkscape:connector-curvature="0" />
  <path
     d="m 80.698281,113.39999 c 3.8,-0.5 7.1,-1 10.4,-1.6 0.4,-0.1 0.8,-0.9 0.9,-1.4 0.8,-2.6 -0.1,-5.6 -2,-7 -1.7,-1.3 -6.8,-1.5 -8.4,-0.3 -0.4,0.3 -0.9,1 -0.9,1.5 z"
     id="path50"
     style="fill:#b3b3b3"
     inkscape:connector-curvature="0" />
  <path
     d="m 76.998281,99.799994 c 0,-1.699993 0,-3.399993 0,-5.099993 0,-4.5 -1.7,-5.7 -5.9,-4.1 -1.3,0.5 -2.5,1.3 -3.7,2.2 -2.5,2.3 -3,5.999995 -1.5,7.799989 3.8,-0.3 7.2,-0.5 11.1,-0.799996 z"
     id="path52"
     style="fill:#b3b3b3"
     inkscape:connector-curvature="0" />
  <path
     d="m 91.898281,100.69999 c 1,-2.399989 0.6,-4.899989 -1.2,-7.099989 -2,-2.4 -4.8,-3.8 -8,-3.3 -0.7,0.1 -1.8,0.9 -1.9,1.4 -0.2,2.7 -0.1,5.6 -0.1,8.099993 3.9,0.299996 7.4,0.499996 11.2,0.899996 z"
     id="path54"
     style="fill:#b3b3b3"
     inkscape:connector-curvature="0" />
  <path
     d="m 58.698281,238.29999 c -0.3,0 -0.5,0 -0.8,0 0.2,3.1 0,6.5 0.7,9.5 2.6,11.4 5.7,22.6 8.5,33.9 0.3,1.4 0.7,2.7 1.1,4.7 1.2,-2.2 -7.8,-45.6 -9.5,-48.1 z"
     id="path56"
     style="fill:#b3b3b3"
     inkscape:connector-curvature="0" />
  <path
     d="m 19.398281,141.69999 c -1.9,1.6 -3.4,3.2 -5.3,4.6 -1.7,1.2 -3.8,2.1 -5.5000003,3.3 -2.1,1.5 -2.1,2.9 0.3,3.9 2.6000003,1 5.5000003,1.5 8.3000003,1.8 3,0.4 3.7,-0.4 2.7,-3.4 -0.2,-0.7 -0.5,-1.4 -0.5,-2 0,-2.9 0,-5.5 0,-8.2 z"
     id="path58"
     style="fill:#b3b3b3"
     inkscape:connector-curvature="0" />
  <path
     d="m 99.298281,238.29999 c -0.2,0 -0.4,0 -0.6,-0.1 -0.3,0.5 -0.6,1 -0.7,1.6 -3.2,15 -6.4,30 -9.5,45 -0.1,0.3 0.5,0.8 1,1.5 1,-4.6 1.9,-8.6 2.9,-12.6 2.3,-9 4.8,-18 6.9,-27.2 0.600003,-2.4 0,-5.3 0,-8.2 z"
     id="path60"
     style="fill:#b3b3b3"
     inkscape:connector-curvature="0" />
  <path
     d="m 138.89828,142.79999 c -0.5,2.9 -1,6.8 -1.6,10.5 -0.3,1.8 1,2 2.1,1.9 2.7,-0.3 5.5,-0.7 8.1,-1.4 1.1,-0.3 2,-1.5 3,-2.2 -0.9,-0.9 -1.6,-2 -2.6,-2.7 -3.1,-2.4 -6.4,-4.4 -9,-6.1 z"
     id="path62"
     style="fill:#b3b3b3"
     inkscape:connector-curvature="0" />
  <path
     d="m 105.49828,67.300001 c -1.9,-3.2 -3.7,-6.2 -5.3,-9.2 -1.599999,-3 -4.199999,-4.9 -7.399999,-5.8 -2.9,-0.8 -6.5,-0.2 -8.4,1.6 8.7,2.3 14.2,8.5 21.099999,13.4 z"
     id="path64"
     style="fill:#ff00ff"
     inkscape:connector-curvature="0" />
  <path
     d="m 52.198281,67.300001 c 6.9,-5.1 12.7,-11.4 21.3,-13.5 -4.3,-3.3 -13.1,-1.8 -16.2,4.6 -1.6,2.9 -3.3,5.8 -5.1,8.9 z"
     id="path66"
     style="fill:#ff00ff"
     inkscape:connector-curvature="0" />
  <path
     d="m 38.198281,71.900001 c 3.4,-6.9 6.4,-14.1 13.1,-18.9 -4.7,-1.5 -9.1,0.5 -11.1,5 -1.9,4.3 -2.4,8.9 -2,13.9 z"
     id="path68"
     style="fill:#ff00ff"
     inkscape:connector-curvature="0" />
  <path
     d="m 65.598281,90.700001 c 3.5,-1.1 6.8,-2 10,-3.1 0.6,-0.2 1.2,-1 1.3,-1.7 0.2,-1.2 0.2,-2.5 0,-3.8 -0.1,-0.6 -0.8,-1.4 -1.4,-1.5 -3.3,-0.5 -6.2,0.9 -8.4,3.1 -2,1.9 -2.4,4.4 -1.5,7 z"
     id="path70"
     style="fill:#b3b3b3"
     inkscape:connector-curvature="0" />
  <path
     d="m 119.29828,71.900001 c 0.3,-5.7 0.2,-11.5 -3.4,-16.4 -2.1,-2.7 -6.2,-3.8 -9.4,-2.3 6.4,4.5 9.5,11.6 12.8,18.7 z"
     id="path72"
     style="fill:#ff00ff"
     inkscape:connector-curvature="0" />
  <path
     d="m 91.898281,90.700001 c 1.3,-4.7 -1,-8.4 -6.2,-9.8 -4.2,-1.1 -5.2,-0.4 -5,3.9 0,1 0.5,2.5 1.2,2.8 3.2,1 6.6,2 10,3.1 z"
     id="path74"
     style="fill:#b3b3b3"
     inkscape:connector-curvature="0" />
  <path
     d="m 100.49828,175.09999 c -3.399999,10.7 -5.199999,22 -6.599999,33.2 -0.1,0.6 0.6,1.3 1.1,2.5 3.9,-12.1 4.6,-23.8 5.499999,-35.7 z"
     id="path76"
     style="fill:#b3b3b3"
     inkscape:connector-curvature="0" />
  <path
     d="m 62.998281,209.89999 c 0,-11.8 -2.5,-23.1 -5.7,-34.4 0.7,11.6 1.5,23.2 5.7,34.4 z"
     id="path78"
     style="fill:#b3b3b3"
     inkscape:connector-curvature="0" />
  <path
     d="m 83.198281,169.99999 c 0.9,-3 1.9,-6.1 2.7,-9.1 0.3,-1 0.1,-2.3 -0.3,-3.3 -1.5,-3 -3.2,-6 -4.8,-8.9 -1.4,4.4 -0.1,17.1 2.4,21.3 z"
     id="path80"
     style="fill:#b3b3b3"
     inkscape:connector-curvature="0" />
  <path
     d="m 74.598281,170.79999 c 2.6,-7.7 3.1,-15 2.3,-22.4 -1.5,2.8 -3,5.6 -4.5,8.4 -0.5,1 -1.2,2.2 -1,3.1 0.9,3.4 2,6.8 3.2,10.9 z"
     id="path82"
     style="fill:#b3b3b3"
     inkscape:connector-curvature="0" />
  <path
     d="m 69.198281,142.69999 c -3.5,5.2 -2.2,9.6 1.5,13.9 5.8,-8.9 5.6,-9.9 -1.5,-13.9 z"
     id="path84"
     style="fill:#b3b3b3"
     inkscape:connector-curvature="0" />
  <path
     d="m 88.198281,142.29999 c -1.7,1.5 -3.4,3 -5.1,4.7 -0.3,0.3 -0.5,1.2 -0.4,1.6 1.1,2.7 2.4,5.5 3.9,8.5 3.9,-5 5.5,-9.4 1.6,-14.8 z"
     id="path86"
     style="fill:#b3b3b3"
     inkscape:connector-curvature="0" />
  <g
     id="g88"
     style="fill:#b3b3b3"
     transform="translate(-85.601719,4.0510258e-8)">
    <path
       d="m 165.7,53.5 c 3.9,-6.3 8.1,-12.4 8.1,-20.5 -4.8,6.2 -8.7,12.4 -8.1,20.5 z"
       id="path90"
       style="fill:#b3b3b3"
       inkscape:connector-curvature="0" />
    <path
       d="m 155.1,33.2 c -0.1,8.2 4.3,14.2 7.8,20.6 1.6,-5.2 -1.6,-12.9 -7.8,-20.6 z"
       id="path92"
       style="fill:#b3b3b3"
       inkscape:connector-curvature="0" />
    <path
       d="m 166.8,209.6 c 0,3 -0.5,5.9 0.1,8.3 1.6,6 3.8,11.8 5.7,17.6 1.4,-4.8 0.4,-9.1 -1.6,-13.5 -1.9,-3.7 -2.8,-7.8 -4.2,-12.4 z"
       id="path94"
       style="fill:#b3b3b3"
       inkscape:connector-curvature="0" />
    <path
       d="m 161.9,210.8 c -1.5,4.4 -2.9,9 -4.9,13.4 -1.7,4 -1.7,7.7 -0.8,11.4 0.8,-2.4 1.2,-5.4 2.6,-7.8 3.4,-5.5 3.7,-11.3 3.1,-17 z"
       id="path96"
       style="fill:#b3b3b3"
       inkscape:connector-curvature="0" />
    <path
       d="m 163.7,8 c 0,-1.9 0.1,-4.3 -0.1,-6.5 -0.1,-0.6 -1.3,-1.5 -2,-1.5 -5,0.1 -6.6,2.8 -5,7.4 2.5,0.3 4.8,0.4 7.1,0.6 z"
       id="path98"
       style="fill:#b3b3b3"
       inkscape:connector-curvature="0" />
    <path
       d="m 172.7,7.5 c 0.2,-0.8 0.8,-2.2 0.5,-3.3 -0.3,-1.1 -1.3,-2.5 -2.4,-2.9 -1.5,-0.7 -3.3,-0.6 -5.1,-0.9 -0.1,0 -0.3,0.4 -0.3,0.7 -0.2,2.5 -0.4,5.1 -0.5,7.1 2.7,-0.4 5.1,-0.5 7.8,-0.7 z"
       id="path100"
       style="fill:#b3b3b3"
       inkscape:connector-curvature="0" />
    <path
       d="m 169.4,230.7 c -1.5,6.9 -2.8,13.7 -0.8,20.7 3.3,-6.8 2.1,-13.7 0.8,-20.7 z"
       id="path102"
       style="fill:#b3b3b3"
       inkscape:connector-curvature="0" />
    <path
       d="m 190.4,88.6 c -2.4,3.2 -5,6.2 -7.1,9.4 -1.1,1.7 -1.4,4 -0.2,6 4.5,-2.2 7.3,-8.3 7.3,-15.4 z"
       id="path104"
       style="fill:#b3b3b3"
       inkscape:connector-curvature="0" />
    <path
       d="m 160.3,251.4 c 2.2,-7 0.5,-13.7 -0.9,-20.5 -1,6.9 -2.6,13.8 0.9,20.5 z"
       id="path106"
       style="fill:#b3b3b3"
       inkscape:connector-curvature="0" />
    <path
       d="m 138.4,88.6 c 0.4,6.4 1.7,11.9 7.2,15.8 1.4,-2.5 0.9,-4.8 -0.5,-6.7 -2,-3 -4.3,-5.9 -6.7,-9.1 z"
       id="path108"
       style="fill:#b3b3b3"
       inkscape:connector-curvature="0" />
  </g>
  <path
     d="m 37.998281,113.99999 c -9.6,5.4 -11.4,16.1 -17,24.1 5.6,-8 11.3,-16.1 17,-24.1 z"
     id="path110"
     style="fill:#b3b3b3"
     inkscape:connector-curvature="0" />
  <path
     d="m 136.69828,137.89999 c -5.7,-7.8 -7.3,-18.5 -16.7,-23.6 5.5,7.9 11.1,15.9 16.7,23.6 z"
     id="path112"
     style="fill:#b3b3b3"
     inkscape:connector-curvature="0" />
  <path
     d="m 86.398281,250.79999 c -0.4,-0.1 -0.8,-0.1 -1.2,-0.2 -3.9,8.5 0.8,17.4 -1.3,26.1 0.3,0 0.7,0 1,0.1 0.5,-8.8 1,-17.4 1.5,-26 z"
     id="path114"
     style="fill:#b3b3b3"
     inkscape:connector-curvature="0" />
  <path
     d="m 44.998281,103.69999 c -5,1.9 -9.9,6.7 -10.5,10 2.5,-1.3 5.1,-2.7 7.7,-4.1 2.7,-1.3 3.4,-2.7 2.8,-5.9 z"
     id="path116"
     style="fill:#b3b3b3"
     inkscape:connector-curvature="0" />
  <path
     d="m 72.498281,274.79999 0.6,0 c 0.2,-4.1 0.5,-8.1 0.7,-12.3 0.4,-8 0.2,-9.5 -2.3,-11.8 0.3,8.2 0.7,16.2 1,24.1 z"
     id="path118"
     style="fill:#b3b3b3"
     inkscape:connector-curvature="0" />
  <path
     d="m 98.998281,206.69999 c -0.2,0 -0.3,-0.1 -0.5,-0.1 -1.7,5.3 -3.4,10.6 -5.3,16.3 1.7,-1.2 2.9,-2 4.1,-2.9 0.7,-0.6 1.5,-1.4 1.6,-2.1 0.2,-3.7 0.1,-7.5 0.1,-11.2 z"
     id="path120"
     style="fill:#b3b3b3"
     inkscape:connector-curvature="0" />
  <path
     d="m 123.79828,113.99999 c -2.6,-5.1 -6.5,-8 -11.3,-10.6 -0.3,2.5 -0.1,4.6 1.8,5.7 3,1.6 6,3.2 9.5,4.9 z"
     id="path122"
     style="fill:#b3b3b3"
     inkscape:connector-curvature="0" />
  <path
     d="m 64.298281,222.59999 c -1.5,-4.9 -2.9,-9.4 -4.4,-13.9 -0.2,-0.6 -0.5,-1.1 -1,-2.2 l 0,12.7 c 1.8,1.1 3.3,2.2 5.4,3.4 z"
     id="path124"
     style="fill:#b3b3b3"
     inkscape:connector-curvature="0" />
  <path
     d="m 90.898281,211.39999 c -2.2,0 -3.8,1.2 -3.8,2.8 0,1.6 1.8,3.8 3.5,3.9 1.4,0.1 3.5,-2.2 3.5,-3.9 0,-2.1 -1.8,-2.5 -3.2,-2.8 z"
     id="path126"
     style="fill:#b3b3b3"
     inkscape:connector-curvature="0" />
  <path
     d="m 63.498281,215.39999 c 0.8,0.7 1.9,2.1 3.3,2.6 1.4,0.5 3.9,-2.2 3.7,-3.9 -0.2,-2.1 -1.8,-2.8 -3.5,-2.7 -1.8,0 -3.3,0.8 -3.5,4 z"
     id="path128"
     style="fill:#b3b3b3"
     inkscape:connector-curvature="0" />
  <path
     d="m 6.5982807,144.79999 c 5.8000003,1.4 9.9000003,-0.3 11.1000003,-4.4 -4.3,-0.7 -7.7000002,1.1 -11.1000003,4.4 z"
     id="path130"
     style="fill:#b3b3b3"
     inkscape:connector-curvature="0" />
  <path
     d="m 139.89828,140.39999 c 1.8,4.4 6.4,6.1 11,4.2 -3.1,-3.1 -6.5,-4.8 -11,-4.2 z"
     id="path132"
     style="fill:#b3b3b3"
     inkscape:connector-curvature="0" />
  <path
     d="m 127.79828,134.69999 c -4.3,-7.8 -8.4,-15.7 -12.7,-23.5 1.8,9.2 7.5,16.1 12.7,23.5 z"
     id="path134"
     style="fill:#b3b3b3"
     inkscape:connector-curvature="0" />
  <path
     d="m 74.798281,37.400001 c 1.3,1.9 2.7,3.9 4.1,5.8 1.3,-1.8 2.6,-3.8 4,-5.7 -2.2,-1.8 -5.6,-2 -8.1,-0.1 z"
     id="path136"
     style="fill:#b3b3b3"
     inkscape:connector-curvature="0" />
  <path
     d="m 42.898281,111.79999 c -0.2,-0.1 -0.4,-0.2 -0.6,-0.3 -4,7.4 -7.9,14.8 -11.9,22.3 5,-7 10.3,-13.6 12.5,-22 z"
     id="path138"
     style="fill:#b3b3b3"
     inkscape:connector-curvature="0" />
  <path
     d="m 88.598281,42.000001 c 0.8,4.4 5.9,8.5 11.899999,6.4 -3.999999,-2.3 -7.799999,-4.3 -11.899999,-6.4 z"
     id="path140"
     style="fill:#b3b3b3"
     inkscape:connector-curvature="0" />
  <path
     d="m 57.098281,48.500001 c 6.4,2 11.6,-2.7 11.9,-6.4 -4.1,2 -7.9,4.2 -11.9,6.4 z"
     id="path142"
     style="fill:#b3b3b3"
     inkscape:connector-curvature="0" />
  <path
     d="m 133.29828,140.39999 c 0.2,-0.1 0.4,-0.2 0.5,-0.3 -3.5,-7.6 -7.4,-15.1 -13.3,-21.3 4.3,7.1 8.6,14.3 12.8,21.6 z"
     id="path144"
     style="fill:#b3b3b3"
     inkscape:connector-curvature="0" />
  <path
     d="m 23.398281,139.79999 c 0.3,0.2 0.6,0.3 0.9,0.5 4.3,-7.2 8.4,-14.3 12.7,-21.5 -0.4,-0.2 -0.7,-0.4 -1.1,-0.6 -4.1,7.2 -8.2,14.4 -12.5,21.6 z"
     id="path146"
     style="fill:#b3b3b3"
     inkscape:connector-curvature="0" />
  <g
     id="g148"
     style="fill:#b3b3b3"
     transform="translate(-85.601719,4.0510258e-8)">
    <path
       d="m 141,87.2 c -0.1,2.9 2.6,6.7 5.7,7.8 1,-4.2 -0.7,-6.6 -5.7,-7.8 z"
       id="path150"
       style="fill:#b3b3b3"
       inkscape:connector-curvature="0" />
    <path
       d="m 182.6,96.1 c 2.2,-3 4.2,-5.7 6.4,-8.7 -5.6,0.2 -8.4,4.3 -6.4,8.7 z"
       id="path152"
       style="fill:#b3b3b3"
       inkscape:connector-curvature="0" />
    <path
       d="m 124.8,74.9 c -4.9,3.9 -6.3,22.2 -1.8,26.8 -3.6,-9.4 -1.8,-18.1 1.8,-26.8 z"
       id="path154"
       style="fill:#b3b3b3"
       inkscape:connector-curvature="0" />
    <path
       d="m 204.1,75 c 3.5,8.6 5.4,17.2 1.7,26.9 4.4,-4.8 3,-22.9 -1.7,-26.9 z"
       id="path156"
       style="fill:#b3b3b3"
       inkscape:connector-curvature="0" />
    <path
       d="m 156.2,297.4 c 0.2,0.2 0.5,0.4 0.7,0.7 0.6,-0.6 1.7,-1 1.8,-1.7 0.4,-2.6 0.6,-5.3 0.8,-7.9 0,-0.5 -0.6,-1 -1,-1.5 -0.4,0.4 -1.1,0.8 -1.2,1.3 -0.4,3 -0.7,6.1 -1.1,9.1 z"
       id="path158"
       style="fill:#b3b3b3"
       inkscape:connector-curvature="0" />
    <path
       d="m 171.9,298.1 c 0.2,-0.2 0.5,-0.5 0.7,-0.7 -0.3,-3 -0.6,-6 -1,-9 -0.1,-0.5 -0.8,-0.9 -1.2,-1.4 -0.4,0.6 -1.1,1.2 -1,1.7 0.2,2.5 0.5,5.2 0.9,7.6 0,0.7 1,1.2 1.6,1.8 z"
       id="path160"
       style="fill:#b3b3b3"
       inkscape:connector-curvature="0" />
    <path
       d="m 158.8,26.6 c 2.3,3.4 9.5,3.3 11.3,0 -3.8,0 -7.5,0 -11.3,0 z"
       id="path162"
       style="fill:#b3b3b3"
       inkscape:connector-curvature="0" />
    <path
       d="m 173.1,14.3 c 0.1,-3.3 -1,-5.4 -2.9,-5.7 -2.1,-0.4 -4,1.2 -4.7,4.6 2.8,-1.8 5.2,-1.3 7.6,1.1 z"
       id="path164"
       style="fill:#b3b3b3"
       inkscape:connector-curvature="0" />
    <path
       d="m 181.7,88.1 c 0.3,0.1 0.6,0.3 0.9,0.4 1.4,-2.7 2.8,-5.6 4.4,-8.3 -0.2,-0.1 -0.5,-0.2 -0.7,-0.4 -5.5,3.8 -5.8,4.3 -4.6,8.3 z"
       id="path166"
       style="fill:#b3b3b3"
       inkscape:connector-curvature="0" />
    <path
       d="m 163.1,13.1 c -0.5,-3.1 -2.2,-4.7 -4.4,-4.4 -2,0.3 -3.1,2.1 -2.9,5.3 2.2,-1.7 4.5,-2.6 7.3,-0.9 z"
       id="path168"
       style="fill:#b3b3b3"
       inkscape:connector-curvature="0" />
    <path
       d="m 142.1,79.4 c 0.8,3.8 2,6.7 4.8,9 1.5,-3.9 1,-4.8 -4.8,-9 z"
       id="path170"
       style="fill:#b3b3b3"
       inkscape:connector-curvature="0" />
    <path
       d="m 232.1,155.5 c -0.2,0.3 -0.4,0.6 -0.6,0.9 1.1,2.5 2.1,5.1 3.3,7.5 0.3,0.6 1.1,0.9 1.6,1.4 0.1,-0.8 0.4,-1.6 0.2,-2.3 -0.8,-2.1 -1.8,-4.3 -2.8,-6.3 -0.3,-0.5 -1.2,-0.7 -1.7,-1.2 z"
       id="path172"
       style="fill:#b3b3b3"
       inkscape:connector-curvature="0" />
    <path
       d="m 96.4,155.3 c -0.3,0 -0.5,0.1 -0.8,0.1 -1.2,2.6 -2.4,5.3 -3.5,8 -0.2,0.5 0.2,1.2 0.3,1.8 0.5,-0.4 1.2,-0.6 1.5,-1.1 1.1,-2.2 2.1,-4.5 3,-6.8 0.2,-0.4 -0.3,-1.2 -0.5,-2 z"
       id="path174"
       style="fill:#b3b3b3"
       inkscape:connector-curvature="0" />
  </g>
  <path
     d="m 150.79828,147.89999 c 1.5,1 2.9,1.9 4.5,2.6 0.5,0.2 1.2,-0.2 1.9,-0.3 -0.1,-0.6 -0.1,-1.5 -0.4,-1.8 -0.7,-0.7 -1.7,-1.2 -2.6,-1.9 -1.8,-1.3 -2.8,-1 -3.4,1.4 z"
     id="path176"
     style="fill:#b3b3b3"
     inkscape:connector-curvature="0" />
  <path
     d="m 80.298281,14.300001 c 0.7,2.2 3.7,4.1 5.9,3.3 0.8,-0.2 1.2,-1.5 2.1,-2.7 -3.3,-0.3 -5.5,-0.5 -8,-0.6 z"
     id="path178"
     style="fill:#b3b3b3"
     inkscape:connector-curvature="0" />
  <path
     d="m 73.198281,24.900001 11.5,0 c -2.7,-2.7 -9.2,-2.7 -11.5,0 z"
     id="path180"
     style="fill:#b3b3b3"
     inkscape:connector-curvature="0" />
  <path
     d="m 37.098281,103.79999 c 4.7,-1.7 7.7,-4.899994 9.2,-9.299989 0.3,0.3 0.6,0.7 0.9,1 -3.3,2.9 -6.7,5.699989 -10.1,8.299989 z"
     id="path182"
     style="fill:#b3b3b3"
     inkscape:connector-curvature="0" />
  <path
     d="m 77.498281,14.300001 c -2.5,0.2 -4.9,0.4 -7.8,0.6 0.5,1 0.6,2.2 1.3,2.5 1.9,1.1 5.5,-0.8 6.5,-3.1 z"
     id="path184"
     style="fill:#b3b3b3"
     inkscape:connector-curvature="0" />
  <path
     d="m 120.09828,104.29999 0.8,-0.8 c -3.7,-2.8 -7.4,-5.699989 -11.1,-8.499989 l 1,-1 c 1.7,4.699995 4.8,8.199989 9.3,10.299989 z"
     id="path186"
     style="fill:#b3b3b3"
     inkscape:connector-curvature="0" />
  <path
     d="m 7.3982807,154.79999 c -0.2,-0.3 -0.4,-0.7 -0.6,-0.8 -0.4,-0.1 -1,0 -1.2,0.2 -1.4,2.2 -2.7,4.6 -4.1,6.9 -0.1,0.2 0.1,0.8 0.4,1.1 0.1,0.1 0.8,0.1 0.9,-0.1 1.5,-2.4 3.1,-4.9 4.6,-7.3 z"
     id="path188"
     style="fill:#b3b3b3"
     inkscape:connector-curvature="0" />
  <path
     d="m 144.79828,165.69999 c 0.4,-0.1 0.7,-0.2 1.1,-0.2 0.4,-3 -1.5,-5.7 -2.3,-8.5 -0.1,-0.3 -1,-0.4 -2.1,-0.7 1.1,3.4 2.2,6.4 3.3,9.4 z"
     id="path190"
     style="fill:#b3b3b3"
     inkscape:connector-curvature="0" />
  <path
     d="m 155.09828,162.59999 c 0.4,-0.2 0.9,-0.5 1.3,-0.7 -1.1,-2.9 -2.8,-5.5 -4.7,-8 -0.1,-0.2 -1,0.3 -1.7,0.5 1.9,3 3.5,5.6 5.1,8.2 z"
     id="path192"
     style="fill:#b3b3b3"
     inkscape:connector-curvature="0" />
  <path
     d="m 11.798281,165.59999 c 0.3,0.1 0.7,0.1 1,0.2 0.9,-2.8 1.9,-5.7 2.8,-8.5 0,-0.2 -0.6,-0.8 -0.8,-0.7 -0.4,0.2 -0.9,0.5 -1.1,0.9 -0.8,2.1 -1.5,4.2 -2.1,6.3 -0.1,0.5 0.1,1.2 0.2,1.8 z"
     id="path194"
     style="fill:#b3b3b3"
     inkscape:connector-curvature="0" />
  <path
     d="m 135.69828,150.79999 c 0.4,-0.1 0.8,-0.1 1.3,-0.2 -0.1,-2.3 -0.2,-4.7 -0.5,-7 0,-0.4 -0.7,-0.8 -1,-1.2 -0.3,0.4 -1,0.9 -1,1.3 0.4,2.3 0.8,4.8 1.2,7.1 z"
     id="path196"
     style="fill:#b3b3b3"
     inkscape:connector-curvature="0" />
  <path
     d="m 86.198281,28.800001 c -3.9,0.2 -5,2.8 -6.4,5.7 3.6,-0.6 5,-2.9 6.4,-5.7 z"
     id="path198"
     style="fill:#b3b3b3"
     inkscape:connector-curvature="0" />
  <path
     d="m 89.398281,15.300001 c 2.2,-4.2 2,-7.700001 -0.2,-9.800001 -1.8,3.2000002 0.6,6.100001 0.2,9.800001 z"
     id="path200"
     style="fill:#b3b3b3"
     inkscape:connector-curvature="0" />
  <path
     d="m 90.098281,297.89999 c -0.6,-3.5 -0.4,-7 -2.4,-9.7 0,2.9 0.3,5.9 0.8,8.7 0,0.4 1,0.7 1.6,1 z"
     id="path202"
     style="fill:#b3b3b3"
     inkscape:connector-curvature="0" />
  <path
     d="m 105.79828,145.39999 c 0,-5.5 -0.3,-11 -1.9,-16.2 -0.3,0 -0.6,0.1 -0.9,0.1 0.9,5.5 1.8,10.8 2.8,16.1 z"
     id="path204"
     style="fill:#b3b3b3"
     inkscape:connector-curvature="0" />
  <path
     d="m 21.098281,141.99999 c -0.2,3.2 -0.3,5.9 -0.4,8.5 3,-3.8 3.2,-6.7 0.4,-8.5 z"
     id="path206"
     style="fill:#b3b3b3"
     inkscape:connector-curvature="0" />
  <path
     d="m 92.398281,139.29999 c -3,1.8 -3.1,4.1 -0.2,6.4 1.3,-2.2 2.2,-4.2 0.2,-6.4 z"
     id="path208"
     style="fill:#b3b3b3"
     inkscape:connector-curvature="0" />
  <path
     d="m 68.498281,5.3 c -2.3,2.2 -2.4,4.700001 -0.6,9.600001 0.4,-3.3 1.9,-6.2000008 0.6,-9.600001 z"
     id="path210"
     style="fill:#b3b3b3"
     inkscape:connector-curvature="0" />
  <path
     d="m 66.998281,297.79999 c 2.2,-0.4 3.5,-5.5 3,-9.6 -0.2,-0.1 -0.5,-0.1 -0.7,-0.2 -0.7,3 -1.5,6.3 -2.3,9.8 z"
     id="path212"
     style="fill:#b3b3b3"
     inkscape:connector-curvature="0" />
  <path
     d="m 77.398281,34.400001 c -1.2,-4.2 -2.2,-5.1 -5.8,-5.5 1.2,2.8 2.6,5 5.8,5.5 z"
     id="path214"
     style="fill:#b3b3b3"
     inkscape:connector-curvature="0" />
  <path
     d="m 65.098281,139.29999 c -1.6,2.3 -1,4.4 0.6,6.5 2.6,-2.9 2.3,-5 -0.6,-6.5 z"
     id="path216"
     style="fill:#b3b3b3"
     inkscape:connector-curvature="0" />
  <path
     d="m 89.798281,21.900001 c -1.2,3.2 -2.2,6.2 -3.3,9.1 3.5,-2.3 5.3,-6.8 3.3,-9.1 z"
     id="path218"
     style="fill:#b3b3b3"
     inkscape:connector-curvature="0" />
  <path
     d="m 51.498281,144.29999 c 0.2,0 0.4,0 0.6,0.1 0.8,-5 1.7,-9.8 2.5,-14.8 -0.4,-0.1 -0.8,-0.1 -1.2,-0.2 -0.7,4.9 -1.3,9.8 -1.9,14.9 z"
     id="path220"
     style="fill:#b3b3b3"
     inkscape:connector-curvature="0" />
  <g
     id="g222"
     style="fill:#b3b3b3"
     transform="translate(-85.601719,4.0510258e-8)">
    <path
       d="m 156.7,30.9 c -0.9,-2.8 -1.7,-5.2 -2.5,-7.5 -0.2,-0.5 -0.6,-0.9 -0.9,-1.3 -0.2,0.5 -0.7,1 -0.7,1.4 0.1,3 1.1,5.6 4.1,7.4 z"
       id="path224"
       style="fill:#b3b3b3"
       inkscape:connector-curvature="0" />
    <path
       d="m 162.1,288 c -0.3,0 -0.6,0 -0.9,0 -0.3,2.8 -0.6,5.6 -0.8,8.4 0,0.4 0.6,0.8 1,1.2 0.2,-0.4 0.7,-0.8 0.7,-1.2 0,-2.8 0,-5.5 0,-8.4 z"
       id="path226"
       style="fill:#b3b3b3"
       inkscape:connector-curvature="0" />
    <path
       d="m 167.7,288 c -0.3,0 -0.7,0 -1,0 l 0,8.6 c 0,0.3 0.6,0.7 1,0.9 0.1,0.1 0.8,-0.5 0.8,-0.7 -0.3,-2.8 -0.5,-5.8 -0.8,-8.8 z"
       id="path228"
       style="fill:#b3b3b3"
       inkscape:connector-curvature="0" />
    <path
       d="m 142.8,85.5 c -1.2,-2 -2.2,-3.7 -3.4,-5.7 -1.5,4.1 -0.7,5.4 3.4,5.7 z"
       id="path230"
       style="fill:#b3b3b3"
       inkscape:connector-curvature="0" />
    <path
       d="m 186.2,85.5 c 4.1,-0.1 4.9,-1.7 3.1,-5.6 -1.1,1.9 -2,3.6 -3.1,5.6 z"
       id="path232"
       style="fill:#b3b3b3"
       inkscape:connector-curvature="0" />
    <path
       d="m 171.6,24.9 c 1,-1.3 1.9,-2.3 2.5,-3.4 0.2,-0.4 0.2,-1.3 -0.1,-1.5 -0.3,-0.3 -1.4,-0.4 -1.5,-0.2 -1,1.4 -2.6,2.9 -0.9,5.1 z"
       id="path234"
       style="fill:#b3b3b3"
       inkscape:connector-curvature="0" />
    <path
       d="m 102.3,163.8 c 0.4,0.1 0.8,0.2 1.3,0.3 0.7,-2.2 1.4,-4.4 2,-6.6 0.1,-0.2 -0.3,-0.8 -0.4,-0.8 -0.4,0 -0.9,0.2 -1,0.4 -0.7,2.1 -1.3,4.4 -1.9,6.7 z"
       id="path236"
       style="fill:#b3b3b3"
       inkscape:connector-curvature="0" />
    <path
       d="m 225.3,164.1 c 0.3,-0.1 0.5,-0.1 0.8,-0.2 0.5,-2.4 -0.9,-6.5 -3.1,-7.6 0.8,2.9 1.6,5.3 2.3,7.8 z"
       id="path238"
       style="fill:#b3b3b3"
       inkscape:connector-curvature="0" />
    <path
       d="m 153.5,225.6 c 0.8,-2.5 1.3,-4.4 1.8,-6.2 -1.3,0.4 -2.3,0.7 -3.5,1 0.6,1.6 1,3 1.7,5.2 z"
       id="path240"
       style="fill:#b3b3b3"
       inkscape:connector-curvature="0" />
    <path
       d="m 157.2,24.9 c 2,-1.8 0.3,-3.2 -0.3,-4.6 -0.2,-0.3 -1.1,-0.3 -1.7,-0.5 -0.1,0.6 -0.5,1.3 -0.3,1.7 0.5,1.2 1.4,2.2 2.3,3.4 z"
       id="path242"
       style="fill:#b3b3b3"
       inkscape:connector-curvature="0" />
    <path
       d="m 174.4,49.1 c -0.7,-1.8 -1.1,-3 -1.7,-4.6 -0.8,1.7 -1.4,3.2 -2.3,5.3 1.6,-0.3 2.7,-0.6 4,-0.7 z"
       id="path244"
       style="fill:#b3b3b3"
       inkscape:connector-curvature="0" />
    <path
       d="m 175.3,225.6 c 0.6,-1.9 1.1,-3.5 1.6,-5.3 -1.2,-0.3 -2.3,-0.6 -3.4,-0.9 0.6,2.1 1.2,4 1.8,6.2 z"
       id="path246"
       style="fill:#b3b3b3"
       inkscape:connector-curvature="0" />
    <path
       d="m 159.1,22.4 c 2.4,-0.7 2.1,-2.3 1.6,-4.3 -1,0.3 -2,0.6 -3.1,0.9 0.5,1.4 0.9,2.4 1.5,3.4 z"
       id="path248"
       style="fill:#b3b3b3"
       inkscape:connector-curvature="0" />
    <path
       d="m 158.8,49.9 c -1,-2.1 -1.8,-3.5 -2.7,-5.3 -0.6,1.7 -1,2.9 -1.5,4.5 1.1,0.1 2.3,0.4 4.2,0.8 z"
       id="path250"
       style="fill:#b3b3b3"
       inkscape:connector-curvature="0" />
    <path
       d="m 171.5,19.2 c -1.1,-0.3 -2.2,-0.6 -3.2,-0.9 -0.5,3.1 -0.5,3.1 1.6,4.1 0.3,-1 0.8,-1.9 1.6,-3.2 z"
       id="path252"
       style="fill:#b3b3b3"
       inkscape:connector-curvature="0" />
    <path
       d="m 175.7,290 c 1.2,6.2 2.2,7.7 4.2,6.7 -1.3,-2.2 -2.8,-4.4 -4.2,-6.7 z"
       id="path254"
       style="fill:#b3b3b3"
       inkscape:connector-curvature="0" />
    <path
       d="m 153.1,291.4 c -0.2,-0.1 -0.4,-0.2 -0.6,-0.3 -1.2,1.9 -2.5,4 -3.8,5.9 0.2,0.2 0.5,0.3 0.7,0.5 3,-1 2.4,-4.1 3.7,-6.1 z"
       id="path256"
       style="fill:#b3b3b3"
       inkscape:connector-curvature="0" />
    <path
       d="m 179.5,80.9 c 0.3,0.4 0.6,0.8 1,1.1 1.2,-1.1 2.4,-2.3 3.8,-3.4 -0.2,-0.2 -0.3,-0.4 -0.5,-0.5 -1.6,0.9 -3,1.9 -4.3,2.8 z"
       id="path258"
       style="fill:#b3b3b3"
       inkscape:connector-curvature="0" />
    <ellipse
       cx="160.3"
       cy="301.70001"
       rx="1.6"
       ry="2.3"
       id="ellipse260"
       style="fill:#b3b3b3" />
    <ellipse
       cx="168.2"
       cy="301.70001"
       rx="1.6"
       ry="2.3"
       id="ellipse262"
       style="fill:#b3b3b3" />
    <path
       d="m 173.9,303.1 c -0.4,0.2 -0.8,0.1 -1,-0.3 l -0.7,-1.2 c -0.2,-0.4 -0.1,-0.8 0.3,-1 0.4,-0.2 0.8,-0.1 1,0.3 l 0.7,1.2 c 0.2,0.3 0.1,0.8 -0.3,1 z"
       id="path264"
       style="fill:#b3b3b3"
       inkscape:connector-curvature="0" />
    <path
       d="m 177.3,303.1 c -0.4,0.2 -0.8,0.1 -1,-0.3 l -0.7,-1.2 c -0.2,-0.4 -0.1,-0.8 0.3,-1 0.4,-0.2 0.8,-0.1 1,0.3 l 0.7,1.2 c 0.2,0.3 0.1,0.8 -0.3,1 z"
       id="path266"
       style="fill:#b3b3b3"
       inkscape:connector-curvature="0" />
    <path
       d="m 179.8,302.2 c -0.4,0.2 -0.8,0.1 -1,-0.3 l -0.7,-1.2 c -0.2,-0.4 -0.1,-0.8 0.3,-1 0.4,-0.2 0.8,-0.1 1,0.3 l 0.7,1.2 c 0.2,0.4 0.1,0.9 -0.3,1 z"
       id="path268"
       style="fill:#b3b3b3"
       inkscape:connector-curvature="0" />
    <path
       d="m 182.1,301.6 c -0.4,0.2 -0.8,0.1 -1,-0.3 l -0.7,-1.2 c -0.2,-0.4 -0.1,-0.8 0.3,-1 0.4,-0.2 0.8,-0.1 1,0.3 l 0.7,1.2 c 0.1,0.3 0,0.8 -0.3,1 z"
       id="path270"
       style="fill:#b3b3b3"
       inkscape:connector-curvature="0" />
    <path
       d="m 154.2,303.6 c 0.4,0.2 0.8,0.1 1,-0.3 l 0.7,-1.2 c 0.2,-0.4 0.1,-0.8 -0.3,-1 -0.4,-0.2 -0.8,-0.1 -1,0.3 l -0.7,1.2 c -0.1,0.3 0,0.8 0.3,1 z"
       id="path272"
       style="fill:#b3b3b3"
       inkscape:connector-curvature="0" />
    <path
       d="m 151.4,303.1 c 0.4,0.2 0.8,0.1 1,-0.3 l 0.7,-1.2 c 0.2,-0.4 0.1,-0.8 -0.3,-1 -0.4,-0.2 -0.8,-0.1 -1,0.3 l -0.7,1.2 c -0.2,0.3 0,0.6 0.3,1 z"
       id="path274"
       style="fill:#b3b3b3"
       inkscape:connector-curvature="0" />
    <path
       d="m 148.9,302.2 c 0.4,0.2 0.8,0.1 1,-0.3 l 0.7,-1.2 c 0.2,-0.4 0.1,-0.8 -0.3,-1 -0.4,-0.2 -0.8,-0.1 -1,0.3 l -0.7,1.2 c -0.2,0.3 -0.1,0.8 0.3,1 z"
       id="path276"
       style="fill:#b3b3b3"
       inkscape:connector-curvature="0" />
    <path
       d="m 146.7,301.5 c 0.4,0.2 0.8,0.1 1,-0.3 l 0.7,-1.2 c 0.2,-0.4 0.1,-0.8 -0.3,-1 -0.4,-0.2 -0.8,-0.1 -1,0.3 l -0.7,1.2 c -0.2,0.2 -0.1,0.7 0.3,1 z"
       id="path278"
       style="fill:#b3b3b3"
       inkscape:connector-curvature="0" />
  </g>
  <path
     style="fill:#ff00ff;stroke-width:0.17908309"
     d="m 58.766674,48.829813 c -0.0985,-0.04022 -0.494499,-0.126157 -0.880006,-0.190963 l -0.700923,-0.11783 3.566253,-1.97154 c 2.938227,-1.624348 7.364533,-3.968851 8.015428,-4.245572 0.261685,-0.111253 -0.07412,1.09222 -0.55407,1.985731 -1.40333,2.612514 -4.412565,4.397703 -7.655852,4.541731 -0.886461,0.03937 -1.692335,0.03867 -1.79083,-0.0016 z"
     id="path145"
     inkscape:connector-curvature="0" />
  <path
     style="fill:#ff00ff;stroke-width:0.17908309"
     d="m 70.911753,49.377512 -1.823402,-0.381539 0.604221,-1.861048 c 0.332321,-1.023576 0.676902,-1.933729 0.765735,-2.022562 0.09596,-0.09596 0.645279,0.778395 1.353493,2.154389 0.655589,1.273747 1.19198,2.365221 1.19198,2.425499 0,0.131699 0.1478,0.153935 -2.092027,-0.314739 z"
     id="path147"
     inkscape:connector-curvature="0" />
  <path
     style="fill:#ff00ff;stroke-width:0.17908309"
     d="m 85.062118,49.367144 c 0.510337,-1.329917 1.972473,-4.576989 2.033506,-4.515955 0.04201,0.042 0.420214,0.999663 0.840465,2.128131 l 0.764093,2.05176 -1.356439,0.227405 c -0.746041,0.125073 -1.59091,0.269236 -1.877486,0.320361 -0.435659,0.07772 -0.501888,0.04303 -0.404139,-0.211702 z"
     id="path149"
     inkscape:connector-curvature="0" />
  <path
     style="fill:#ff00ff;stroke-width:0.17908309"
     d="m 95.299625,48.657327 c -2.496851,-0.609688 -4.797883,-2.412486 -5.905765,-4.627013 -0.60669,-1.212702 -0.763953,-1.749957 -0.51224,-1.749957 0.475579,0 11.36193,5.962238 11.19364,6.130531 -0.212119,0.212114 -1.969561,0.496861 -2.964476,0.480314 -0.503659,-0.0084 -1.31868,-0.113621 -1.811159,-0.233875 z"
     id="path151"
     inkscape:connector-curvature="0" />
  <path
     style="fill:#ff00ff;stroke-width:0.17908309"
     d="m 58.078312,102.58659 c -2.517368,-2.50667 -3.775657,-4.944807 -4.570073,-8.855249 -0.429393,-2.113651 -0.678307,-4.883409 -0.41526,-4.620754 0.33394,0.333442 5.044859,6.710428 5.969423,8.080573 1.280975,1.898323 1.640905,2.788844 1.650995,4.08481 0.0087,1.12248 -0.48598,2.96714 -0.795755,2.96714 -0.09666,0 -0.924356,-0.74543 -1.83933,-1.65652 z"
     id="path153"
     inkscape:connector-curvature="0" />
  <path
     style="fill:#ff00ff;stroke-width:0.17908309"
     d="m 59.998622,94.392156 c -1.159273,-0.662088 -2.570613,-2.085966 -3.355702,-3.385512 -0.612528,-1.013908 -1.176913,-2.617368 -1.176913,-3.343699 0,-0.389916 0.0163,-0.392773 0.834959,-0.146392 2.290638,0.689381 3.858596,1.803283 4.550634,3.232842 0.300322,0.620384 0.392193,1.135955 0.392193,2.200949 0,1.978005 -0.101185,2.09517 -1.245171,1.441812 z"
     id="path155"
     inkscape:connector-curvature="0" />
  <path
     style="fill:#ff00ff;stroke-width:0.17908309"
     d="m 55.703543,85.252353 c -1.498943,-0.296386 -2.335327,-0.970407 -2.505511,-2.019131 -0.111101,-0.684634 0.422857,-3.22102 0.648702,-3.08144 0.07345,0.0454 0.723238,1.072357 1.443963,2.282134 0.720726,1.209776 1.426925,2.380915 1.569331,2.602531 0.297569,0.463084 0.192652,0.482671 -1.156485,0.215906 z"
     id="path157"
     inkscape:connector-curvature="0" />
  <path
     style="fill:#ff00ff;stroke-width:0.17908309"
     d="m 60.190618,87.185345 c -0.602014,-0.643556 -1.35492,-1.625143 -1.673124,-2.181305 -0.598613,-1.046266 -1.499515,-3.492282 -1.720902,-4.672377 -0.151037,-0.805097 -0.197079,-0.823639 1.807207,0.7278 3.16569,2.450436 3.787757,3.769969 2.984354,6.33043 l -0.302963,0.965552 z"
     id="path159"
     inkscape:connector-curvature="0" />
  <path
     style="fill:#ff00ff;stroke-width:0.17908309"
     d="m 94.362032,81.373245 -0.364704,-0.50048 1.974187,-1.298353 c 1.915382,-1.259679 2.354375,-1.458412 2.543959,-1.151659 0.07904,0.127892 -3.283651,3.25821 -3.65046,3.3982 -0.07605,0.02902 -0.302394,-0.172444 -0.502982,-0.447708 z"
     id="path161"
     inkscape:connector-curvature="0" />
  <path
     style="fill:#ff00ff;stroke-width:0.17908309"
     d="m 96.537337,88.258069 c -0.409407,-0.182683 -0.956716,-1.897141 -0.956716,-2.996936 0,-1.239351 0.947606,-2.37644 3.560189,-4.272084 1.24184,-0.90106 1.55989,-1.057246 1.84365,-0.905382 0.3352,0.179393 0.33432,0.197438 -0.0391,0.801614 -0.2101,0.339949 -1.201031,2.176641 -2.202067,4.081538 -1.702798,3.240298 -1.844929,3.452353 -2.205976,3.29125 z"
     id="path163"
     inkscape:connector-curvature="0" />
  <path
     style="fill:#ff00ff;stroke-width:0.17908309"
     d="m 100.77403,85.38902 c 0,-0.04619 0.65706,-1.275331 1.46014,-2.731434 l 1.46014,-2.64746 0.35998,0.879027 c 0.21533,0.525807 0.3662,1.321035 0.37546,1.979011 0.0173,1.227502 -0.27253,1.725708 -1.2381,2.128359 -0.56515,0.235676 -2.41762,0.536421 -2.41762,0.392497 z"
     id="path165"
     inkscape:connector-curvature="0" />
  <path
     style="fill:#ff00ff;stroke-width:0.17908309"
     d="m 96.81901,95.439649 c -0.389667,-0.7281 -0.426263,-2.851925 -0.06774,-3.931333 0.438773,-1.321024 1.941604,-2.823157 3.35265,-3.351099 0.83805,-0.313553 3.00103,-0.788715 3.11731,-0.684809 0.03,0.02681 -5.890976,8.096522 -6.077517,8.283063 -0.05577,0.05577 -0.20189,-0.08634 -0.324703,-0.315822 z"
     id="path167"
     inkscape:connector-curvature="0" />
  <path
     style="fill:#ff00ff;stroke-width:0.17908309"
     d="m 97.119662,103.04717 c -0.157003,-0.46078 -0.285459,-1.30392 -0.285459,-1.87366 0,-1.996324 0.588395,-2.997271 5.350337,-9.101705 2.74382,-3.517364 2.70358,-3.508229 2.35798,-0.535412 -0.51435,4.424219 -2.18129,8.258144 -4.602473,10.585557 -0.859658,0.82637 -2.133467,1.76299 -2.397668,1.76299 -0.07549,0 -0.265715,-0.377 -0.422717,-0.83777 z"
     id="path169"
     inkscape:connector-curvature="0" />
  <path
     style="fill:#ff00ff;stroke-width:0.17908309"
     d="m 118.99421,103.65615 c -1.59581,-0.89306 -3.09673,-2.05717 -4.27139,-3.31288 -1.05114,-1.123676 -2.4328,-3.026452 -2.29076,-3.154781 0.0634,-0.05729 7.68397,5.730831 8.12369,6.170261 0.11008,0.11001 0.0455,0.2986 -0.17912,0.52324 -0.34892,0.34892 -0.35801,0.34744 -1.38242,-0.22584 z"
     id="path171"
     inkscape:connector-curvature="0" />
  <path
     style="fill:#ff00ff;stroke-width:0.17908309"
     d="m 120.7024,100.70622 c 2.28684,-7.797294 2.0936,-13.355223 -0.7612,-21.892911 -0.57636,-1.723675 -1.02065,-3.161678 -0.98732,-3.195563 0.16249,-0.165177 1.39528,2.024333 1.86598,3.314074 2.39935,6.574382 2.61891,16.236489 0.47891,21.07541 -0.41958,0.94874 -0.8006,1.39533 -0.59637,0.69899 z"
     id="path173"
     inkscape:connector-curvature="0" />
  <path
     style="fill:#ff00ff;stroke-width:0.17908309"
     d=""
     id="path175"
     inkscape:connector-curvature="0" />
  <path
     style="fill:#ff00ff;stroke-width:0.17908309"
     d="m 110.80268,95.701397 c -0.44323,-0.34224 -0.8257,-0.641886 -0.84993,-0.665879 -0.0242,-0.02399 0.14845,-0.224489 0.38376,-0.445547 l 0.42783,-0.401924 0.46946,1.025431 c 0.2582,0.563987 0.44815,1.044499 0.42211,1.067803 -0.0261,0.0233 -0.40999,-0.237644 -0.85323,-0.579884 z"
     id="path177"
     inkscape:connector-curvature="0" />
  <path
     style="fill:#ff00ff;stroke-width:0.17908309"
     d="m 116.06773,96.926562 c -2.62451,-1.921664 -5.58312,-6.592968 -7.04865,-11.129012 -0.95299,-2.949632 -1.97714,-8.625242 -1.97714,-10.956827 0,-0.784025 0.0968,-0.974159 1.18856,-2.335519 0.65371,-0.815105 1.21476,-1.512524 1.24678,-1.549819 0.032,-0.03729 0.44406,0.17245 0.91566,0.4661 0.4716,0.293649 1.34098,0.635905 1.93195,0.760568 2.63859,0.556599 4.25829,2.01344 5.26657,4.737022 0.35729,0.965115 1.69824,6.787867 2.80301,12.171369 0.85702,4.176257 0.34875,7.198374 -1.35919,8.081585 -0.87302,0.451458 -2.16125,0.3449 -2.96755,-0.245467 z"
     id="path179"
     inkscape:connector-curvature="0" />
  <path
     style="fill:#ff00ff;stroke-width:0.17908309"
     d="m 39.029435,97.140122 c -0.323245,-0.159322 -0.759991,-0.53161 -0.970547,-0.827309 -0.593436,-0.833404 -1.208573,-2.473361 -1.213272,-3.234586 -0.0023,-0.378687 0.325321,-2.15161 0.72813,-3.939828 0.947993,-4.208485 3.519844,-14.382026 3.739507,-14.792471 0.09335,-0.174427 0.365954,-0.445713 0.605786,-0.602856 0.664414,-0.435341 5.332954,-2.27217 5.775015,-2.27217 0.213987,0 0.780966,0.261909 1.259952,0.58202 1.81941,1.215929 2.078246,2.893975 1.131591,7.336149 -1.408306,6.608463 -2.403544,9.421852 -4.700544,13.287721 -2.320724,3.905797 -4.451219,5.40197 -6.355618,4.46333 z"
     id="path181"
     inkscape:connector-curvature="0" />
  <path
     style="fill:#ff00ff;stroke-width:0.17908309"
     d=""
     id="path183"
     inkscape:connector-curvature="0" />
  <path
     style="fill:#ff00ff;stroke-width:0.17908309"
     d="m 36.388066,100.11316 c -2.729405,-5.386217 -1.884462,-18.32678 1.54287,-23.629529 0.395973,-0.612647 0.761107,-1.072748 0.81141,-1.022445 0.0503,0.0503 -0.283093,1.124743 -0.740879,2.387646 -2.831461,7.811215 -3.333598,14.794922 -1.526589,21.231745 0.285144,1.015723 0.489672,1.875543 0.454506,1.910713 -0.03517,0.0352 -0.278759,-0.35999 -0.541318,-0.87813 z"
     id="path185"
     inkscape:connector-curvature="0" />
  <path
     style="fill:#ff00ff;stroke-width:0.17908309"
     d="m 45.457318,96.7952 c 0.03827,-0.09064 0.224903,-0.567359 0.414747,-1.059377 0.189843,-0.492017 0.37067,-0.927661 0.401839,-0.968097 0.07077,-0.09181 0.775198,0.535334 0.775198,0.690144 0,0.06237 -0.373807,0.425867 -0.830681,0.807767 -0.456874,0.3819 -0.799371,0.620203 -0.761103,0.529563 z"
     id="path187"
     inkscape:connector-curvature="0" />
  <path
     style="fill:#ff00ff;stroke-width:0.17908309"
     d=""
     id="path189"
     inkscape:connector-curvature="0" />
  <path
     style="fill:#ff00ff;stroke-width:0.17908309"
     d=""
     id="path191"
     inkscape:connector-curvature="0" />
  <path
     style="fill:#ff00ff;stroke-width:0.04477077"
     d="m 37.36733,103.61917 c 0.03606,-0.033 0.387907,-0.30892 0.78189,-0.61318 1.667324,-1.2876 4.045822,-3.211601 5.768122,-4.665922 0.463835,-0.391666 0.855203,-0.700253 0.869706,-0.685749 0.0145,0.0145 -0.133028,0.262912 -0.327848,0.552019 -1.564189,2.321202 -3.739856,4.072982 -6.513277,5.244282 -0.555985,0.23481 -0.695379,0.27541 -0.578593,0.16855 z"
     id="path193"
     inkscape:connector-curvature="0" />
</svg>
