<?xml version="1.0" encoding="UTF-8" standalone="no"?>
<svg
   xmlns:dc="http://purl.org/dc/elements/1.1/"
   xmlns:cc="http://creativecommons.org/ns#"
   xmlns:rdf="http://www.w3.org/1999/02/22-rdf-syntax-ns#"
   xmlns:svg="http://www.w3.org/2000/svg"
   xmlns="http://www.w3.org/2000/svg"
   xmlns:sodipodi="http://sodipodi.sourceforge.net/DTD/sodipodi-0.dtd"
   xmlns:inkscape="http://www.inkscape.org/namespaces/inkscape"
   enable-background="new 0 0 500 304"
   height="304"
   viewBox="0 0 158 304"
   width="158"
   id="svg2"
   version="1.1"
   inkscape:version="0.92.4 (5da689c313, 2019-01-14)"
   sodipodi:docname="anatomy_quad_extention.svg">
  <metadata
     id="metadata452">
    <rdf:RDF>
      <cc:Work
         rdf:about="">
        <dc:format>image/svg+xml</dc:format>
        <dc:type
           rdf:resource="http://purl.org/dc/dcmitype/StillImage" />
        <dc:title></dc:title>
      </cc:Work>
    </rdf:RDF>
  </metadata>
  <defs
     id="defs450" />
  <sodipodi:namedview
     pagecolor="#ffffff"
     bordercolor="#666666"
     borderopacity="1"
     objecttolerance="10"
     gridtolerance="10"
     guidetolerance="10"
     inkscape:pageopacity="0"
     inkscape:pageshadow="2"
     inkscape:window-width="1920"
     inkscape:window-height="986"
     id="namedview448"
     showgrid="false"
     inkscape:zoom="3.9484842"
     inkscape:cx="116.44837"
     inkscape:cy="140.64116"
     inkscape:window-x="-11"
     inkscape:window-y="-11"
     inkscape:window-maximized="1"
     inkscape:current-layer="svg2" />
  <path
     d="m 67.598281,208.39999 c 0.4,-8.8 0.7,-17.4 1.1,-26.1 0.2,-4.1 1.7,-8.1 0,-12.2 -3.3,-7.7 -6.8,-15.4 -10.3,-23.5 -1.3,8.5 -2.5,16.5 -0.5,24.8 2.2,9.1 3.9,18.3 5.8,27.5 0.6,3.1 1,6.4 1.5,9.4 l 2.4,0 z"
     id="path4"
     style="fill:#ff00ff"
     inkscape:connector-curvature="0" />
  <path
     d="m 107.39828,70.400001 c -2.3,-1.6 -4.4,-2.9 -6.3,-4.4 -1.899999,-1.4 -3.799999,-3 -5.799999,-4.3 -3,-1.9 -6.1,-3.8 -9.2,-5.3 -1.2,-0.6 -3.2,-0.8 -4.2,-0.1 -0.9,0.7 -1.2,2.6 -1.2,4.1 0,3.9 0.3,7.7 0.5,11.6 0,0.3 -0.2,0.7 -0.3,1 -0.9,3.4 -0.1,5.1 3.5,5.7 9.1,1.3 15.899999,-3.4 22.999999,-8.3 z"
     id="path6"
     style="fill:#b3b3b3"
     inkscape:connector-curvature="0" />
  <path
     d="m 91.998281,208.39999 c 2,-10.3 3.7,-20.7 6.1,-30.7 1.600003,-6.9 3.199999,-13.7 2.399999,-20.9 -0.4,-3.3 -0.899999,-6.7 -1.299999,-10 -0.9,1.2 -1.2,2.3 -1.7,3.3 -2.6,6.1 -5.4,12.1 -7.9,18.2 -1.3,3.1 -1.7,6.3 -1.4,9.8 0.8,8.1 1.2,16.2 1.6,24.3 0.1,2 -0.3,4 -0.4,6.1 1.2,-0.1 2,-0.1 2.6,-0.1 z"
     id="path8"
     style="fill:#ff00ff"
     inkscape:connector-curvature="0" />
  <path
     d="m 50.498281,70.300001 c 5.1,4.4 10.4,7.1 16.6,8.3 2,0.4 4.3,0.3 6.3,0 3.4,-0.6 4.4,-2.1 3.5,-5.5 -0.1,-0.6 -0.3,-1.2 -0.3,-1.8 0.1,-4.3 0.4,-8.5 0.4,-12.7 0,-2.3 -1.8,-3.4 -4.1,-2.6 -2,0.8 -4.1,1.6 -5.8,2.7 -5.5,3.6 -10.9,7.5 -16.6,11.6 z"
     id="path10"
     style="fill:#b3b3b3"
     inkscape:connector-curvature="0" />
  <path
     d="m 76.898281,130.79999 c 0.1,-2.7 0.1,-5.6 0.1,-8.3 0,-5.7 -2.5,-8.2 -8.2,-8.4 -1.7,-0.1 -2.7,0.4 -2.5,2.4 0.2,2.4 0,5.1 0.6,7.4 1.4,5.9 3,11.7 4.9,17.3 0.3,1 2.1,1.5 3.2,2.2 0.6,-1.1 1.6,-2.1 1.7,-3.3 0.3,-2.9 0.2,-6 0.2,-9.3 z"
     id="path12"
     style="fill:#b3b3b3"
     inkscape:connector-curvature="0" />
  <path
     d="m 47.598281,71.300001 c -1.7,0.7 -3.3,1.3 -5,2 -0.6,0.3 -1.3,0.7 -1.5,1.3 -1.5,5.9 -3.1,11.9 -4.3,17.8 -0.3,1.4 0.8,4 2,4.7 2,1.2 3.8,-0.5 5.2,-2.1 0.3,-0.3 0.5,-0.7 0.7,-1.1 3.3,-4.7 4.6,-10.1 5.7,-15.7 0.7,-3 0.8,-5.7 -2.8,-6.9 z"
     id="path14"
     style="fill:#b3b3b3"
     inkscape:connector-curvature="0" />
  <path
     d="m 109.49828,70.800001 c -1,1.5 -2.8,2.9 -2.6,4.1 0.6,5.9 1.6,11.7 4.7,16.8 1.1,1.8 2.4,3.7 4,5 2.1,1.8 4.6,0.8 5.1,-2 0.2,-1.1 0.4,-2.3 0.2,-3.4 -0.7,-4 -1.7,-7.8 -2.5,-11.8 -0.8,-3.8 -2.2,-6.9 -6.6,-7.5 -0.8,-0.1 -1.3,-0.6 -2.3,-1.2 z"
     id="path16"
     style="fill:#b3b3b3"
     inkscape:connector-curvature="0" />
  <path
     d="m 80.098281,130.59999 c 0.2,0 0.5,0 0.7,0.1 0,3.1 -0.1,6.3 0.1,9.4 0.1,1.2 0.9,2.3 1.5,3.4 1.1,-0.7 2.3,-1.3 3.4,-2 0.4,-0.3 0.6,-0.9 0.8,-1.4 3,-7.6 4.5,-15.6 4.9,-23.7 0,-0.6 -0.2,-1.5 -0.6,-1.8 -1.6,-1.3 -8.5,0.6 -8.8,2.7 -0.9,4.3 -1.4,8.8 -2,13.3 z"
     id="path18"
     style="fill:#b3b3b3"
     inkscape:connector-curvature="0" />
  <path
     d="m 83.998281,284.89999 c 0.3,0.2 0.6,0.4 0.8,0.6 0.4,-0.8 1,-1.6 1.2,-2.4 2.7,-11.7 5.6,-23.2 8.1,-34.9 1.4,-6.5 2.6,-13.1 3.7,-19.7 0.2,-1.3 -0.7,-4 -1.6,-4.3 -2.2,-0.6 -2.6,1.8 -3.4,3.3 -0.5,0.9 -0.8,2 -1,3 -0.8,5.3 -1.8,10.5 -2.3,15.8 -0.7,8 -0.8,16 -1.8,24 -0.6,5.2 -2.5,10 -3.7,14.6 z"
     id="path20"
     style="fill:#b3b3b3"
     inkscape:connector-curvature="0" />
  <path
     d="m 72.998281,285.39999 c 0.3,-0.2 0.5,-0.4 0.8,-0.7 -2.9,-9.2 -5.3,-18.5 -5.4,-28.2 -0.1,-6.3 -0.4,-12.5 -1.1,-18.7 -0.5,-4 -1.8,-7.8 -3.1,-11.6 -0.3,-1 -1.8,-1.5 -2.8,-2.3 -0.5,1 -1.3,2 -1.4,3.1 -0.1,2.1 -0.1,4.4 0.3,6.4 1.6,7.5 3.3,14.9 5.1,22.4 2.1,9.2 4.3,18.4 6.4,27.6 0.1,0.9 0.7,1.5 1.2,2 z"
     id="path22"
     style="fill:#b3b3b3"
     inkscape:connector-curvature="0" />
  <path
     d="m 64.898281,131.29999 c -0.6,-7.4 -1,-14 -1.9,-20.5 -0.3,-1.7 -2.2,-3.5 -3.8,-4.8 -1.9,-1.5 -3,-0.8 -3.1,1.7 -0.2,4.1 0,8.1 -0.8,12 -1.2,6.2 2.9,9.9 7.8,12.2 0.4,0.1 1.5,-0.6 1.8,-0.6 z"
     id="path24"
     style="fill:#b3b3b3"
     inkscape:connector-curvature="0" />
  <path
     d="m 101.69828,119.89999 c 0,-4.1 0.1,-8.2 0,-12.3 0,-2.1 -1,-2.8 -2.899999,-1.9 -2.3,1.1 -4.2,2.9 -4.5,5.7 -0.7,6.2 -1.1,12.5 -1.7,18.7 -0.2,2.1 0.8,2.6 2.5,1.7 5.599999,-3.3 8.199999,-6.1 6.599999,-11.9 z"
     id="path26"
     style="fill:#b3b3b3"
     inkscape:connector-curvature="0" />
  <path
     d="m 58.698281,198.89999 c -0.8,-5.4 -1.7,-10.7 -2.3,-16.1 -1.1,-9.8 -1.5,-19.6 -0.5,-29.5 0.6,-6.5 1.2,-13 1.7,-19.5 0.1,-1 -0.5,-2.1 -0.7,-3.2 -0.3,0.1 -0.6,0.1 -0.9,0.2 -5.7,23 -4.3,45.6 2.7,68.1 z"
     id="path28"
     style="fill:#b3b3b3"
     inkscape:connector-curvature="0" />
  <path
     d="m 98.898281,199.79999 c 7.099999,-22.8 8.399999,-45.8 2.399999,-69.2 -0.6,0.6 -1.1,1.3 -1.1,2 0,1.7 0.1,3.3 0.2,5.1 0.6,7.7 1.5,15.3 1.8,23 0.6,13.2 -0.8,26.3 -3.299999,39.1 z"
     id="path30"
     style="fill:#b3b3b3"
     inkscape:connector-curvature="0" />
  <path
     d="m 71.398281,177.79999 c -0.3,3.4 -0.8,7 -1,10.4 -0.3,6.2 -0.4,12.5 -0.4,18.7 0,1.8 0.1,4.3 2.6,4.3 2.5,0.1 2.8,-2.4 3.2,-4.3 1.8,-10.2 -0.5,-19.8 -4.4,-29.1 z"
     id="path32"
     style="fill:#ff00ff"
     inkscape:connector-curvature="0" />
  <path
     d="m 86.798281,177.49999 c -0.3,0 -0.6,0 -1,0 -3.3,9 -5.5,18.4 -4.1,28.1 0.2,1.5 0.7,3.1 1.5,4.5 1.1,1.8 3,1.5 4,-0.4 0.3,-0.7 0.6,-1.5 0.6,-2.3 -0.3,-10 -0.7,-19.9 -1,-29.9 z"
     id="path34"
     style="fill:#ff00ff"
     inkscape:connector-curvature="0" />
  <path
     d="m 33.598281,97.800001 c -3.5,3.299989 -5.8,7.799989 -7.6,15.499989 -1.9,8.5 -3.7,17 -9.2,24.3 0.7,-0.2 1.3,-0.5 1.6,-1 4,-6.2 7.7,-12.5 11.7,-18.6 4.1,-6.2 5.5,-12.7 3.5,-20.199989 z"
     id="path36"
     style="fill:#b3b3b3"
     inkscape:connector-curvature="0" />
  <path
     d="m 140.29828,137.79999 c 0.2,-0.1 0.4,-0.3 0.6,-0.4 -4.8,-6.2 -6.9,-13.4 -8.6,-20.8 -1.1,-4.7 -2.7,-9.2 -4.5,-13.7 -0.7,-1.8 -2.2,-3.399992 -3.7,-5.399989 -2.2,8.099989 -0.5,14.799989 3.7,21.199989 4,5.9 7.5,12 11.3,17.8 0.3,0.6 0.8,0.9 1.2,1.3 z"
     id="path38"
     style="fill:#b3b3b3"
     inkscape:connector-curvature="0" />
  <path
     d="m 40.798281,71.400001 c 7.5,-0.2 13.7,-7.6 17.1,-18.7 -2,-0.7 -3.8,-0.5 -5.4,0.9 -5.8,4.6 -9.3,10.8 -11.7,17.8 z"
     id="path40"
     style="fill:#b3b3b3"
     inkscape:connector-curvature="0" />
  <path
     d="m 100.19828,51.900001 c 2.8,11.4 9.3,19.6 16.7,19.5 -2.4,-6.9 -5.8,-13.1 -11.6,-17.5 -1.4,-1.2 -3.4,-1.3 -5.1,-2 z"
     id="path42"
     style="fill:#b3b3b3"
     inkscape:connector-curvature="0" />
  <path
     d="m 75.998281,182.69999 c -3,-16.9 -10.6,-32.3 -17,-48.6 -0.6,5.1 0.3,9.5 2,13.7 4.9,11.8 10,23.4 15,34.9 z"
     id="path44"
     style="fill:#b3b3b3"
     inkscape:connector-curvature="0" />
  <path
     d="m 82.198281,182.29999 c 1.2,-3.1 2.3,-6.3 3.7,-9.4 3.5,-8.2 7.2,-16.3 10.6,-24.5 2.2,-5.4 2.8,-10.2 2.1,-13.8 -6.3,15.8 -13.8,30.9 -16.4,47.7 z"
     id="path46"
     style="fill:#b3b3b3"
     inkscape:connector-curvature="0" />
  <path
     d="m 76.998281,108.39999 c 0,-5.9 -1,-6.8 -6.7,-6.3 -3.8,0.4 -6.5,5.1 -4.7,8.5 0.3,0.6 1.3,0.9 2.1,1.1 1.4,0.3 2.8,0.2 4.3,0.5 5,1.4 5,1.6 5,-3.8 z"
     id="path48"
     style="fill:#b3b3b3"
     inkscape:connector-curvature="0" />
  <path
     d="m 80.698281,113.39999 c 3.8,-0.5 7.1,-1 10.4,-1.6 0.4,-0.1 0.8,-0.9 0.9,-1.4 0.8,-2.6 -0.1,-5.6 -2,-7 -1.7,-1.3 -6.8,-1.5 -8.4,-0.3 -0.4,0.3 -0.9,1 -0.9,1.5 z"
     id="path50"
     style="fill:#b3b3b3"
     inkscape:connector-curvature="0" />
  <path
     d="m 76.998281,99.799994 c 0,-1.699993 0,-3.399993 0,-5.099993 0,-4.5 -1.7,-5.7 -5.9,-4.1 -1.3,0.5 -2.5,1.3 -3.7,2.2 -2.5,2.3 -3,5.999995 -1.5,7.799989 3.8,-0.3 7.2,-0.5 11.1,-0.799996 z"
     id="path52"
     style="fill:#b3b3b3"
     inkscape:connector-curvature="0" />
  <path
     d="m 91.898281,100.69999 c 1,-2.399989 0.6,-4.899989 -1.2,-7.099989 -2,-2.4 -4.8,-3.8 -8,-3.3 -0.7,0.1 -1.8,0.9 -1.9,1.4 -0.2,2.7 -0.1,5.6 -0.1,8.099993 3.9,0.299996 7.4,0.499996 11.2,0.899996 z"
     id="path54"
     style="fill:#b3b3b3"
     inkscape:connector-curvature="0" />
  <path
     d="m 58.698281,238.29999 c -0.3,0 -0.5,0 -0.8,0 0.2,3.1 0,6.5 0.7,9.5 2.6,11.4 5.7,22.6 8.5,33.9 0.3,1.4 0.7,2.7 1.1,4.7 1.2,-2.2 -7.8,-45.6 -9.5,-48.1 z"
     id="path56"
     style="fill:#b3b3b3"
     inkscape:connector-curvature="0" />
  <path
     d="m 19.398281,141.69999 c -1.9,1.6 -3.4,3.2 -5.3,4.6 -1.7,1.2 -3.8,2.1 -5.5000003,3.3 -2.1,1.5 -2.1,2.9 0.3,3.9 2.6000003,1 5.5000003,1.5 8.3000003,1.8 3,0.4 3.7,-0.4 2.7,-3.4 -0.2,-0.7 -0.5,-1.4 -0.5,-2 0,-2.9 0,-5.5 0,-8.2 z"
     id="path58"
     style="fill:#b3b3b3"
     inkscape:connector-curvature="0" />
  <path
     d="m 99.298281,238.29999 c -0.2,0 -0.4,0 -0.6,-0.1 -0.3,0.5 -0.6,1 -0.7,1.6 -3.2,15 -6.4,30 -9.5,45 -0.1,0.3 0.5,0.8 1,1.5 1,-4.6 1.9,-8.6 2.9,-12.6 2.3,-9 4.8,-18 6.9,-27.2 0.600003,-2.4 0,-5.3 0,-8.2 z"
     id="path60"
     style="fill:#b3b3b3"
     inkscape:connector-curvature="0" />
  <path
     d="m 138.89828,142.79999 c -0.5,2.9 -1,6.8 -1.6,10.5 -0.3,1.8 1,2 2.1,1.9 2.7,-0.3 5.5,-0.7 8.1,-1.4 1.1,-0.3 2,-1.5 3,-2.2 -0.9,-0.9 -1.6,-2 -2.6,-2.7 -3.1,-2.4 -6.4,-4.4 -9,-6.1 z"
     id="path62"
     style="fill:#b3b3b3"
     inkscape:connector-curvature="0" />
  <path
     d="m 105.49828,67.300001 c -1.9,-3.2 -3.7,-6.2 -5.3,-9.2 -1.599999,-3 -4.199999,-4.9 -7.399999,-5.8 -2.9,-0.8 -6.5,-0.2 -8.4,1.6 8.7,2.3 14.2,8.5 21.099999,13.4 z"
     id="path64"
     style="fill:#b3b3b3"
     inkscape:connector-curvature="0" />
  <path
     d="m 52.198281,67.300001 c 6.9,-5.1 12.7,-11.4 21.3,-13.5 -4.3,-3.3 -13.1,-1.8 -16.2,4.6 -1.6,2.9 -3.3,5.8 -5.1,8.9 z"
     id="path66"
     style="fill:#b3b3b3"
     inkscape:connector-curvature="0" />
  <path
     d="m 38.198281,71.900001 c 3.4,-6.9 6.4,-14.1 13.1,-18.9 -4.7,-1.5 -9.1,0.5 -11.1,5 -1.9,4.3 -2.4,8.9 -2,13.9 z"
     id="path68"
     style="fill:#b3b3b3"
     inkscape:connector-curvature="0" />
  <path
     d="m 65.598281,90.700001 c 3.5,-1.1 6.8,-2 10,-3.1 0.6,-0.2 1.2,-1 1.3,-1.7 0.2,-1.2 0.2,-2.5 0,-3.8 -0.1,-0.6 -0.8,-1.4 -1.4,-1.5 -3.3,-0.5 -6.2,0.9 -8.4,3.1 -2,1.9 -2.4,4.4 -1.5,7 z"
     id="path70"
     style="fill:#b3b3b3"
     inkscape:connector-curvature="0" />
  <path
     d="m 119.29828,71.900001 c 0.3,-5.7 0.2,-11.5 -3.4,-16.4 -2.1,-2.7 -6.2,-3.8 -9.4,-2.3 6.4,4.5 9.5,11.6 12.8,18.7 z"
     id="path72"
     style="fill:#b3b3b3"
     inkscape:connector-curvature="0" />
  <path
     d="m 91.898281,90.700001 c 1.3,-4.7 -1,-8.4 -6.2,-9.8 -4.2,-1.1 -5.2,-0.4 -5,3.9 0,1 0.5,2.5 1.2,2.8 3.2,1 6.6,2 10,3.1 z"
     id="path74"
     style="fill:#b3b3b3"
     inkscape:connector-curvature="0" />
  <path
     d="m 100.49828,175.09999 c -3.399999,10.7 -5.199999,22 -6.599999,33.2 -0.1,0.6 0.6,1.3 1.1,2.5 3.9,-12.1 4.6,-23.8 5.499999,-35.7 z"
     id="path76"
     style="fill:#ff00ff"
     inkscape:connector-curvature="0" />
  <path
     d="m 62.998281,209.89999 c 0,-11.8 -2.5,-23.1 -5.7,-34.4 0.7,11.6 1.5,23.2 5.7,34.4 z"
     id="path78"
     style="fill:#ff00ff"
     inkscape:connector-curvature="0" />
  <path
     d="m 83.198281,169.99999 c 0.9,-3 1.9,-6.1 2.7,-9.1 0.3,-1 0.1,-2.3 -0.3,-3.3 -1.5,-3 -3.2,-6 -4.8,-8.9 -1.4,4.4 -0.1,17.1 2.4,21.3 z"
     id="path80"
     style="fill:#b3b3b3"
     inkscape:connector-curvature="0" />
  <path
     d="m 74.598281,170.79999 c 2.6,-7.7 3.1,-15 2.3,-22.4 -1.5,2.8 -3,5.6 -4.5,8.4 -0.5,1 -1.2,2.2 -1,3.1 0.9,3.4 2,6.8 3.2,10.9 z"
     id="path82"
     style="fill:#b3b3b3"
     inkscape:connector-curvature="0" />
  <path
     d="m 69.198281,142.69999 c -3.5,5.2 -2.2,9.6 1.5,13.9 5.8,-8.9 5.6,-9.9 -1.5,-13.9 z"
     id="path84"
     style="fill:#b3b3b3"
     inkscape:connector-curvature="0" />
  <path
     d="m 88.198281,142.29999 c -1.7,1.5 -3.4,3 -5.1,4.7 -0.3,0.3 -0.5,1.2 -0.4,1.6 1.1,2.7 2.4,5.5 3.9,8.5 3.9,-5 5.5,-9.4 1.6,-14.8 z"
     id="path86"
     style="fill:#b3b3b3"
     inkscape:connector-curvature="0" />
  <g
     id="g88"
     style="fill:#b3b3b3"
     transform="translate(-85.601719,4.0510258e-8)">
    <path
       d="m 165.7,53.5 c 3.9,-6.3 8.1,-12.4 8.1,-20.5 -4.8,6.2 -8.7,12.4 -8.1,20.5 z"
       id="path90"
       style="fill:#b3b3b3"
       inkscape:connector-curvature="0" />
    <path
       d="m 155.1,33.2 c -0.1,8.2 4.3,14.2 7.8,20.6 1.6,-5.2 -1.6,-12.9 -7.8,-20.6 z"
       id="path92"
       style="fill:#b3b3b3"
       inkscape:connector-curvature="0" />
    <path
       d="m 166.8,209.6 c 0,3 -0.5,5.9 0.1,8.3 1.6,6 3.8,11.8 5.7,17.6 1.4,-4.8 0.4,-9.1 -1.6,-13.5 -1.9,-3.7 -2.8,-7.8 -4.2,-12.4 z"
       id="path94"
       style="fill:#b3b3b3"
       inkscape:connector-curvature="0" />
    <path
       d="m 161.9,210.8 c -1.5,4.4 -2.9,9 -4.9,13.4 -1.7,4 -1.7,7.7 -0.8,11.4 0.8,-2.4 1.2,-5.4 2.6,-7.8 3.4,-5.5 3.7,-11.3 3.1,-17 z"
       id="path96"
       style="fill:#b3b3b3"
       inkscape:connector-curvature="0" />
    <path
       d="m 163.7,8 c 0,-1.9 0.1,-4.3 -0.1,-6.5 -0.1,-0.6 -1.3,-1.5 -2,-1.5 -5,0.1 -6.6,2.8 -5,7.4 2.5,0.3 4.8,0.4 7.1,0.6 z"
       id="path98"
       style="fill:#b3b3b3"
       inkscape:connector-curvature="0" />
    <path
       d="m 172.7,7.5 c 0.2,-0.8 0.8,-2.2 0.5,-3.3 -0.3,-1.1 -1.3,-2.5 -2.4,-2.9 -1.5,-0.7 -3.3,-0.6 -5.1,-0.9 -0.1,0 -0.3,0.4 -0.3,0.7 -0.2,2.5 -0.4,5.1 -0.5,7.1 2.7,-0.4 5.1,-0.5 7.8,-0.7 z"
       id="path100"
       style="fill:#b3b3b3"
       inkscape:connector-curvature="0" />
    <path
       d="m 169.4,230.7 c -1.5,6.9 -2.8,13.7 -0.8,20.7 3.3,-6.8 2.1,-13.7 0.8,-20.7 z"
       id="path102"
       style="fill:#b3b3b3"
       inkscape:connector-curvature="0" />
    <path
       d="m 190.4,88.6 c -2.4,3.2 -5,6.2 -7.1,9.4 -1.1,1.7 -1.4,4 -0.2,6 4.5,-2.2 7.3,-8.3 7.3,-15.4 z"
       id="path104"
       style="fill:#b3b3b3"
       inkscape:connector-curvature="0" />
    <path
       d="m 160.3,251.4 c 2.2,-7 0.5,-13.7 -0.9,-20.5 -1,6.9 -2.6,13.8 0.9,20.5 z"
       id="path106"
       style="fill:#b3b3b3"
       inkscape:connector-curvature="0" />
    <path
       d="m 138.4,88.6 c 0.4,6.4 1.7,11.9 7.2,15.8 1.4,-2.5 0.9,-4.8 -0.5,-6.7 -2,-3 -4.3,-5.9 -6.7,-9.1 z"
       id="path108"
       style="fill:#b3b3b3"
       inkscape:connector-curvature="0" />
  </g>
  <path
     d="m 37.998281,113.99999 c -9.6,5.4 -11.4,16.1 -17,24.1 5.6,-8 11.3,-16.1 17,-24.1 z"
     id="path110"
     style="fill:#b3b3b3"
     inkscape:connector-curvature="0" />
  <path
     d="m 136.69828,137.89999 c -5.7,-7.8 -7.3,-18.5 -16.7,-23.6 5.5,7.9 11.1,15.9 16.7,23.6 z"
     id="path112"
     style="fill:#b3b3b3"
     inkscape:connector-curvature="0" />
  <path
     d="m 86.398281,250.79999 c -0.4,-0.1 -0.8,-0.1 -1.2,-0.2 -3.9,8.5 0.8,17.4 -1.3,26.1 0.3,0 0.7,0 1,0.1 0.5,-8.8 1,-17.4 1.5,-26 z"
     id="path114"
     style="fill:#b3b3b3"
     inkscape:connector-curvature="0" />
  <path
     d="m 44.998281,103.69999 c -5,1.9 -9.9,6.7 -10.5,10 2.5,-1.3 5.1,-2.7 7.7,-4.1 2.7,-1.3 3.4,-2.7 2.8,-5.9 z"
     id="path116"
     style="fill:#b3b3b3"
     inkscape:connector-curvature="0" />
  <path
     d="m 72.498281,274.79999 0.6,0 c 0.2,-4.1 0.5,-8.1 0.7,-12.3 0.4,-8 0.2,-9.5 -2.3,-11.8 0.3,8.2 0.7,16.2 1,24.1 z"
     id="path118"
     style="fill:#b3b3b3"
     inkscape:connector-curvature="0" />
  <path
     d="m 98.998281,206.69999 c -0.2,0 -0.3,-0.1 -0.5,-0.1 -1.7,5.3 -3.4,10.6 -5.3,16.3 1.7,-1.2 2.9,-2 4.1,-2.9 0.7,-0.6 1.5,-1.4 1.6,-2.1 0.2,-3.7 0.1,-7.5 0.1,-11.2 z"
     id="path120"
     style="fill:#b3b3b3"
     inkscape:connector-curvature="0" />
  <path
     d="m 123.79828,113.99999 c -2.6,-5.1 -6.5,-8 -11.3,-10.6 -0.3,2.5 -0.1,4.6 1.8,5.7 3,1.6 6,3.2 9.5,4.9 z"
     id="path122"
     style="fill:#b3b3b3"
     inkscape:connector-curvature="0" />
  <path
     d="m 64.298281,222.59999 c -1.5,-4.9 -2.9,-9.4 -4.4,-13.9 -0.2,-0.6 -0.5,-1.1 -1,-2.2 l 0,12.7 c 1.8,1.1 3.3,2.2 5.4,3.4 z"
     id="path124"
     style="fill:#b3b3b3"
     inkscape:connector-curvature="0" />
  <path
     d="m 90.898281,211.39999 c -2.2,0 -3.8,1.2 -3.8,2.8 0,1.6 1.8,3.8 3.5,3.9 1.4,0.1 3.5,-2.2 3.5,-3.9 0,-2.1 -1.8,-2.5 -3.2,-2.8 z"
     id="path126"
     style="fill:#b3b3b3"
     inkscape:connector-curvature="0" />
  <path
     d="m 63.498281,215.39999 c 0.8,0.7 1.9,2.1 3.3,2.6 1.4,0.5 3.9,-2.2 3.7,-3.9 -0.2,-2.1 -1.8,-2.8 -3.5,-2.7 -1.8,0 -3.3,0.8 -3.5,4 z"
     id="path128"
     style="fill:#b3b3b3"
     inkscape:connector-curvature="0" />
  <path
     d="m 6.5982807,144.79999 c 5.8000003,1.4 9.9000003,-0.3 11.1000003,-4.4 -4.3,-0.7 -7.7000002,1.1 -11.1000003,4.4 z"
     id="path130"
     style="fill:#b3b3b3"
     inkscape:connector-curvature="0" />
  <path
     d="m 139.89828,140.39999 c 1.8,4.4 6.4,6.1 11,4.2 -3.1,-3.1 -6.5,-4.8 -11,-4.2 z"
     id="path132"
     style="fill:#b3b3b3"
     inkscape:connector-curvature="0" />
  <path
     d="m 127.79828,134.69999 c -4.3,-7.8 -8.4,-15.7 -12.7,-23.5 1.8,9.2 7.5,16.1 12.7,23.5 z"
     id="path134"
     style="fill:#b3b3b3"
     inkscape:connector-curvature="0" />
  <path
     d="m 74.798281,37.400001 c 1.3,1.9 2.7,3.9 4.1,5.8 1.3,-1.8 2.6,-3.8 4,-5.7 -2.2,-1.8 -5.6,-2 -8.1,-0.1 z"
     id="path136"
     style="fill:#b3b3b3"
     inkscape:connector-curvature="0" />
  <path
     d="m 42.898281,111.79999 c -0.2,-0.1 -0.4,-0.2 -0.6,-0.3 -4,7.4 -7.9,14.8 -11.9,22.3 5,-7 10.3,-13.6 12.5,-22 z"
     id="path138"
     style="fill:#b3b3b3"
     inkscape:connector-curvature="0" />
  <path
     d="m 88.598281,42.000001 c 0.8,4.4 5.9,8.5 11.899999,6.4 -3.999999,-2.3 -7.799999,-4.3 -11.899999,-6.4 z"
     id="path140"
     style="fill:#b3b3b3"
     inkscape:connector-curvature="0" />
  <path
     d="m 57.098281,48.500001 c 6.4,2 11.6,-2.7 11.9,-6.4 -4.1,2 -7.9,4.2 -11.9,6.4 z"
     id="path142"
     style="fill:#b3b3b3"
     inkscape:connector-curvature="0" />
  <path
     d="m 133.29828,140.39999 c 0.2,-0.1 0.4,-0.2 0.5,-0.3 -3.5,-7.6 -7.4,-15.1 -13.3,-21.3 4.3,7.1 8.6,14.3 12.8,21.6 z"
     id="path144"
     style="fill:#b3b3b3"
     inkscape:connector-curvature="0" />
  <path
     d="m 23.398281,139.79999 c 0.3,0.2 0.6,0.3 0.9,0.5 4.3,-7.2 8.4,-14.3 12.7,-21.5 -0.4,-0.2 -0.7,-0.4 -1.1,-0.6 -4.1,7.2 -8.2,14.4 -12.5,21.6 z"
     id="path146"
     style="fill:#b3b3b3"
     inkscape:connector-curvature="0" />
  <g
     id="g148"
     style="fill:#b3b3b3"
     transform="translate(-85.601719,4.0510258e-8)">
    <path
       d="m 141,87.2 c -0.1,2.9 2.6,6.7 5.7,7.8 1,-4.2 -0.7,-6.6 -5.7,-7.8 z"
       id="path150"
       style="fill:#b3b3b3"
       inkscape:connector-curvature="0" />
    <path
       d="m 182.6,96.1 c 2.2,-3 4.2,-5.7 6.4,-8.7 -5.6,0.2 -8.4,4.3 -6.4,8.7 z"
       id="path152"
       style="fill:#b3b3b3"
       inkscape:connector-curvature="0" />
    <path
       d="m 124.8,74.9 c -4.9,3.9 -6.3,22.2 -1.8,26.8 -3.6,-9.4 -1.8,-18.1 1.8,-26.8 z"
       id="path154"
       style="fill:#b3b3b3"
       inkscape:connector-curvature="0" />
    <path
       d="m 204.1,75 c 3.5,8.6 5.4,17.2 1.7,26.9 4.4,-4.8 3,-22.9 -1.7,-26.9 z"
       id="path156"
       style="fill:#b3b3b3"
       inkscape:connector-curvature="0" />
    <path
       d="m 156.2,297.4 c 0.2,0.2 0.5,0.4 0.7,0.7 0.6,-0.6 1.7,-1 1.8,-1.7 0.4,-2.6 0.6,-5.3 0.8,-7.9 0,-0.5 -0.6,-1 -1,-1.5 -0.4,0.4 -1.1,0.8 -1.2,1.3 -0.4,3 -0.7,6.1 -1.1,9.1 z"
       id="path158"
       style="fill:#b3b3b3"
       inkscape:connector-curvature="0" />
    <path
       d="m 171.9,298.1 c 0.2,-0.2 0.5,-0.5 0.7,-0.7 -0.3,-3 -0.6,-6 -1,-9 -0.1,-0.5 -0.8,-0.9 -1.2,-1.4 -0.4,0.6 -1.1,1.2 -1,1.7 0.2,2.5 0.5,5.2 0.9,7.6 0,0.7 1,1.2 1.6,1.8 z"
       id="path160"
       style="fill:#b3b3b3"
       inkscape:connector-curvature="0" />
    <path
       d="m 158.8,26.6 c 2.3,3.4 9.5,3.3 11.3,0 -3.8,0 -7.5,0 -11.3,0 z"
       id="path162"
       style="fill:#b3b3b3"
       inkscape:connector-curvature="0" />
    <path
       d="m 173.1,14.3 c 0.1,-3.3 -1,-5.4 -2.9,-5.7 -2.1,-0.4 -4,1.2 -4.7,4.6 2.8,-1.8 5.2,-1.3 7.6,1.1 z"
       id="path164"
       style="fill:#b3b3b3"
       inkscape:connector-curvature="0" />
    <path
       d="m 181.7,88.1 c 0.3,0.1 0.6,0.3 0.9,0.4 1.4,-2.7 2.8,-5.6 4.4,-8.3 -0.2,-0.1 -0.5,-0.2 -0.7,-0.4 -5.5,3.8 -5.8,4.3 -4.6,8.3 z"
       id="path166"
       style="fill:#b3b3b3"
       inkscape:connector-curvature="0" />
    <path
       d="m 163.1,13.1 c -0.5,-3.1 -2.2,-4.7 -4.4,-4.4 -2,0.3 -3.1,2.1 -2.9,5.3 2.2,-1.7 4.5,-2.6 7.3,-0.9 z"
       id="path168"
       style="fill:#b3b3b3"
       inkscape:connector-curvature="0" />
    <path
       d="m 142.1,79.4 c 0.8,3.8 2,6.7 4.8,9 1.5,-3.9 1,-4.8 -4.8,-9 z"
       id="path170"
       style="fill:#b3b3b3"
       inkscape:connector-curvature="0" />
    <path
       d="m 232.1,155.5 c -0.2,0.3 -0.4,0.6 -0.6,0.9 1.1,2.5 2.1,5.1 3.3,7.5 0.3,0.6 1.1,0.9 1.6,1.4 0.1,-0.8 0.4,-1.6 0.2,-2.3 -0.8,-2.1 -1.8,-4.3 -2.8,-6.3 -0.3,-0.5 -1.2,-0.7 -1.7,-1.2 z"
       id="path172"
       style="fill:#b3b3b3"
       inkscape:connector-curvature="0" />
    <path
       d="m 96.4,155.3 c -0.3,0 -0.5,0.1 -0.8,0.1 -1.2,2.6 -2.4,5.3 -3.5,8 -0.2,0.5 0.2,1.2 0.3,1.8 0.5,-0.4 1.2,-0.6 1.5,-1.1 1.1,-2.2 2.1,-4.5 3,-6.8 0.2,-0.4 -0.3,-1.2 -0.5,-2 z"
       id="path174"
       style="fill:#b3b3b3"
       inkscape:connector-curvature="0" />
  </g>
  <path
     d="m 150.79828,147.89999 c 1.5,1 2.9,1.9 4.5,2.6 0.5,0.2 1.2,-0.2 1.9,-0.3 -0.1,-0.6 -0.1,-1.5 -0.4,-1.8 -0.7,-0.7 -1.7,-1.2 -2.6,-1.9 -1.8,-1.3 -2.8,-1 -3.4,1.4 z"
     id="path176"
     style="fill:#b3b3b3"
     inkscape:connector-curvature="0" />
  <path
     d="m 80.298281,14.300001 c 0.7,2.2 3.7,4.1 5.9,3.3 0.8,-0.2 1.2,-1.5 2.1,-2.7 -3.3,-0.3 -5.5,-0.5 -8,-0.6 z"
     id="path178"
     style="fill:#b3b3b3"
     inkscape:connector-curvature="0" />
  <path
     d="m 73.198281,24.900001 11.5,0 c -2.7,-2.7 -9.2,-2.7 -11.5,0 z"
     id="path180"
     style="fill:#b3b3b3"
     inkscape:connector-curvature="0" />
  <path
     d="m 37.098281,103.79999 c 4.7,-1.7 7.7,-4.899994 9.2,-9.299989 0.3,0.3 0.6,0.7 0.9,1 -3.3,2.9 -6.7,5.699989 -10.1,8.299989 z"
     id="path182"
     style="fill:#b3b3b3"
     inkscape:connector-curvature="0" />
  <path
     d="m 77.498281,14.300001 c -2.5,0.2 -4.9,0.4 -7.8,0.6 0.5,1 0.6,2.2 1.3,2.5 1.9,1.1 5.5,-0.8 6.5,-3.1 z"
     id="path184"
     style="fill:#b3b3b3"
     inkscape:connector-curvature="0" />
  <path
     d="m 120.09828,104.29999 0.8,-0.8 c -3.7,-2.8 -7.4,-5.699989 -11.1,-8.499989 l 1,-1 c 1.7,4.699995 4.8,8.199989 9.3,10.299989 z"
     id="path186"
     style="fill:#b3b3b3"
     inkscape:connector-curvature="0" />
  <path
     d="m 7.3982807,154.79999 c -0.2,-0.3 -0.4,-0.7 -0.6,-0.8 -0.4,-0.1 -1,0 -1.2,0.2 -1.4,2.2 -2.7,4.6 -4.1,6.9 -0.1,0.2 0.1,0.8 0.4,1.1 0.1,0.1 0.8,0.1 0.9,-0.1 1.5,-2.4 3.1,-4.9 4.6,-7.3 z"
     id="path188"
     style="fill:#b3b3b3"
     inkscape:connector-curvature="0" />
  <path
     d="m 144.79828,165.69999 c 0.4,-0.1 0.7,-0.2 1.1,-0.2 0.4,-3 -1.5,-5.7 -2.3,-8.5 -0.1,-0.3 -1,-0.4 -2.1,-0.7 1.1,3.4 2.2,6.4 3.3,9.4 z"
     id="path190"
     style="fill:#b3b3b3"
     inkscape:connector-curvature="0" />
  <path
     d="m 155.09828,162.59999 c 0.4,-0.2 0.9,-0.5 1.3,-0.7 -1.1,-2.9 -2.8,-5.5 -4.7,-8 -0.1,-0.2 -1,0.3 -1.7,0.5 1.9,3 3.5,5.6 5.1,8.2 z"
     id="path192"
     style="fill:#b3b3b3"
     inkscape:connector-curvature="0" />
  <path
     d="m 11.798281,165.59999 c 0.3,0.1 0.7,0.1 1,0.2 0.9,-2.8 1.9,-5.7 2.8,-8.5 0,-0.2 -0.6,-0.8 -0.8,-0.7 -0.4,0.2 -0.9,0.5 -1.1,0.9 -0.8,2.1 -1.5,4.2 -2.1,6.3 -0.1,0.5 0.1,1.2 0.2,1.8 z"
     id="path194"
     style="fill:#b3b3b3"
     inkscape:connector-curvature="0" />
  <path
     d="m 135.69828,150.79999 c 0.4,-0.1 0.8,-0.1 1.3,-0.2 -0.1,-2.3 -0.2,-4.7 -0.5,-7 0,-0.4 -0.7,-0.8 -1,-1.2 -0.3,0.4 -1,0.9 -1,1.3 0.4,2.3 0.8,4.8 1.2,7.1 z"
     id="path196"
     style="fill:#b3b3b3"
     inkscape:connector-curvature="0" />
  <path
     d="m 86.198281,28.800001 c -3.9,0.2 -5,2.8 -6.4,5.7 3.6,-0.6 5,-2.9 6.4,-5.7 z"
     id="path198"
     style="fill:#b3b3b3"
     inkscape:connector-curvature="0" />
  <path
     d="m 89.398281,15.300001 c 2.2,-4.2 2,-7.700001 -0.2,-9.800001 -1.8,3.2000002 0.6,6.100001 0.2,9.800001 z"
     id="path200"
     style="fill:#b3b3b3"
     inkscape:connector-curvature="0" />
  <path
     d="m 90.098281,297.89999 c -0.6,-3.5 -0.4,-7 -2.4,-9.7 0,2.9 0.3,5.9 0.8,8.7 0,0.4 1,0.7 1.6,1 z"
     id="path202"
     style="fill:#b3b3b3"
     inkscape:connector-curvature="0" />
  <path
     d="m 105.79828,145.39999 c 0,-5.5 -0.3,-11 -1.9,-16.2 -0.3,0 -0.6,0.1 -0.9,0.1 0.9,5.5 1.8,10.8 2.8,16.1 z"
     id="path204"
     style="fill:#b3b3b3"
     inkscape:connector-curvature="0" />
  <path
     d="m 21.098281,141.99999 c -0.2,3.2 -0.3,5.9 -0.4,8.5 3,-3.8 3.2,-6.7 0.4,-8.5 z"
     id="path206"
     style="fill:#b3b3b3"
     inkscape:connector-curvature="0" />
  <path
     d="m 92.398281,139.29999 c -3,1.8 -3.1,4.1 -0.2,6.4 1.3,-2.2 2.2,-4.2 0.2,-6.4 z"
     id="path208"
     style="fill:#b3b3b3"
     inkscape:connector-curvature="0" />
  <path
     d="m 68.498281,5.3 c -2.3,2.2 -2.4,4.700001 -0.6,9.600001 0.4,-3.3 1.9,-6.2000008 0.6,-9.600001 z"
     id="path210"
     style="fill:#b3b3b3"
     inkscape:connector-curvature="0" />
  <path
     d="m 66.998281,297.79999 c 2.2,-0.4 3.5,-5.5 3,-9.6 -0.2,-0.1 -0.5,-0.1 -0.7,-0.2 -0.7,3 -1.5,6.3 -2.3,9.8 z"
     id="path212"
     style="fill:#b3b3b3"
     inkscape:connector-curvature="0" />
  <path
     d="m 77.398281,34.400001 c -1.2,-4.2 -2.2,-5.1 -5.8,-5.5 1.2,2.8 2.6,5 5.8,5.5 z"
     id="path214"
     style="fill:#b3b3b3"
     inkscape:connector-curvature="0" />
  <path
     d="m 65.098281,139.29999 c -1.6,2.3 -1,4.4 0.6,6.5 2.6,-2.9 2.3,-5 -0.6,-6.5 z"
     id="path216"
     style="fill:#b3b3b3"
     inkscape:connector-curvature="0" />
  <path
     d="m 89.798281,21.900001 c -1.2,3.2 -2.2,6.2 -3.3,9.1 3.5,-2.3 5.3,-6.8 3.3,-9.1 z"
     id="path218"
     style="fill:#b3b3b3"
     inkscape:connector-curvature="0" />
  <path
     d="m 51.498281,144.29999 c 0.2,0 0.4,0 0.6,0.1 0.8,-5 1.7,-9.8 2.5,-14.8 -0.4,-0.1 -0.8,-0.1 -1.2,-0.2 -0.7,4.9 -1.3,9.8 -1.9,14.9 z"
     id="path220"
     style="fill:#b3b3b3"
     inkscape:connector-curvature="0" />
  <g
     id="g222"
     style="fill:#b3b3b3"
     transform="translate(-85.601719,4.0510258e-8)">
    <path
       d="m 156.7,30.9 c -0.9,-2.8 -1.7,-5.2 -2.5,-7.5 -0.2,-0.5 -0.6,-0.9 -0.9,-1.3 -0.2,0.5 -0.7,1 -0.7,1.4 0.1,3 1.1,5.6 4.1,7.4 z"
       id="path224"
       style="fill:#b3b3b3"
       inkscape:connector-curvature="0" />
    <path
       d="m 162.1,288 c -0.3,0 -0.6,0 -0.9,0 -0.3,2.8 -0.6,5.6 -0.8,8.4 0,0.4 0.6,0.8 1,1.2 0.2,-0.4 0.7,-0.8 0.7,-1.2 0,-2.8 0,-5.5 0,-8.4 z"
       id="path226"
       style="fill:#b3b3b3"
       inkscape:connector-curvature="0" />
    <path
       d="m 167.7,288 c -0.3,0 -0.7,0 -1,0 l 0,8.6 c 0,0.3 0.6,0.7 1,0.9 0.1,0.1 0.8,-0.5 0.8,-0.7 -0.3,-2.8 -0.5,-5.8 -0.8,-8.8 z"
       id="path228"
       style="fill:#b3b3b3"
       inkscape:connector-curvature="0" />
    <path
       d="m 142.8,85.5 c -1.2,-2 -2.2,-3.7 -3.4,-5.7 -1.5,4.1 -0.7,5.4 3.4,5.7 z"
       id="path230"
       style="fill:#b3b3b3"
       inkscape:connector-curvature="0" />
    <path
       d="m 186.2,85.5 c 4.1,-0.1 4.9,-1.7 3.1,-5.6 -1.1,1.9 -2,3.6 -3.1,5.6 z"
       id="path232"
       style="fill:#b3b3b3"
       inkscape:connector-curvature="0" />
    <path
       d="m 171.6,24.9 c 1,-1.3 1.9,-2.3 2.5,-3.4 0.2,-0.4 0.2,-1.3 -0.1,-1.5 -0.3,-0.3 -1.4,-0.4 -1.5,-0.2 -1,1.4 -2.6,2.9 -0.9,5.1 z"
       id="path234"
       style="fill:#b3b3b3"
       inkscape:connector-curvature="0" />
    <path
       d="m 102.3,163.8 c 0.4,0.1 0.8,0.2 1.3,0.3 0.7,-2.2 1.4,-4.4 2,-6.6 0.1,-0.2 -0.3,-0.8 -0.4,-0.8 -0.4,0 -0.9,0.2 -1,0.4 -0.7,2.1 -1.3,4.4 -1.9,6.7 z"
       id="path236"
       style="fill:#b3b3b3"
       inkscape:connector-curvature="0" />
    <path
       d="m 225.3,164.1 c 0.3,-0.1 0.5,-0.1 0.8,-0.2 0.5,-2.4 -0.9,-6.5 -3.1,-7.6 0.8,2.9 1.6,5.3 2.3,7.8 z"
       id="path238"
       style="fill:#b3b3b3"
       inkscape:connector-curvature="0" />
    <path
       d="m 153.5,225.6 c 0.8,-2.5 1.3,-4.4 1.8,-6.2 -1.3,0.4 -2.3,0.7 -3.5,1 0.6,1.6 1,3 1.7,5.2 z"
       id="path240"
       style="fill:#b3b3b3"
       inkscape:connector-curvature="0" />
    <path
       d="m 157.2,24.9 c 2,-1.8 0.3,-3.2 -0.3,-4.6 -0.2,-0.3 -1.1,-0.3 -1.7,-0.5 -0.1,0.6 -0.5,1.3 -0.3,1.7 0.5,1.2 1.4,2.2 2.3,3.4 z"
       id="path242"
       style="fill:#b3b3b3"
       inkscape:connector-curvature="0" />
    <path
       d="m 174.4,49.1 c -0.7,-1.8 -1.1,-3 -1.7,-4.6 -0.8,1.7 -1.4,3.2 -2.3,5.3 1.6,-0.3 2.7,-0.6 4,-0.7 z"
       id="path244"
       style="fill:#b3b3b3"
       inkscape:connector-curvature="0" />
    <path
       d="m 175.3,225.6 c 0.6,-1.9 1.1,-3.5 1.6,-5.3 -1.2,-0.3 -2.3,-0.6 -3.4,-0.9 0.6,2.1 1.2,4 1.8,6.2 z"
       id="path246"
       style="fill:#b3b3b3"
       inkscape:connector-curvature="0" />
    <path
       d="m 159.1,22.4 c 2.4,-0.7 2.1,-2.3 1.6,-4.3 -1,0.3 -2,0.6 -3.1,0.9 0.5,1.4 0.9,2.4 1.5,3.4 z"
       id="path248"
       style="fill:#b3b3b3"
       inkscape:connector-curvature="0" />
    <path
       d="m 158.8,49.9 c -1,-2.1 -1.8,-3.5 -2.7,-5.3 -0.6,1.7 -1,2.9 -1.5,4.5 1.1,0.1 2.3,0.4 4.2,0.8 z"
       id="path250"
       style="fill:#b3b3b3"
       inkscape:connector-curvature="0" />
    <path
       d="m 171.5,19.2 c -1.1,-0.3 -2.2,-0.6 -3.2,-0.9 -0.5,3.1 -0.5,3.1 1.6,4.1 0.3,-1 0.8,-1.9 1.6,-3.2 z"
       id="path252"
       style="fill:#b3b3b3"
       inkscape:connector-curvature="0" />
    <path
       d="m 175.7,290 c 1.2,6.2 2.2,7.7 4.2,6.7 -1.3,-2.2 -2.8,-4.4 -4.2,-6.7 z"
       id="path254"
       style="fill:#b3b3b3"
       inkscape:connector-curvature="0" />
    <path
       d="m 153.1,291.4 c -0.2,-0.1 -0.4,-0.2 -0.6,-0.3 -1.2,1.9 -2.5,4 -3.8,5.9 0.2,0.2 0.5,0.3 0.7,0.5 3,-1 2.4,-4.1 3.7,-6.1 z"
       id="path256"
       style="fill:#b3b3b3"
       inkscape:connector-curvature="0" />
    <path
       d="m 179.5,80.9 c 0.3,0.4 0.6,0.8 1,1.1 1.2,-1.1 2.4,-2.3 3.8,-3.4 -0.2,-0.2 -0.3,-0.4 -0.5,-0.5 -1.6,0.9 -3,1.9 -4.3,2.8 z"
       id="path258"
       style="fill:#b3b3b3"
       inkscape:connector-curvature="0" />
    <ellipse
       cx="160.3"
       cy="301.70001"
       rx="1.6"
       ry="2.3"
       id="ellipse260"
       style="fill:#b3b3b3" />
    <ellipse
       cx="168.2"
       cy="301.70001"
       rx="1.6"
       ry="2.3"
       id="ellipse262"
       style="fill:#b3b3b3" />
    <path
       d="m 173.9,303.1 c -0.4,0.2 -0.8,0.1 -1,-0.3 l -0.7,-1.2 c -0.2,-0.4 -0.1,-0.8 0.3,-1 0.4,-0.2 0.8,-0.1 1,0.3 l 0.7,1.2 c 0.2,0.3 0.1,0.8 -0.3,1 z"
       id="path264"
       style="fill:#b3b3b3"
       inkscape:connector-curvature="0" />
    <path
       d="m 177.3,303.1 c -0.4,0.2 -0.8,0.1 -1,-0.3 l -0.7,-1.2 c -0.2,-0.4 -0.1,-0.8 0.3,-1 0.4,-0.2 0.8,-0.1 1,0.3 l 0.7,1.2 c 0.2,0.3 0.1,0.8 -0.3,1 z"
       id="path266"
       style="fill:#b3b3b3"
       inkscape:connector-curvature="0" />
    <path
       d="m 179.8,302.2 c -0.4,0.2 -0.8,0.1 -1,-0.3 l -0.7,-1.2 c -0.2,-0.4 -0.1,-0.8 0.3,-1 0.4,-0.2 0.8,-0.1 1,0.3 l 0.7,1.2 c 0.2,0.4 0.1,0.9 -0.3,1 z"
       id="path268"
       style="fill:#b3b3b3"
       inkscape:connector-curvature="0" />
    <path
       d="m 182.1,301.6 c -0.4,0.2 -0.8,0.1 -1,-0.3 l -0.7,-1.2 c -0.2,-0.4 -0.1,-0.8 0.3,-1 0.4,-0.2 0.8,-0.1 1,0.3 l 0.7,1.2 c 0.1,0.3 0,0.8 -0.3,1 z"
       id="path270"
       style="fill:#b3b3b3"
       inkscape:connector-curvature="0" />
    <path
       d="m 154.2,303.6 c 0.4,0.2 0.8,0.1 1,-0.3 l 0.7,-1.2 c 0.2,-0.4 0.1,-0.8 -0.3,-1 -0.4,-0.2 -0.8,-0.1 -1,0.3 l -0.7,1.2 c -0.1,0.3 0,0.8 0.3,1 z"
       id="path272"
       style="fill:#b3b3b3"
       inkscape:connector-curvature="0" />
    <path
       d="m 151.4,303.1 c 0.4,0.2 0.8,0.1 1,-0.3 l 0.7,-1.2 c 0.2,-0.4 0.1,-0.8 -0.3,-1 -0.4,-0.2 -0.8,-0.1 -1,0.3 l -0.7,1.2 c -0.2,0.3 0,0.6 0.3,1 z"
       id="path274"
       style="fill:#b3b3b3"
       inkscape:connector-curvature="0" />
    <path
       d="m 148.9,302.2 c 0.4,0.2 0.8,0.1 1,-0.3 l 0.7,-1.2 c 0.2,-0.4 0.1,-0.8 -0.3,-1 -0.4,-0.2 -0.8,-0.1 -1,0.3 l -0.7,1.2 c -0.2,0.3 -0.1,0.8 0.3,1 z"
       id="path276"
       style="fill:#b3b3b3"
       inkscape:connector-curvature="0" />
    <path
       d="m 146.7,301.5 c 0.4,0.2 0.8,0.1 1,-0.3 l 0.7,-1.2 c 0.2,-0.4 0.1,-0.8 -0.3,-1 -0.4,-0.2 -0.8,-0.1 -1,0.3 l -0.7,1.2 c -0.2,0.2 -0.1,0.7 0.3,1 z"
       id="path278"
       style="fill:#b3b3b3"
       inkscape:connector-curvature="0" />
  </g>
</svg>
