<?xml version="1.0" encoding="UTF-8" standalone="no"?>
<svg
   xmlns:dc="http://purl.org/dc/elements/1.1/"
   xmlns:cc="http://creativecommons.org/ns#"
   xmlns:rdf="http://www.w3.org/1999/02/22-rdf-syntax-ns#"
   xmlns:svg="http://www.w3.org/2000/svg"
   xmlns="http://www.w3.org/2000/svg"
   xmlns:sodipodi="http://sodipodi.sourceforge.net/DTD/sodipodi-0.dtd"
   xmlns:inkscape="http://www.inkscape.org/namespaces/inkscape"
   enable-background="new 0 0 500 304"
   height="304"
   viewBox="0 0 154 304"
   width="154"
   id="svg2"
   version="1.1"
   inkscape:version="0.92.4 (5da689c313, 2019-01-14)"
   sodipodi:docname="anatomy_shoulder_press_posterior.svg">
  <metadata
     id="metadata722">
    <rdf:RDF>
      <cc:Work
         rdf:about="">
        <dc:format>image/svg+xml</dc:format>
        <dc:type
           rdf:resource="http://purl.org/dc/dcmitype/StillImage" />
        <dc:title></dc:title>
      </cc:Work>
    </rdf:RDF>
  </metadata>
  <defs
     id="defs720" />
  <sodipodi:namedview
     pagecolor="#ffffff"
     bordercolor="#666666"
     borderopacity="1"
     objecttolerance="10"
     gridtolerance="10"
     guidetolerance="10"
     inkscape:pageopacity="0"
     inkscape:pageshadow="2"
     inkscape:window-width="1920"
     inkscape:window-height="986"
     id="namedview718"
     showgrid="false"
     inkscape:zoom="11.313709"
     inkscape:cx="108.71726"
     inkscape:cy="221.23465"
     inkscape:window-x="-11"
     inkscape:window-y="-11"
     inkscape:window-maximized="1"
     inkscape:current-layer="svg2" />
  <path
     d="m 74.562564,132.75355 c 0.2,-1.2 0.5,-1.7 0.4,-2.3 -0.4,-12.3 -0.7,-24.7 -1.3,-36.999997 -0.2,-3.4 -0.2,-6.9 -2.7,-9.8 -4.3,-4.9 -9,-8.8 -15.7,-9.7 -3.2,-0.4 -6.3,-1 -10,-1.6 0.5,2 0.7,3.2 1.1,4.4 4.5,12.8 8.9,25.799997 13.6,38.499997 0.7,2 2.1,3.9 3.5,5.6 2.7,3.2 5.6,6.2 8.4,9.3 0.8,0.7 1.6,1.5 2.7,2.6 z"
     id="path552"
     style="fill:#b3b3b3"
     inkscape:connector-curvature="0" />
  <path
     d="m 108.06256,72.553553 c -1.3,0 -2.2,-0.1 -3,0 -4.3,0.9 -8.599996,1.5 -12.699996,2.9 -5,1.7 -8.2,5.8 -11.3,9.9 -0.6,0.8 -1,2 -1,3 -0.7,13.399997 -1.3,26.999997 -1.9,40.399997 0,1.1 0.2,2.2 0.3,3.3 0.5,0.3 0.9,0.7 1.4,1 0.4,-0.9 0.6,-1.9 1.2,-2.7 2.4,-2.9 5.1,-5.7 7.5,-8.7 1.8,-2.2 3.9,-4.5 4.9,-7.1 3.9,-10.1 7.499996,-20.499997 11.099996,-30.699997 1.2,-3.6 2.2,-7.2 3.5,-11.3 z"
     id="path554"
     style="fill:#b3b3b3"
     inkscape:connector-curvature="0" />
  <path
     d="m 53.362564,165.05355 c 3,-4.5 7.2,-6.7 11.6,-8.8 0.7,-0.4 1.4,-0.7 2.1,-1.2 3.3,-2 4,-4.1 3.3,-7.9 -0.9,-4.6 -1.7,-9.3 -2.3,-13.9 -0.7,-5.1 -1.3,-5.5 -6,-3.3 -0.1,0 -0.1,0.1 -0.2,0.1 -9.1,4.5 -13.3,14.6 -10.7,26.1 0.6,2.7 1.4,5.5 2.2,8.9 z"
     id="path556"
     style="fill:#b3b3b3"
     inkscape:connector-curvature="0" />
  <path
     d="m 100.36256,164.05355 c 0.7,-4.1 1.9,-8.6 2.3,-13.1 0.8,-10.2 -4.299996,-18.5 -12.999996,-21.8 -3,-1.1 -3.7,-0.7 -4.2,2.5 -0.7,4.5 -1.4,9 -2.2,13.4 -1.2,6.8 -0.5,8 5.7,11.4 3.8,2.3 7.4,5 11.399996,7.6 z"
     id="path558"
     style="fill:#b3b3b3"
     inkscape:connector-curvature="0" />
  <path
     d="m 46.762564,49.653553 c 0,0.2 -0.1,0.5 -0.1,0.7 6.6,0 10.1,3.8 12.5,9.3 2.8,6.5 6.3,12.6 11.7,17.5 0.8,0.7 1.7,1.3 2.9,2.3 0.3,-1.2 0.7,-1.8 0.6,-2.5 -0.2,-6.2 -0.3,-12.5 -0.6,-18.8 -0.1,-3.1 -1.7,-5.2 -4.7,-6 -5,-1.3 -10.1,-2.8 -15.2,-3.6 -2.3,-0.4 -4.8,0.6 -7.1,1.1 z"
     id="path560"
     style="fill:#ff00ff"
     inkscape:connector-curvature="0" />
  <path
     d="m 106.76256,50.153553 c -0.7,-0.4 -1.1,-0.6 -1.5,-0.7 -7.799996,-2.2 -14.899996,0.5 -22.099996,3 -2.6,1 -3.7,2.9 -3.8,5.5 -0.2,6.2 -0.4,12.5 -0.5,18.8 0,0.7 0.2,1.5 0.4,2.7 1.1,-0.7 1.8,-1 2.3,-1.6 2.5,-2.9 5.3,-5.6 7.3,-8.8 2.5,-3.8 4.5,-7.9 6.4,-12 1.6,-3.4 3.999999,-5.3 7.599996,-6.1 1.3,-0.3 2.4,-0.5 3.9,-0.8 z"
     id="path562"
     style="fill:#ff00ff"
     inkscape:connector-curvature="0" />
  <path
     d="m 84.762564,219.35355 c 0.4,0 0.7,0 1.1,0.1 0.8,-2.1 1.7,-4.3 2.5,-6.4 1.7,-4.8 3.7,-9.5 5,-14.3 2.9,-11.5 1.1,-23.1 -0.3,-34.6 -0.4,-3.2 -2.5,-4.8 -5.9,-5.2 -1.3,8.3 0.5,16.5 1.2,24.8 0.6,6.8 0.7,13.7 0.2,20.6 -0.3,3.6 -2.3,7.1 -3.3,10.6 -0.6,1.2 -0.5,2.7 -0.5,4.4 z"
     id="path564"
     style="fill:#b3b3b3"
     inkscape:connector-curvature="0" />
  <path
     d="m 66.362564,158.65355 c -4.1,0.6 -5.8,2.3 -6.2,6 -0.5,5.1 -1.3,10.3 -1.4,15.4 -0.1,5.3 -0.3,10.8 0.9,15.9 1.9,7.9 4.9,15.5 7.6,23.6 2.6,-2.3 1.4,-4.5 0.5,-6.3 -4.7,-10.1 -4.1,-20.7 -2.5,-31.3 1.1,-7.7 1.8,-15.5 1.1,-23.3 z"
     id="path566"
     style="fill:#b3b3b3"
     inkscape:connector-curvature="0" />
  <path
     d="m 69.462564,255.35355 c 5.2,-6.1 -1.5,-42.6 -7.7,-45.1 0,5.1 -0.1,10.5 0,15.8 0.2,6.2 0.7,12.5 1,18.8 0.2,4.8 3,7.9 6.7,10.5 z"
     id="path568"
     style="fill:#b3b3b3"
     inkscape:connector-curvature="0" />
  <path
     d="m 92.262564,209.75355 c -0.3,-0.1 -0.5,-0.2 -0.8,-0.4 -0.8,1.3 -1.7,2.6 -2.2,4 -1.1,2.9 -1.9,5.9 -2.9,8.8 -2.7,7.4 -4.3,15.1 -4.8,23 -0.2,3.5 -0.1,7 2.4,10.2 3.3,-2.8 6.4,-5.3 6.5,-9.9 0.3,-8.6 0.9,-17.4 1.4,-26 0.1,-3.1 0.2,-6.4 0.4,-9.7 z"
     id="path570"
     style="fill:#b3b3b3"
     inkscape:connector-curvature="0" />
  <path
     d="m 96.262564,206.95355 c -2.4,0.8 -2.7,2.5 -2.8,4.2 -0.1,4.8 -0.3,9.6 -0.1,14.4 0.2,6.9 0.4,13.8 -1.5,20.5 -0.9,3.2 -0.2,5.3 2.7,6.8 0.2,-0.1 0.5,-0.2 0.6,-0.4 0.3,-0.2 0.5,-0.5 0.7,-0.8 2.899999,-5.7 5.099996,-11.6 4.199996,-18.3 -0.999997,-7.1 -2.099996,-14.2 -3.199996,-21.5 -0.2,-1.4 -0.4,-3 -0.6,-4.9 z"
     id="path572"
     style="fill:#b3b3b3"
     inkscape:connector-curvature="0" />
  <path
     d="m 58.562564,253.15355 c 3.8,-2.8 3.5,-2.8 3,-6.7 -0.8,-6.1 -1.2,-12.4 -1.5,-18.6 -0.3,-5.9 -0.2,-11.7 -0.4,-17.7 -0.1,-1.1 -1.1,-2.2 -1.6,-3.2 -0.3,0.1 -0.6,0.3 -0.9,0.4 -0.5,3.9 -1,7.7 -1.5,11.6 -0.8,6.3 -2,12.5 -2.2,18.9 -0.5,5.5 1.8,10.6 5.1,15.3 z"
     id="path574"
     style="fill:#b3b3b3"
     inkscape:connector-curvature="0" />
  <path
     d="m 65.262564,296.75355 0.9,0 c 0.1,-1 0.2,-1.9 0.3,-2.9 0.7,-8.2 1.2,-16.3 2,-24.6 0.6,-5.6 1.8,-11.3 -3.2,-15.7 -0.9,-0.8 -2.7,-1.7 -3.6,-1.3 -1.5,0.7 -3.3,1.8 -2.6,4.3 0.8,2.8 1.5,5.7 1.9,8.6 1.3,9.7 2.5,19.5 3.8,29.2 0.2,0.9 0.4,1.7 0.5,2.4 z"
     id="path576"
     style="fill:#b3b3b3"
     inkscape:connector-curvature="0" />
  <path
     d="m 87.162564,296.75355 0.9,0 c 0.1,-0.8 0.3,-1.5 0.4,-2.3 0.9,-7.9 1.6,-15.9 2.7,-23.9 0.6,-4.7 1.8,-9.4 2.8,-14.1 0.5,-2.3 -1.2,-3.4 -2.6,-4.1 -0.8,-0.4 -2.5,0.5 -3.3,1.2 -4.1,3.6 -4.1,8.3 -3.6,13.2 0.9,9.1 1.6,18.3 2.3,27.4 0,0.9 0.2,1.7 0.4,2.6 z"
     id="path578"
     style="fill:#b3b3b3"
     inkscape:connector-curvature="0" />
  <path
     d="m 98.962563,215.75355 0.4,0 c 0.1,-2.5 0.3,-4.9 0.4,-7.4 0.2,-3.3 -0.1,-6.9 0.799997,-10 2.6,-8.6 2.1,-17.1 0.4,-25.7 -0.8,-4.1 -2.199997,-7.7 -5.799996,-9.4 0.5,5.4 1.4,11 1.5,16.7 0.1,6.2 -1.1,12.4 -0.7,18.7 0.2,5.8 1.9,11.4 2.999999,17.1 z"
     id="path580"
     style="fill:#b3b3b3"
     inkscape:connector-curvature="0" />
  <path
     d="m 54.062564,216.35355 c 1,-4.5 2,-8.6 2.6,-12.7 0.4,-2.5 0.5,-5.1 0.4,-7.6 -0.1,-5 -0.7,-9.9 -0.5,-14.9 0.2,-5.8 1,-11.7 1.6,-18.4 -1.8,2.1 -4,3.5 -4.5,5.3 -2.4,8.6 -4.2,17.4 -1.8,26.4 1.4,5.1 2.1,10.2 1.7,15.6 -0.1,1.9 0.3,3.9 0.5,6.3 z"
     id="path582"
     style="fill:#b3b3b3"
     inkscape:connector-curvature="0" />
  <path
     d="m 79.662564,23.253553 c -0.4,0 -0.8,-0.1 -1.2,-0.1 -0.3,1 -1,2.1 -0.9,3.1 0.6,7.1 1.4,14.2 2,21.3 0.3,3.4 0.7,3.7 4,2.7 4.1,-1.3 8.2,-2.5 12.1,-3.7 -2.3,-1.8 -5.1,-3.8 -7.8,-5.9 -5.7,-4.4 -10.1,-9.3 -8.2,-17.4 z"
     id="path584"
     style="fill:#ff00ff"
     inkscape:connector-curvature="0" />
  <path
     d="m 57.762564,46.553553 c 3.7,1.1 7.6,2.3 11.5,3.6 3.5,1.1 4,0.8 4.2,-2.8 0,-0.7 0.2,-1.4 0.3,-2.1 1.3,-6.4 2.3,-12.8 1.8,-19.4 -0.1,-1 -0.8,-2 -1.2,-3 -0.3,0.1 -0.5,0.2 -0.8,0.3 0.1,0.9 0.3,1.9 0.4,2.8 0.2,4.7 -1.6,8.5 -5.1,11.5 -3.7,3.4 -7.7,6.4 -11.1,9.1 z"
     id="path586"
     style="fill:#ff00ff"
     inkscape:connector-curvature="0" />
  <path
     d="m 52.162564,54.253553 c -3.8,-2.6 -8.6,-2.9 -11.5,-0.8 -4.8,3.6 -6.8,13.3 -3.5,18.5 5.1,-5.9 10,-11.7 15,-17.7 z"
     id="path588"
     style="fill:#ff00ff"
     inkscape:connector-curvature="0" />
  <path
     d="m 101.06256,54.253553 c 5.1,6 10,11.8 15,17.8 0.3,-0.1 0.7,-0.2 1,-0.3 0.1,-3 0.7,-6 0.3,-8.9 -1,-9.7 -8.6,-13.5 -16.3,-8.6 z"
     id="path590"
     style="fill:#ff00ff"
     inkscape:connector-curvature="0" />
  <path
     d="m 109.86256,67.853553 c -0.4,4.3 -0.8,8.1 -1.1,12 -0.2,3.2 -0.6,6.4 -0.3,9.5 0.5,4.7 2.7,8.6 5.5,11.699997 0.4,-5.899997 0.5,-11.899997 1.2,-17.999997 0.7,-5.9 -1.6,-10.7 -5.3,-15.2 z"
     id="path592"
     style="fill:#ff00ff"
     inkscape:connector-curvature="0" />
  <path
     d="m 38.662564,101.45355 c 3.7,-3.699997 6.3,-8.099997 6.2,-13.299997 -0.1,-6.7 -0.9,-13.3 -1.4,-20.2 -4.3,4.8 -6.1,10.3 -5.2,16.7 0.7,5.6 1.6,11.1 0.4,16.799997 z"
     id="path594"
     style="fill:#ff00ff"
     inkscape:connector-curvature="0" />
  <path
     d="m 61.062564,72.453553 c -2,-4.8 -3.7,-8.8 -5.4,-12.8 -0.8,-1.7 -2.3,-2.5 -3.9,-1.1 -3.3,2.9 -5.6,6.5 -6.5,11 5.1,1 10,1.9 15.8,2.9 z"
     id="path596"
     style="fill:#ff00ff"
     inkscape:connector-curvature="0" />
  <path
     d="m 92.362564,72.453553 c 5.7,-1 10.599996,-2 15.699996,-2.9 -0.6,-4.2 -2.8,-7.3 -5.4,-10.1 -2.1,-2.3 -3.799997,-2.1 -5.099996,0.7 -1.8,3.7 -3.3,7.6 -5.2,12.3 z"
     id="path598"
     style="fill:#ff00ff"
     inkscape:connector-curvature="0" />
  <path
     d="m 36.962564,106.95355 c -0.3,-0.2 -0.5,-0.4 -0.8,-0.6 -2.9,8.6 -5.9,17.3 -8.8,25.9 6.6,-7.9 11.5,-16.6 14.5,-26.3 -1.8,0.4 -3.4,0.7 -4.9,1 z"
     id="path600"
     style="fill:#b3b3b3"
     inkscape:connector-curvature="0" />
  <path
     d="m 111.56256,105.95355 c 1.2,6.4 9.4,22 13.8,25.8 -1.2,-4.2 -2.3,-8.5 -3.8,-12.7 -1.5,-4.2 -3.3,-8.4 -4.9,-12.6 -0.2,0.2 -0.4,0.4 -0.6,0.6 -1.5,-0.4 -3,-0.8 -4.5,-1.1 z"
     id="path602"
     style="fill:#b3b3b3"
     inkscape:connector-curvature="0" />
  <path
     d="m 72.962564,154.95355 c -3.7,0.3 -4.2,0.9 -4.1,3.9 0.1,3.3 -0.2,6.6 0,9.9 0.3,5.8 0.8,11.6 1.2,17.6 l 0.8,0 c 2,-10.4 2,-20.9 2.1,-31.4 z"
     id="path604"
     style="fill:#b3b3b3"
     inkscape:connector-curvature="0" />
  <path
     d="m 82.862564,186.55355 c 0.2,-1.4 0.4,-2.6 0.6,-3.7 0.4,-3.8 1,-7.6 1.1,-11.4 0.1,-4.2 -0.4,-8.4 -0.2,-12.5 0.2,-2.9 -1.2,-3.7 -3.6,-3.9 -1.2,5.4 0.3,26.9 2.1,31.5 z"
     id="path606"
     style="fill:#b3b3b3"
     inkscape:connector-curvature="0" />
  <path
     d="m 102.76256,139.45355 c -1,-4.5 -1.8,-9 -2.999997,-13.5 -0.8,-3.1 -2.599999,-4.1 -5.499999,-4 -2.9,0.1 -5.2,1.9 -6.1,4.6 10.699999,6.2 10.699999,6.2 14.599996,12.9 z"
     id="path608"
     style="fill:#b3b3b3"
     inkscape:connector-curvature="0" />
  <path
     d="m 50.762564,139.05355 c 0.2,0.1 0.5,0.2 0.7,0.3 1.8,-7.4 7.6,-10.4 13.9,-12.7 -1.8,-3.4 -4.4,-5 -7.5,-4.6 -3.2,0.4 -4.2,2.7 -4.8,5.3 -0.9,3.8 -1.6,7.8 -2.3,11.7 z"
     id="path610"
     style="fill:#b3b3b3"
     inkscape:connector-curvature="0" />
  <path
     d="m 83.862564,212.85355 c 3.8,-7.1 4.2,-14.7 1.7,-31.5 -2.2,7.1 -3.4,27.4 -1.7,31.5 z"
     id="path612"
     style="fill:#b3b3b3"
     inkscape:connector-curvature="0" />
  <path
     d="m 69.462564,213.15355 c 1.5,-6 0.4,-25.6 -1.8,-31.3 -0.4,3.7 -0.6,7.5 -1.1,11.1 -1,7 -0.4,13.6 2.9,20.2 z"
     id="path614"
     style="fill:#b3b3b3"
     inkscape:connector-curvature="0" />
  <path
     d="m 130.86256,137.65355 c 0.5,-6.1 -4.9,-27.2 -7.6,-31 0.4,10.6 2.1,21.1 7.6,31 z"
     id="path616"
     style="fill:#b3b3b3"
     inkscape:connector-curvature="0" />
  <path
     d="m 29.762564,107.35355 c -3.8,9.8 -6.9,19.9 -7.8,31.2 5.6,-10.1 7.7,-20.3 7.8,-31.2 z"
     id="path618"
     style="fill:#b3b3b3"
     inkscape:connector-curvature="0" />
  <path
     d="m 133.76256,138.75355 c 1.8,-0.7 4.2,-0.5 3.4,-3.2 -2.2,-7.3 -4.3,-14.7 -6.7,-22 -1.2,-3.6 -2.9,-7.1 -4.4,-10.7 -0.2,0.1 -0.5,0.2 -0.7,0.3 4.4,11.2 7.3,23 8.4,35.6 z"
     id="path620"
     style="fill:#b3b3b3"
     inkscape:connector-curvature="0" />
  <path
     d="m 27.462564,104.45355 c -0.3,-0.1 -0.5,-0.2 -0.8,-0.3 -1.2,3 -2.6,6 -3.6,9 -2.3,7.1 -4.3,14.3 -6.5,21.5 -0.9,2.8 -0.1,4 3.1,3.6 0.8,-11.6 3.8,-22.9 7.8,-33.8 z"
     id="path622"
     style="fill:#b3b3b3"
     inkscape:connector-curvature="0" />
  <path
     d="m 73.862564,150.05355 c 0.4,-0.1 0.7,-0.2 1.1,-0.2 0.1,-1.7 0,-3.5 0.4,-5.2 1,-5.1 -0.1,-9.1 -6.1,-11.3 1.5,5.8 3.1,11.3 4.6,16.7 z"
     id="path624"
     style="fill:#b3b3b3"
     inkscape:connector-curvature="0" />
  <path
     d="m 78.262564,149.85355 c 3.2,-5 4.8,-10.2 4.9,-16 -4.3,1.6 -6,4.4 -5.4,8.7 0.3,2.4 0.4,4.8 0.5,7.3 z"
     id="path626"
     style="fill:#b3b3b3"
     inkscape:connector-curvature="0" />
  <path
     d="m 90.462564,296.25355 c 0.3,0.1 0.7,0.2 1,0.3 0.2,-0.8 0.6,-1.6 0.7,-2.4 0.1,-1.4 -0.2,-2.9 0,-4.2 0.5,-3.9 1.5,-7.7 1.8,-11.6 0.3,-3.6 0.1,-7.3 0.1,-10.9 -0.4,0 -0.9,0 -1.3,0 -0.6,9.5 -1.4,19.2 -2.3,28.8 z"
     id="path628"
     style="fill:#b3b3b3"
     inkscape:connector-curvature="0" />
  <path
     d="m 62.062564,296.75355 c 0,-5.3 0.3,-10.2 -0.1,-15.1 -0.4,-4.7 -1.4,-9.4 -2.1,-14 -0.3,0 -0.5,0.1 -0.8,0.1 0,3.3 -0.2,6.6 0.1,9.9 0.3,3.4 0.6,6.8 1.7,10 0.9,2.9 -1.2,6.3 1.2,9.1 z"
     id="path630"
     style="fill:#b3b3b3"
     inkscape:connector-curvature="0" />
  <path
     d="m 59.362564,119.65355 c -1.5,-4.7 -3,-9.2 -4.5,-13.7 -0.1,0.1 -0.2,0.1 -0.3,0.2 -0.2,5 -0.5,10 -0.7,15.1 1.7,-0.5 3.4,-1 5.5,-1.6 z"
     id="path632"
     style="fill:#b3b3b3"
     inkscape:connector-curvature="0" />
  <path
     d="m 99.662563,121.25355 c -0.4,-5 -0.7,-9.6 -0.999999,-14.2 -0.2,0 -0.4,0 -0.6,-0.1 -1.3,4.2 -2.6,8.5 -4,12.8 2.2,0.6 3.8,1 5.599999,1.5 z"
     id="path634"
     style="fill:#b3b3b3"
     inkscape:connector-curvature="0" />
  <g
     id="g636"
     style="fill:#b3b3b3"
     transform="translate(-173.23744,-0.64644661)">
    <path
       d="m 247.7,7.7 c -3,1.7 -6,3.1 -8.7,5 -0.9,0.6 -0.7,2.3 1.1,2.3 1.4,0 2.8,-0.3 4.2,-0.6 3.9,-0.9 4.6,-2.1 3.4,-6.7 z"
       id="path638"
       style="fill:#b3b3b3"
       inkscape:connector-curvature="0" />
    <path
       d="m 251.9,7.8 c -1.1,4.5 -0.4,5.7 3.4,6.6 0.8,0.2 1.6,0.5 2.4,0.5 1.1,-0.1 2.3,-0.4 3.4,-0.7 -0.8,-0.9 -1.5,-1.9 -2.4,-2.7 -0.9,-0.8 -2.1,-1.4 -3.2,-2 -1.1,-0.6 -2.3,-1.1 -3.6,-1.7 z"
       id="path640"
       style="fill:#b3b3b3"
       inkscape:connector-curvature="0" />
    <path
       d="m 222.4,176.7 c 2.9,-5.8 3.7,-11.7 0,-18.2 z"
       id="path642"
       style="fill:#b3b3b3"
       inkscape:connector-curvature="0" />
    <path
       d="m 276.2,177.5 0.9,0 c 0,-6 0,-12.1 0,-18.2 -1.2,2 -2.3,4 -2.3,6 0.2,4.2 0.9,8.2 1.4,12.2 z"
       id="path644"
       style="fill:#b3b3b3"
       inkscape:connector-curvature="0" />
    <path
       d="m 242.2,31.8 c 4.3,-4.3 4.3,-7.5 0,-12.2 z"
       id="path646"
       style="fill:#b3b3b3"
       inkscape:connector-curvature="0" />
    <path
       d="m 257.6,19 c -4.3,5.6 -4.4,9.3 -0.4,13.1 1.4,-4.3 0.5,-8.4 0.4,-13.1 z"
       id="path648"
       style="fill:#b3b3b3"
       inkscape:connector-curvature="0" />
    <path
       d="m 205.3,97 c 1.5,-7.1 3.1,-14.3 4.8,-22.3 -4.5,7.4 -4.9,14.9 -4.8,22.3 z"
       id="path650"
       style="fill:#b3b3b3"
       inkscape:connector-curvature="0" />
    <path
       d="m 289.6,74.8 c 1.7,7.8 3.3,15.4 4.9,23.1 0.3,-8 -0.3,-15.9 -4.9,-23.1 z"
       id="path652"
       style="fill:#b3b3b3"
       inkscape:connector-curvature="0" />
    <path
       d="m 290.5,84.5 c -0.3,0 -0.6,0 -0.8,0 0,4.1 -0.1,8.3 0.1,12.4 0,0.6 0.8,1.3 1.2,1.9 0.5,-0.7 1.4,-1.4 1.3,-2 -0.5,-4.1 -1.2,-8.2 -1.8,-12.3 z"
       id="path654"
       style="fill:#b3b3b3"
       inkscape:connector-curvature="0" />
    <path
       d="m 210.2,84.5 c -0.3,0 -0.7,0 -1,0 -0.6,4.1 -1.2,8.2 -1.6,12.3 -0.1,0.7 0.9,1.4 1.4,2.1 0.4,-0.7 1.1,-1.4 1.1,-2.1 0.2,-2 0.1,-4.1 0.1,-6.1 0,-2.1 0,-4.1 0,-6.2 z"
       id="path656"
       style="fill:#b3b3b3"
       inkscape:connector-curvature="0" />
    <path
       d="m 315.2,155.3 c -0.2,0.3 -0.4,0.6 -0.6,0.8 1,2.6 1.9,5.2 2.9,7.7 0.3,0.6 1,1 1.6,1.5 0.1,-0.8 0.5,-1.6 0.3,-2.3 -0.6,-2.1 -1.4,-4.2 -2.3,-6.2 -0.4,-0.6 -1.3,-1 -1.9,-1.5 z"
       id="path658"
       style="fill:#b3b3b3"
       inkscape:connector-curvature="0" />
    <path
       d="m 180,165 c 0.4,0.1 0.7,0.3 1.1,0.4 2.1,-2.7 2.7,-6.1 3.9,-9.2 0,-0.1 -0.6,-0.7 -0.9,-0.7 -0.4,0.1 -1,0.4 -1.2,0.8 -0.8,1.8 -1.4,3.6 -2.1,5.5 -0.3,1 -0.5,2.1 -0.8,3.2 z"
       id="path660"
       style="fill:#b3b3b3"
       inkscape:connector-curvature="0" />
    <path
       d="m 205.7,112.5 c 1.5,-3.8 2.9,-7.1 4.5,-11.1 -3.9,2 -5.7,6.9 -4.5,11.1 z"
       id="path662"
       style="fill:#b3b3b3"
       inkscape:connector-curvature="0" />
    <path
       d="m 293.8,112 c 1.1,-4.3 -0.4,-8.4 -4,-9.9 1.3,3.3 2.7,6.6 4,9.9 z"
       id="path664"
       style="fill:#b3b3b3"
       inkscape:connector-curvature="0" />
    <path
       d="m 321.8,145.4 c -0.6,0.5 -1.1,0.8 -1.4,1.3 -0.2,0.4 -0.2,1.2 0,1.4 1.3,1 2.7,2 4.2,2.8 0.3,0.2 1.1,0 1.4,-0.3 0.3,-0.3 0.4,-1.2 0.1,-1.4 -1.3,-1.3 -2.8,-2.5 -4.3,-3.8 z"
       id="path666"
       style="fill:#b3b3b3"
       inkscape:connector-curvature="0" />
    <path
       d="m 178.1,145.5 c -1.3,1 -2.8,1.8 -4,3 -0.4,0.4 -0.3,1.4 -0.4,2.1 0.7,0.1 1.5,0.4 2.1,0.1 0.9,-0.4 1.6,-1.2 2.4,-1.7 2,-1.1 1.6,-2.2 -0.1,-3.5 z"
       id="path668"
       style="fill:#b3b3b3"
       inkscape:connector-curvature="0" />
    <path
       d="m 180.9,154.3 c -2.4,-0.3 -5.6,5 -5,8.2 2.2,-2.2 3.2,-5.2 5,-8.2 z"
       id="path670"
       style="fill:#b3b3b3"
       inkscape:connector-curvature="0" />
    <path
       d="m 310.8,155.8 c -0.2,0.2 -0.3,0.3 -0.5,0.5 0.7,2.6 1.3,5.2 2.1,7.8 0.1,0.4 0.9,0.6 1.3,0.9 0.2,-0.4 0.6,-1 0.5,-1.3 -0.6,-2.3 -1.2,-4.6 -2,-6.8 0,-0.5 -0.9,-0.8 -1.4,-1.1 z"
       id="path672"
       style="fill:#b3b3b3"
       inkscape:connector-curvature="0" />
    <path
       d="m 324.1,162.6 c 0.3,-0.2 0.5,-0.4 0.8,-0.6 -1.3,-2.5 -2.6,-5.1 -3.9,-7.6 -0.2,-0.3 -0.9,-0.3 -1.3,-0.4 -0.1,0.5 -0.3,1 -0.2,1.4 1,2.1 2.1,4.3 3.3,6.3 0.2,0.4 0.8,0.6 1.3,0.9 z"
       id="path674"
       style="fill:#b3b3b3"
       inkscape:connector-curvature="0" />
    <path
       d="m 185.1,165.1 c 1,-0.1 1.5,0 1.5,-0.1 0.9,-2.7 1.8,-5.5 2.6,-8.3 0.1,-0.2 -0.4,-0.7 -0.6,-0.7 -0.4,0 -1,0.2 -1.1,0.4 -0.8,2.8 -1.6,5.6 -2.4,8.7 z"
       id="path676"
       style="fill:#b3b3b3"
       inkscape:connector-curvature="0" />
    <path
       d="m 317.9,149.4 c 0.3,-2.6 -2.6,-7 -4.4,-7.4 -0.3,-0.1 -0.8,0.1 -0.9,0.3 -0.1,0.3 -0.2,0.9 0,1.2 1.7,1.8 3.3,3.6 5.3,5.9 z"
       id="path678"
       style="fill:#b3b3b3"
       inkscape:connector-curvature="0" />
    <path
       d="m 187.5,142.8 c -0.1,-0.2 -0.2,-0.4 -0.3,-0.6 -0.6,0.1 -1.4,0.1 -1.7,0.4 -1.6,1.8 -4.8,2.7 -3.7,6.7 2.1,-2.4 3.9,-4.4 5.7,-6.5 z"
       id="path680"
       style="fill:#b3b3b3"
       inkscape:connector-curvature="0" />
    <path
       d="m 235.8,302 c 0.6,-2.8 -2.2,-5.8 -5.5,-5.7 1.7,1.8 3.5,3.6 5.5,5.7 z"
       id="path682"
       style="fill:#b3b3b3"
       inkscape:connector-curvature="0" />
    <path
       d="m 263.7,301.4 c 3,-1.3 4.9,-3.5 5.1,-5.8 -3.4,1.4 -5.4,3.6 -5.1,5.8 z"
       id="path684"
       style="fill:#b3b3b3"
       inkscape:connector-curvature="0" />
    <path
       d="m 259.6,26 c 0.4,0 0.8,0 1.2,-0.1 0.1,-1.8 0.2,-3.7 0.2,-5.5 0,-0.4 -0.8,-0.7 -1.2,-1.1 -0.3,0.4 -1,0.9 -1,1.3 0.1,1.8 0.5,3.6 0.8,5.4 z"
       id="path686"
       style="fill:#b3b3b3"
       inkscape:connector-curvature="0" />
    <path
       d="m 238.9,26 1.3,0 c 0.2,-1.8 0.5,-3.6 0.6,-5.3 0,-0.4 -0.6,-0.9 -0.9,-1.3 -0.4,0.4 -1.1,0.8 -1.1,1.2 -0.1,1.7 0.1,3.5 0.1,5.4 z"
       id="path688"
       style="fill:#b3b3b3"
       inkscape:connector-curvature="0" />
    <path
       d="m 192.1,155.1 c -0.6,3 -1.1,5.5 -1.5,8 0.2,0 0.5,0.1 0.7,0.1 1.6,-2.3 2.2,-6.4 0.8,-8.1 z"
       id="path690"
       style="fill:#b3b3b3"
       inkscape:connector-curvature="0" />
    <path
       d="m 308,163.4 c 0.3,-0.1 0.6,-0.1 0.9,-0.2 0.4,-2.8 -0.7,-6.6 -2.8,-7.9 0.7,3.1 1.3,5.6 1.9,8.1 z"
       id="path692"
       style="fill:#b3b3b3"
       inkscape:connector-curvature="0" />
    <path
       d="m 251.7,0.6 c -0.3,0.5 -0.5,0.9 -0.8,1.4 2.4,1 4.9,2 7.3,3 0.1,-0.3 0.3,-0.5 0.4,-0.8 C 256.3,3 254,1.8 251.7,0.6 Z"
       id="path694"
       style="fill:#b3b3b3"
       inkscape:connector-curvature="0" />
    <path
       d="m 241.4,5.1 c 2.5,-1.1 5,-2 7.9,-3.2 -3.3,-1 -6,0.2 -7.9,3.2 z"
       id="path696"
       style="fill:#b3b3b3"
       inkscape:connector-curvature="0" />
    <path
       d="m 257.8,298.6 c 0.4,-0.2 0.7,-0.3 1.1,-0.5 -0.8,-1.7 -1.5,-3.4 -2.3,-5.1 -0.4,0.2 -0.7,0.3 -1.1,0.5 -1.5,2.6 2.2,3.1 2.3,5.1 z"
       id="path698"
       style="fill:#b3b3b3"
       inkscape:connector-curvature="0" />
    <path
       d="m 240.9,298.1 c 0.2,0.1 0.5,0.2 0.7,0.3 3.5,-3.9 3.5,-3.9 1.4,-5.4 -0.7,1.8 -1.4,3.5 -2.1,5.1 z"
       id="path700"
       style="fill:#b3b3b3"
       inkscape:connector-curvature="0" />
    <path
       d="m 184.7,149.5 0.6,2.1 3.4,-6 z"
       id="path702"
       style="fill:#b3b3b3"
       inkscape:connector-curvature="0" />
    <path
       d="m 187.8,151.8 1.6,0 1,-5.4 z"
       id="path704"
       style="fill:#b3b3b3"
       inkscape:connector-curvature="0" />
    <path
       d="m 191.6,151.8 1.6,0 0.5,-5.9 z"
       id="path706"
       style="fill:#b3b3b3"
       inkscape:connector-curvature="0" />
    <path
       d="m 306.7,146.3 0.7,5.4 1.4,0 z"
       id="path708"
       style="fill:#b3b3b3"
       inkscape:connector-curvature="0" />
    <path
       d="m 310.1,146.2 1.1,5.5 1.4,0 0,-1.2 z"
       id="path710"
       style="fill:#b3b3b3"
       inkscape:connector-curvature="0" />
    <path
       d="m 312.6,145.1 2.4,6.5 1,-1.6 z"
       id="path712"
       style="fill:#b3b3b3"
       inkscape:connector-curvature="0" />
    <path
       d="m 239,301.2 c -0.7,0 -1.3,-0.6 -1.3,-1.3 0,-0.7 0.6,-1.3 1.3,-1.3 0.7,0 1.3,0.6 1.3,1.3 0.1,0.7 -0.5,1.3 -1.3,1.3 z"
       id="path714"
       style="fill:#b3b3b3"
       inkscape:connector-curvature="0" />
    <path
       d="m 260.9,301.2 c -0.7,0 -1.3,-0.6 -1.3,-1.3 0,-0.7 0.6,-1.3 1.3,-1.3 0.7,0 1.3,0.6 1.3,1.3 0.1,0.7 -0.5,1.3 -1.3,1.3 z"
       id="path716"
       style="fill:#b3b3b3"
       inkscape:connector-curvature="0" />
  </g>
  <path
     style="fill:#ff00ff;stroke-width:0.08838835"
     d="m 117.29742,97.506841 c -0.80902,-1.0147 -0.73625,-0.317205 -0.76933,-7.374321 l -0.0293,-6.253475 h 0.35903 c 0.30059,0 0.36609,0.03238 0.40233,0.198874 0.0817,0.37551 1.20354,7.889284 1.50107,10.054174 0.25248,1.837109 0.28087,2.205728 0.18718,2.43068 -0.11092,0.26632 -1.08141,1.459038 -1.18609,1.457683 -0.0308,-3.53e-4 -0.23996,-0.231524 -0.46488,-0.513615 z"
     id="path89"
     inkscape:connector-curvature="0" />
  <path
     style="fill:#ff00ff;stroke-width:0.08838835"
     d="m 121.17494,96.606967 c -0.0368,-0.121534 -0.58644,-2.706893 -1.22136,-5.745243 -0.63492,-3.038349 -1.66976,-7.92766 -2.29964,-10.865135 -0.62989,-2.937475 -1.13287,-5.378004 -1.11774,-5.423398 0.0151,-0.04539 0.33282,0.468693 0.70597,1.142417 2.40337,4.339304 3.62139,8.983574 3.96067,15.101922 0.10132,1.826958 0.0805,6.147181 -0.0279,5.789437 z"
     id="path91"
     inkscape:connector-curvature="0" />
  <path
     style="fill:#ff00ff;stroke-width:0.08838835"
     d="m 32.144265,92.93885 c 0.07812,-5.630266 0.739346,-9.69422 2.227016,-13.687333 0.606417,-1.62771 2.222319,-4.923559 2.299872,-4.690899 0.0166,0.04981 -0.345733,1.838687 -0.805189,3.975288 -2.124867,9.881234 -3.514647,16.304042 -3.632931,16.78943 -0.119291,0.489518 -0.126122,0.305867 -0.08877,-2.386486 z"
     id="path93"
     inkscape:connector-curvature="0" />
  <path
     style="fill:#ff00ff;stroke-width:0.08838835"
     d="m 35.265935,97.625911 c -0.27705,-0.304041 -0.591815,-0.702099 -0.699478,-0.884574 -0.191125,-0.323933 -0.193174,-0.357115 -0.0867,-1.404217 0.22759,-2.238174 1.287333,-10.290255 1.476019,-11.215007 0.04676,-0.229171 0.07699,-0.243068 0.528708,-0.243068 h 0.479113 l -0.0021,5.281203 c -0.0012,2.904663 -0.03797,5.744347 -0.08182,6.310409 -0.08551,1.103871 -0.148256,1.28311 -0.773487,2.209445 l -0.336538,0.498612 z"
     id="path95"
     inkscape:connector-curvature="0" />
</svg>
