<?xml version="1.0" encoding="UTF-8" standalone="no"?>
<!-- Generator: Adobe Illustrator 19.0.0, SVG Export Plug-In . SVG Version: 6.00 Build 0)  -->

<svg
   xmlns:dc="http://purl.org/dc/elements/1.1/"
   xmlns:cc="http://creativecommons.org/ns#"
   xmlns:rdf="http://www.w3.org/1999/02/22-rdf-syntax-ns#"
   xmlns:svg="http://www.w3.org/2000/svg"
   xmlns="http://www.w3.org/2000/svg"
   xmlns:sodipodi="http://sodipodi.sourceforge.net/DTD/sodipodi-0.dtd"
   xmlns:inkscape="http://www.inkscape.org/namespaces/inkscape"
   version="1.1"
   id="Capa_1"
   x="0px"
   y="0px"
   viewBox="0 0 32 32.019452"
   xml:space="preserve"
   inkscape:version="0.91 r13725"
   sodipodi:docname="exercises_icon.svg"
   width="32"
   height="32.019451"><metadata
     id="metadata67"><rdf:RDF><cc:Work
         rdf:about=""><dc:format>image/svg+xml</dc:format><dc:type
           rdf:resource="http://purl.org/dc/dcmitype/StillImage" /><dc:title /></cc:Work></rdf:RDF></metadata><defs
     id="defs65" /><sodipodi:namedview
     pagecolor="#ffffff"
     bordercolor="#666666"
     borderopacity="1"
     objecttolerance="10"
     gridtolerance="10"
     guidetolerance="10"
     inkscape:pageopacity="0"
     inkscape:pageshadow="2"
     inkscape:window-width="1920"
     inkscape:window-height="1023"
     id="namedview63"
     showgrid="false"
     fit-margin-top="0"
     fit-margin-left="0"
     fit-margin-right="0"
     fit-margin-bottom="0"
     inkscape:zoom="14.750029"
     inkscape:cx="-4.5422381"
     inkscape:cy="15.1281"
     inkscape:window-x="0"
     inkscape:window-y="0"
     inkscape:window-maximized="1"
     inkscape:current-layer="Capa_1" /><g
     id="g3"
     transform="matrix(0.06253805,0,0,0.06253805,-0.0097403,1.5634512e-5)"
     style="fill:#ff00ff"><g
       id="g5"
       style="fill:#ff00ff"><path
         d="M 503.058,157.279 460.72,114.941 492.547,83.126 c 2.814,-2.811 4.396,-6.62 4.396,-10.604 0,-3.984 -1.582,-7.793 -4.395,-10.605 L 449.936,19.305 c -5.625,-5.625 -15.586,-5.625 -21.211,0 L 396.91,51.132 354.566,8.786 c -11.715,-11.715 -30.71,-11.715 -42.426,0 -11.717,11.715 -11.717,30.71 0,42.426 l 148.491,148.493 c 11.717,11.715 30.712,11.715 42.427,0 11.715,-11.715 11.715,-30.71 0,-42.426 z"
         id="path7"
         inkscape:connector-curvature="0"
         style="fill:#ff00ff" /></g></g><g
     id="g9"
     transform="matrix(0.06253805,0,0,0.06253805,-0.0097403,1.5634512e-5)"><g
       id="g11"><path
         d="M 199.86,460.786 51.369,312.293 c -11.717,-11.715 -30.71,-11.715 -42.427,0 -11.715,11.717 -11.715,30.712 0,42.427 l 42.345,42.345 -31.765,31.752 c -2.813,2.813 -4.395,6.621 -4.395,10.605 0,3.984 1.582,7.793 4.395,10.605 l 42.612,42.598 c 2.929,2.931 6.767,4.396 10.605,4.396 3.838,0 7.676,-1.465 10.605,-4.395 l 31.752,-31.752 42.338,42.339 c 11.715,11.715 30.71,11.715 42.426,0 11.717,-11.717 11.717,-30.712 0,-42.427 z"
         id="path13"
         inkscape:connector-curvature="0"
         style="fill:#ff00ff" /></g></g><g
     id="g15"
     transform="matrix(0.06253805,0,0,0.06253805,-0.0097403,1.5634512e-5)"
     style="fill:#ff00ff"><g
       id="g17"
       style="fill:#ff00ff"><polygon
         points="269.713,178.492 178.647,269.868 242.287,333.508 333.353,242.13 "
         id="polygon19"
         style="fill:#ff00ff" /></g></g><g
     id="g21"
     transform="matrix(0.06253805,0,0,0.06253805,-0.0097403,1.5634512e-5)"
     style="fill:#ff00ff"><g
       id="g23"
       style="fill:#ff00ff"><path
         d="M 460.632,242.131 269.713,51.212 c -11.715,-11.715 -30.711,-11.715 -42.426,0 -11.717,11.717 -11.717,30.71 0,42.427 l 190.919,190.919 c 11.715,11.715 30.71,11.715 42.426,0 11.717,-11.715 11.717,-30.71 0,-42.427 z"
         id="path25"
         inkscape:connector-curvature="0"
         style="fill:#ff00ff" /></g></g><g
     id="g27"
     transform="matrix(0.06253805,0,0,0.06253805,-0.0097403,1.5634512e-5)"
     style="fill:#ff00ff"><g
       id="g29"
       style="fill:#ff00ff"><path
         d="M 284.714,418.36 93.794,227.44 c -11.715,-11.715 -30.71,-11.715 -42.425,0 -11.717,11.717 -11.717,30.712 0,42.427 l 190.919,190.919 c 11.715,11.715 30.71,11.715 42.426,0 11.717,-11.715 11.717,-30.71 0,-42.426 z"
         id="path31"
         inkscape:connector-curvature="0"
         style="fill:#ff00ff" /></g></g><g
     id="g33"
     transform="matrix(0.06253805,0,0,0.06253805,-0.0097403,1.5634512e-5)" /><g
     id="g35"
     transform="matrix(0.06253805,0,0,0.06253805,-0.0097403,1.5634512e-5)" /><g
     id="g37"
     transform="matrix(0.06253805,0,0,0.06253805,-0.0097403,1.5634512e-5)" /><g
     id="g39"
     transform="matrix(0.06253805,0,0,0.06253805,-0.0097403,1.5634512e-5)" /><g
     id="g41"
     transform="matrix(0.06253805,0,0,0.06253805,-0.0097403,1.5634512e-5)" /><g
     id="g43"
     transform="matrix(0.06253805,0,0,0.06253805,-0.0097403,1.5634512e-5)" /><g
     id="g45"
     transform="matrix(0.06253805,0,0,0.06253805,-0.0097403,1.5634512e-5)" /><g
     id="g47"
     transform="matrix(0.06253805,0,0,0.06253805,-0.0097403,1.5634512e-5)" /><g
     id="g49"
     transform="matrix(0.06253805,0,0,0.06253805,-0.0097403,1.5634512e-5)" /><g
     id="g51"
     transform="matrix(0.06253805,0,0,0.06253805,-0.0097403,1.5634512e-5)" /><g
     id="g53"
     transform="matrix(0.06253805,0,0,0.06253805,-0.0097403,1.5634512e-5)" /><g
     id="g55"
     transform="matrix(0.06253805,0,0,0.06253805,-0.0097403,1.5634512e-5)" /><g
     id="g57"
     transform="matrix(0.06253805,0,0,0.06253805,-0.0097403,1.5634512e-5)" /><g
     id="g59"
     transform="matrix(0.06253805,0,0,0.06253805,-0.0097403,1.5634512e-5)" /><g
     id="g61"
     transform="matrix(0.06253805,0,0,0.06253805,-0.0097403,1.5634512e-5)" /></svg>