<?xml version="1.0" encoding="UTF-8" standalone="no"?>
<svg
   xmlns:dc="http://purl.org/dc/elements/1.1/"
   xmlns:cc="http://creativecommons.org/ns#"
   xmlns:rdf="http://www.w3.org/1999/02/22-rdf-syntax-ns#"
   xmlns:svg="http://www.w3.org/2000/svg"
   xmlns="http://www.w3.org/2000/svg"
   xmlns:sodipodi="http://sodipodi.sourceforge.net/DTD/sodipodi-0.dtd"
   xmlns:inkscape="http://www.inkscape.org/namespaces/inkscape"
   height="32"
   id="Layer_1"
   version="1.1"
   viewBox="0 0 32 32"
   width="32"
   xml:space="preserve"
   inkscape:version="0.91 r13725"
   sodipodi:docname="home_icon.svg"><metadata
     id="metadata9"><rdf:RDF><cc:Work
         rdf:about=""><dc:format>image/svg+xml</dc:format><dc:type
           rdf:resource="http://purl.org/dc/dcmitype/StillImage" /><dc:title /></cc:Work></rdf:RDF></metadata><defs
     id="defs7" /><sodipodi:namedview
     pagecolor="#ffffff"
     bordercolor="#666666"
     borderopacity="1"
     objecttolerance="10"
     gridtolerance="10"
     guidetolerance="10"
     inkscape:pageopacity="0"
     inkscape:pageshadow="2"
     inkscape:window-width="1252"
     inkscape:window-height="736"
     id="namedview5"
     showgrid="false"
     fit-margin-top="0"
     fit-margin-left="0"
     fit-margin-right="0"
     fit-margin-bottom="0"
     inkscape:zoom="14.75"
     inkscape:cx="3.3220339"
     inkscape:cy="16"
     inkscape:window-x="0"
     inkscape:window-y="0"
     inkscape:window-maximized="0"
     inkscape:current-layer="Layer_1" /><path
     d="M 30.9,14 28,11.102 28,4 C 28,2.9 27.1,2 26,2 L 24,2 C 22.9,2 22,2.9 22,4 L 22,5.106 18,1.11 C 17.454,0.594 16.954,0 16,0 15.046,0 14.546,0.594 14,1.11 L 1.1,14 C 0.476,14.65 0,15.124 0,16 c 0,1.126 0.864,2 2,2 l 2,0 0,12 c 0,1.1 0.9,2 2,2 l 6,0 0,-10 c 0,-1.1 0.9,-2 2,-2 l 4,0 c 1.1,0 2,0.9 2,2 l 0,10 6,0 c 1.1,0 2,-0.9 2,-2 l 0,-12 2,0 c 1.136,0 2,-0.874 2,-2 0,-0.876 -0.476,-1.35 -1.1,-2 z"
     id="path3"
     inkscape:connector-curvature="0"
     style="fill:#ff00ff" /></svg>