<?xml version="1.0" encoding="UTF-8" standalone="no"?>
<!-- Created with Inkscape (http://www.inkscape.org/) -->

<svg
   xmlns:dc="http://purl.org/dc/elements/1.1/"
   xmlns:cc="http://creativecommons.org/ns#"
   xmlns:rdf="http://www.w3.org/1999/02/22-rdf-syntax-ns#"
   xmlns:svg="http://www.w3.org/2000/svg"
   xmlns="http://www.w3.org/2000/svg"
   xmlns:sodipodi="http://sodipodi.sourceforge.net/DTD/sodipodi-0.dtd"
   xmlns:inkscape="http://www.inkscape.org/namespaces/inkscape"
   width="130"
   height="180"
   viewBox="0 0 36.688889 50.800001"
   version="1.1"
   id="svg8"
   inkscape:version="0.91 r13725"
   sodipodi:docname="logo_icon.svg"
   style="enable-background:new">
  <defs
     id="defs2" />
  <sodipodi:namedview
     id="base"
     pagecolor="#ffffff"
     bordercolor="#666666"
     borderopacity="1.0"
     inkscape:pageopacity="1"
     inkscape:pageshadow="2"
     inkscape:zoom="2"
     inkscape:cx="76.791192"
     inkscape:cy="157.28366"
     inkscape:document-units="mm"
     inkscape:current-layer="layer1"
     showgrid="false"
     inkscape:window-width="1920"
     inkscape:window-height="1023"
     inkscape:window-x="0"
     inkscape:window-y="0"
     inkscape:window-maximized="1"
     inkscape:pagecheckerboard="false"
     units="px" />
  <metadata
     id="metadata5">
    <rdf:RDF>
      <cc:Work
         rdf:about="">
        <dc:format>image/svg+xml</dc:format>
        <dc:type
           rdf:resource="http://purl.org/dc/dcmitype/StillImage" />
        <dc:title></dc:title>
      </cc:Work>
    </rdf:RDF>
  </metadata>
  <g
     inkscape:label="Layer 1"
     id="layer1"
     inkscape:groupmode="layer"
     transform="translate(0,-246.19996)">
    <g
       id="g30"
       transform="matrix(0.02778125,0,0,-0.02778125,-113.25353,214.02519)"
       style="fill:#000000;stroke:none" />
    <g
       aria-label="J"
       transform="matrix(0.16512722,0,0,0.15703643,25.340255,-30.014418)"
       style="font-style:normal;font-weight:normal;font-size:40px;line-height:1.25;font-family:sans-serif;letter-spacing:0px;word-spacing:0px;display:inline;fill:#000000;fill-opacity:1;stroke:none"
       id="flowRoot10-7" />
    <g
       aria-label="L"
       transform="matrix(0.11558905,0,0,0.1099255,-15.711587,203.70846)"
       style="font-style:normal;font-weight:normal;font-size:40px;line-height:1.25;font-family:sans-serif;letter-spacing:0px;word-spacing:0px;fill:#000000;fill-opacity:1;stroke:none"
       id="flowRoot10">
      <path
         id="path3749"
         style="font-style:italic;font-variant:normal;font-weight:normal;font-stretch:normal;font-size:192px;font-family:sans-serif;-inkscape-font-specification:'sans-serif Italic';fill:#ff00ff"
         d="m 287.21289,749.67914 -88.40625,0 32.25,-139.59375 18.75,0 -28.59375,123.75 69.65625,0 z m 55.71452,22.83853 q -4.3125,18.46875 -17.625,28.40625 -13.3125,9.84375 -32.25,9.84375 -4.5,0 -11.8125,-0.84375 -7.3125,-0.75 -12.09375,-1.875 l 3.9375,-16.6875 1.03125,0 q 3.65625,1.3125 8.90625,2.71875 5.25,1.40625 11.15625,1.40625 8.53125,0 14.15625,-2.15625 5.625,-2.15625 8.8125,-6 3.375,-4.03125 5.34375,-9.65625 1.96875,-5.625 3.375,-12.1875 l 18.75,-82.125 -30.375,0 3.28125,-14.15625 49.125,0 z M 285.61536,394.63089 c -40.81539,2.51212 -81.05875,9.76541 -100.27193,18.08016 -17.12698,7.4302 -30.24982,20.06155 -37.68609,36.26647 -4.71077,10.29613 -6.0567,18.39859 -6.0567,36.54952 0.0336,27.10255 4.17239,52.18832 11.77691,71.29456 5.01359,12.59596 10.09449,22.14908 20.96289,39.59237 6.72966,10.79148 7.63816,12.56058 7.63816,15.00193 0,2.5475 -1.07675,4.74118 -4.27333,8.63319 -9.38788,11.49912 -18.17009,28.34091 -23.11639,44.29816 -4.27333,13.72818 -6.25858,27.06716 -6.25858,42.17524 0,32.16217 10.12814,67.40256 26.95229,93.54979 15.68011,24.37814 35.76814,37.75251 65.41229,43.51976 12.07974,2.33521 23.25097,3.29052 41.72389,3.57357 39.80594,0.63688 64.40284,-3.39666 84.28899,-13.79894 8.98409,-4.74118 15.14173,-9.37621 22.40977,-16.98332 9.45517,-9.90694 16.21848,-20.20308 22.98178,-34.95734 8.44573,-18.36321 13.69486,-37.57559 16.08389,-58.59245 0.80756,-7.32406 0.80756,-25.54575 0,-32.0914 -1.78336,-14.01124 -4.81171,-25.93495 -9.48882,-37.1864 -1.0431,-2.51211 -2.28808,-5.83801 -2.75916,-7.39482 -0.94215,-3.11361 -2.69186,-6.93485 -6.15764,-13.44513 -5.78751,-10.86225 -7.97465,-16.52335 -8.31113,-21.54758 -0.50472,-7.32406 2.18714,-13.76357 9.35423,-22.5029 3.39848,-4.17507 4.67711,-6.12108 7.43627,-11.49913 5.0809,-9.83617 13.25743,-29.43775 16.89145,-40.40615 3.46577,-10.57919 6.02304,-23.38744 7.33533,-37.08025 0.53837,-5.90878 0.57202,-25.08578 0,-30.95917 -1.44688,-15.03732 -2.86011,-20.37999 -7.40263,-27.77481 -6.72966,-11.00378 -20.02074,-22.04293 -36.5757,-30.46383 -4.54252,-2.33521 -8.68126,-3.75048 -16.05024,-5.4842 -16.38672,-3.89201 -44.31481,-7.89016 -67.73402,-9.69464 -6.83061,-0.53073 -24.66421,-0.95531 -29.10578,-0.67226 z m 21.36667,53.2144 c 17.59806,1.73372 41.28646,7.89017 63.76352,16.52336 14.8389,5.69649 20.15534,9.5885 24.19313,17.76172 2.86011,5.80264 3.63402,12.27753 2.59092,21.75988 -1.34593,12.17138 -4.17239,21.40606 -11.81055,38.42476 -1.61512,3.60896 -3.60037,8.17323 -4.37428,10.15461 -3.23024,8.17323 -9.11869,15.03732 -16.08389,18.71704 -5.51832,2.9367 -8.64761,3.67972 -15.91564,3.67972 -7.77276,0 -11.60867,-0.49535 -16.7905,-2.1583 -8.31113,-2.72441 -16.95875,-4.67041 -26.41392,-5.97954 -6.72966,-0.95531 -20.96289,-1.30913 -28.16362,-0.74302 -14.36783,1.1676 -28.60106,4.4935 -40.81539,9.51773 l -4.879,2.01677 -4.54252,-0.0354 c -4.07145,0 -4.77806,-0.10615 -6.79696,-0.95531 -3.16294,-1.27375 -5.72021,-3.21976 -8.8495,-6.6518 -4.1051,-4.49351 -5.41738,-6.43951 -7.80641,-11.39298 -5.51832,-11.64065 -16.05024,-41.82143 -17.90089,-51.44531 -2.28809,-11.78218 1.00945,-22.96286 9.38787,-31.94987 2.86011,-3.04284 3.60037,-3.64434 6.8979,-5.37805 15.44457,-8.17322 50.4388,-17.69096 77.55933,-21.12301 3.062,-0.3892 6.32588,-0.7784 7.23439,-0.84916 3.97049,-0.28306 16.11753,-0.21229 19.51601,0.10614 z"
         inkscape:connector-curvature="0" />
    </g>
    <path
       style="fill:#000000;fill-opacity:1;stroke:#002255;stroke-width:0.08838835;stroke-opacity:1"
       d="m 61.913043,165.10449 c -2.687606,-0.24244 -7.244397,-0.83288 -7.298945,-0.94575 -0.0038,-0.008 0.348702,-1.45988 0.783336,-3.22671 l 0.790242,-3.21241 0.321519,0.0377 c 0.176835,0.0207 0.878365,0.20186 1.558955,0.40253 3.546709,1.04574 5.662518,1.31617 8.513762,1.08821 5.547474,-0.44354 8.363116,-2.546 10.073725,-7.52215 0.59072,-1.71839 0.777373,-2.46717 4.836312,-19.40124 2.167315,-9.04213 3.961214,-16.50957 3.986445,-16.59432 0.04327,-0.14534 -0.306831,-0.15537 -6.173016,-0.17677 l -6.218888,-0.0227 0.661691,-2.71795 0.661691,-2.71794 10.015041,0 c 5.508273,0 10.015042,0.0219 10.015042,0.0487 0,0.1237 -9.767085,40.47797 -9.957319,41.14025 -0.929928,3.23748 -2.373835,5.77166 -4.575992,8.03125 -2.913299,2.98929 -6.740422,4.85216 -11.497057,5.59626 -0.909891,0.14234 -1.664158,0.18487 -3.623923,0.20434 -1.36118,0.0135 -2.65386,0.008 -2.872621,-0.0113 z"
       id="path3343"
       inkscape:connector-curvature="0"
       transform="matrix(0.28222222,0,0,0.28222222,0,246.19996)" />
    <path
       style="fill:#000000;fill-opacity:1;stroke:#002255;stroke-width:0.08838835;stroke-opacity:1"
       d="m 25.84743,141.31388 c -0.0023,-0.0366 2.951008,-12.24707 6.562835,-27.13443 l 6.566958,-27.067936 3.808924,-9.98e-4 3.808925,-9.98e-4 -0.432689,1.789865 c -0.23798,0.984425 -2.868215,11.813107 -5.844966,24.063727 l -5.412277,22.27386 14.257348,0.0224 14.257347,0.0224 -0.04796,0.19861 c -0.02638,0.10923 -0.356416,1.4714 -0.733414,3.02703 l -0.685451,2.82843 -18.050727,0.0223 c -9.927899,0.0123 -18.052581,-0.008 -18.054849,-0.0442 z"
       id="path3345"
       inkscape:connector-curvature="0"
       transform="matrix(0.28222222,0,0,0.28222222,0,246.19996)" />
  </g>
</svg>
