<?xml version="1.0" encoding="UTF-8" standalone="no"?>
<svg
   xmlns:dc="http://purl.org/dc/elements/1.1/"
   xmlns:cc="http://creativecommons.org/ns#"
   xmlns:rdf="http://www.w3.org/1999/02/22-rdf-syntax-ns#"
   xmlns:svg="http://www.w3.org/2000/svg"
   xmlns="http://www.w3.org/2000/svg"
   xmlns:sodipodi="http://sodipodi.sourceforge.net/DTD/sodipodi-0.dtd"
   xmlns:inkscape="http://www.inkscape.org/namespaces/inkscape"
   height="32px"
   id="Layer_1"
   style="enable-background:new 0 0 32 32;"
   version="1.1"
   viewBox="0 0 32 32"
   width="32px"
   xml:space="preserve"
   inkscape:version="0.91 r13725"
   sodipodi:docname="menu.svg"><metadata
     id="metadata9"><rdf:RDF><cc:Work
         rdf:about=""><dc:format>image/svg+xml</dc:format><dc:type
           rdf:resource="http://purl.org/dc/dcmitype/StillImage" /></cc:Work></rdf:RDF></metadata><defs
     id="defs7" /><sodipodi:namedview
     pagecolor="#ffffff"
     bordercolor="#666666"
     borderopacity="1"
     objecttolerance="10"
     gridtolerance="10"
     guidetolerance="10"
     inkscape:pageopacity="0"
     inkscape:pageshadow="2"
     inkscape:window-width="1920"
     inkscape:window-height="1023"
     id="namedview5"
     showgrid="false"
     inkscape:zoom="10.429825"
     inkscape:cx="18.178404"
     inkscape:cy="11.227265"
     inkscape:window-x="1920"
     inkscape:window-y="0"
     inkscape:window-maximized="1"
     inkscape:current-layer="Layer_1" /><path
     d="M 4 6 C 2.896 6 2 6.896 2 8 C 2 9.104 2.896 10 4 10 L 28 10 C 29.104 10 30 9.104 30 8 C 30 6.896 29.104 6 28 6 L 4 6 z M 4 14 C 2.896 14 2 14.896 2 16 C 2 17.104 2.896 18 4 18 L 28 18 C 29.104 18 30 17.104 30 16 C 30 14.896 29.104 14 28 14 L 4 14 z M 4 22 C 2.896 22 2 22.896 2 24 C 2 25.104 2.896 26 4 26 L 28 26 C 29.104 26 30 25.104 30 24 C 30 22.896 29.104 22 28 22 L 4 22 z "
     id="path3"
     style="fill:#ff00ff" /></svg>