<?xml version="1.0" encoding="UTF-8" standalone="no"?>
<svg
   xmlns:dc="http://purl.org/dc/elements/1.1/"
   xmlns:cc="http://creativecommons.org/ns#"
   xmlns:rdf="http://www.w3.org/1999/02/22-rdf-syntax-ns#"
   xmlns:svg="http://www.w3.org/2000/svg"
   xmlns="http://www.w3.org/2000/svg"
   xmlns:sodipodi="http://sodipodi.sourceforge.net/DTD/sodipodi-0.dtd"
   xmlns:inkscape="http://www.inkscape.org/namespaces/inkscape"
   enable-background="new 0 0 500 304"
   height="304"
   viewBox="0 0 154 304"
   width="154"
   id="svg2"
   version="1.1"
   inkscape:version="0.92.4 (5da689c313, 2019-01-14)"
   sodipodi:docname="anatomy_posterior_lunges.svg">
  <metadata
     id="metadata722">
    <rdf:RDF>
      <cc:Work
         rdf:about="">
        <dc:format>image/svg+xml</dc:format>
        <dc:type
           rdf:resource="http://purl.org/dc/dcmitype/StillImage" />
        <dc:title></dc:title>
      </cc:Work>
    </rdf:RDF>
  </metadata>
  <defs
     id="defs720" />
  <sodipodi:namedview
     pagecolor="#ffffff"
     bordercolor="#666666"
     borderopacity="1"
     objecttolerance="10"
     gridtolerance="10"
     guidetolerance="10"
     inkscape:pageopacity="0"
     inkscape:pageshadow="2"
     inkscape:window-width="1920"
     inkscape:window-height="986"
     id="namedview718"
     showgrid="false"
     inkscape:zoom="2"
     inkscape:cx="-60.841598"
     inkscape:cy="154.6448"
     inkscape:window-x="-11"
     inkscape:window-y="-11"
     inkscape:window-maximized="1"
     inkscape:current-layer="svg2" />
  <path
     d="m 74.562564,132.75355 c 0.2,-1.2 0.5,-1.7 0.4,-2.3 -0.4,-12.3 -0.7,-24.7 -1.3,-36.999997 -0.2,-3.4 -0.2,-6.9 -2.7,-9.8 -4.3,-4.9 -9,-8.8 -15.7,-9.7 -3.2,-0.4 -6.3,-1 -10,-1.6 0.5,2 0.7,3.2 1.1,4.4 4.5,12.8 8.9,25.799997 13.6,38.499997 0.7,2 2.1,3.9 3.5,5.6 2.7,3.2 5.6,6.2 8.4,9.3 0.8,0.7 1.6,1.5 2.7,2.6 z"
     id="path552"
     style="fill:#b3b3b3"
     inkscape:connector-curvature="0" />
  <path
     d="m 108.06256,72.553553 c -1.3,0 -2.2,-0.1 -3,0 -4.3,0.9 -8.599996,1.5 -12.699996,2.9 -5,1.7 -8.2,5.8 -11.3,9.9 -0.6,0.8 -1,2 -1,3 -0.7,13.399997 -1.3,26.999997 -1.9,40.399997 0,1.1 0.2,2.2 0.3,3.3 0.5,0.3 0.9,0.7 1.4,1 0.4,-0.9 0.6,-1.9 1.2,-2.7 2.4,-2.9 5.1,-5.7 7.5,-8.7 1.8,-2.2 3.9,-4.5 4.9,-7.1 3.9,-10.1 7.499996,-20.499997 11.099996,-30.699997 1.2,-3.6 2.2,-7.2 3.5,-11.3 z"
     id="path554"
     style="fill:#b3b3b3"
     inkscape:connector-curvature="0" />
  <path
     d="m 53.362564,165.05355 c 3,-4.5 7.2,-6.7 11.6,-8.8 0.7,-0.4 1.4,-0.7 2.1,-1.2 3.3,-2 4,-4.1 3.3,-7.9 -0.9,-4.6 -1.7,-9.3 -2.3,-13.9 -0.7,-5.1 -1.3,-5.5 -6,-3.3 -0.1,0 -0.1,0.1 -0.2,0.1 -9.1,4.5 -13.3,14.6 -10.7,26.1 0.6,2.7 1.4,5.5 2.2,8.9 z"
     id="path556"
     style="fill:#ff00ff"
     inkscape:connector-curvature="0" />
  <path
     d="m 100.36256,164.05355 c 0.7,-4.1 1.9,-8.6 2.3,-13.1 0.8,-10.2 -4.299996,-18.5 -12.999996,-21.8 -3,-1.1 -3.7,-0.7 -4.2,2.5 -0.7,4.5 -1.4,9 -2.2,13.4 -1.2,6.8 -0.5,8 5.7,11.4 3.8,2.3 7.4,5 11.399996,7.6 z"
     id="path558"
     style="fill:#ff00ff"
     inkscape:connector-curvature="0" />
  <path
     d="m 46.762564,49.653553 c 0,0.2 -0.1,0.5 -0.1,0.7 6.6,0 10.1,3.8 12.5,9.3 2.8,6.5 6.3,12.6 11.7,17.5 0.8,0.7 1.7,1.3 2.9,2.3 0.3,-1.2 0.7,-1.8 0.6,-2.5 -0.2,-6.2 -0.3,-12.5 -0.6,-18.8 -0.1,-3.1 -1.7,-5.2 -4.7,-6 -5,-1.3 -10.1,-2.8 -15.2,-3.6 -2.3,-0.4 -4.8,0.6 -7.1,1.1 z"
     id="path560"
     style="fill:#b3b3b3"
     inkscape:connector-curvature="0" />
  <path
     d="m 106.76256,50.153553 c -0.7,-0.4 -1.1,-0.6 -1.5,-0.7 -7.799996,-2.2 -14.899996,0.5 -22.099996,3 -2.6,1 -3.7,2.9 -3.8,5.5 -0.2,6.2 -0.4,12.5 -0.5,18.8 0,0.7 0.2,1.5 0.4,2.7 1.1,-0.7 1.8,-1 2.3,-1.6 2.5,-2.9 5.3,-5.6 7.3,-8.8 2.5,-3.8 4.5,-7.9 6.4,-12 1.6,-3.4 3.999999,-5.3 7.599996,-6.1 1.3,-0.3 2.4,-0.5 3.9,-0.8 z"
     id="path562"
     style="fill:#b3b3b3"
     inkscape:connector-curvature="0" />
  <path
     d="m 84.762564,219.35355 c 0.4,0 0.7,0 1.1,0.1 0.8,-2.1 1.7,-4.3 2.5,-6.4 1.7,-4.8 3.7,-9.5 5,-14.3 2.9,-11.5 1.1,-23.1 -0.3,-34.6 -0.4,-3.2 -2.5,-4.8 -5.9,-5.2 -1.3,8.3 0.5,16.5 1.2,24.8 0.6,6.8 0.7,13.7 0.2,20.6 -0.3,3.6 -2.3,7.1 -3.3,10.6 -0.6,1.2 -0.5,2.7 -0.5,4.4 z"
     id="path564"
     style="fill:#b3b3b3"
     inkscape:connector-curvature="0" />
  <path
     d="m 66.362564,158.65355 c -4.1,0.6 -5.8,2.3 -6.2,6 -0.5,5.1 -1.3,10.3 -1.4,15.4 -0.1,5.3 -0.3,10.8 0.9,15.9 1.9,7.9 4.9,15.5 7.6,23.6 2.6,-2.3 1.4,-4.5 0.5,-6.3 -4.7,-10.1 -4.1,-20.7 -2.5,-31.3 1.1,-7.7 1.8,-15.5 1.1,-23.3 z"
     id="path566"
     style="fill:#b3b3b3"
     inkscape:connector-curvature="0" />
  <path
     d="m 69.462564,255.35355 c 5.2,-6.1 -1.5,-42.6 -7.7,-45.1 0,5.1 -0.1,10.5 0,15.8 0.2,6.2 0.7,12.5 1,18.8 0.2,4.8 3,7.9 6.7,10.5 z"
     id="path568"
     style="fill:#b3b3b3"
     inkscape:connector-curvature="0" />
  <path
     d="m 92.262564,209.75355 c -0.3,-0.1 -0.5,-0.2 -0.8,-0.4 -0.8,1.3 -1.7,2.6 -2.2,4 -1.1,2.9 -1.9,5.9 -2.9,8.8 -2.7,7.4 -4.3,15.1 -4.8,23 -0.2,3.5 -0.1,7 2.4,10.2 3.3,-2.8 6.4,-5.3 6.5,-9.9 0.3,-8.6 0.9,-17.4 1.4,-26 0.1,-3.1 0.2,-6.4 0.4,-9.7 z"
     id="path570"
     style="fill:#b3b3b3"
     inkscape:connector-curvature="0" />
  <path
     d="m 96.262564,206.95355 c -2.4,0.8 -2.7,2.5 -2.8,4.2 -0.1,4.8 -0.3,9.6 -0.1,14.4 0.2,6.9 0.4,13.8 -1.5,20.5 -0.9,3.2 -0.2,5.3 2.7,6.8 0.2,-0.1 0.5,-0.2 0.6,-0.4 0.3,-0.2 0.5,-0.5 0.7,-0.8 2.899999,-5.7 5.099996,-11.6 4.199996,-18.3 -0.999997,-7.1 -2.099996,-14.2 -3.199996,-21.5 -0.2,-1.4 -0.4,-3 -0.6,-4.9 z"
     id="path572"
     style="fill:#b3b3b3"
     inkscape:connector-curvature="0" />
  <path
     d="m 58.562564,253.15355 c 3.8,-2.8 3.5,-2.8 3,-6.7 -0.8,-6.1 -1.2,-12.4 -1.5,-18.6 -0.3,-5.9 -0.2,-11.7 -0.4,-17.7 -0.1,-1.1 -1.1,-2.2 -1.6,-3.2 -0.3,0.1 -0.6,0.3 -0.9,0.4 -0.5,3.9 -1,7.7 -1.5,11.6 -0.8,6.3 -2,12.5 -2.2,18.9 -0.5,5.5 1.8,10.6 5.1,15.3 z"
     id="path574"
     style="fill:#b3b3b3"
     inkscape:connector-curvature="0" />
  <path
     d="m 65.262564,296.75355 0.9,0 c 0.1,-1 0.2,-1.9 0.3,-2.9 0.7,-8.2 1.2,-16.3 2,-24.6 0.6,-5.6 1.8,-11.3 -3.2,-15.7 -0.9,-0.8 -2.7,-1.7 -3.6,-1.3 -1.5,0.7 -3.3,1.8 -2.6,4.3 0.8,2.8 1.5,5.7 1.9,8.6 1.3,9.7 2.5,19.5 3.8,29.2 0.2,0.9 0.4,1.7 0.5,2.4 z"
     id="path576"
     style="fill:#b3b3b3"
     inkscape:connector-curvature="0" />
  <path
     d="m 87.162564,296.75355 0.9,0 c 0.1,-0.8 0.3,-1.5 0.4,-2.3 0.9,-7.9 1.6,-15.9 2.7,-23.9 0.6,-4.7 1.8,-9.4 2.8,-14.1 0.5,-2.3 -1.2,-3.4 -2.6,-4.1 -0.8,-0.4 -2.5,0.5 -3.3,1.2 -4.1,3.6 -4.1,8.3 -3.6,13.2 0.9,9.1 1.6,18.3 2.3,27.4 0,0.9 0.2,1.7 0.4,2.6 z"
     id="path578"
     style="fill:#b3b3b3"
     inkscape:connector-curvature="0" />
  <path
     d="m 98.962563,215.75355 0.4,0 c 0.1,-2.5 0.3,-4.9 0.4,-7.4 0.2,-3.3 -0.1,-6.9 0.799997,-10 2.6,-8.6 2.1,-17.1 0.4,-25.7 -0.8,-4.1 -2.199997,-7.7 -5.799996,-9.4 0.5,5.4 1.4,11 1.5,16.7 0.1,6.2 -1.1,12.4 -0.7,18.7 0.2,5.8 1.9,11.4 2.999999,17.1 z"
     id="path580"
     style="fill:#b3b3b3"
     inkscape:connector-curvature="0" />
  <path
     d="m 54.062564,216.35355 c 1,-4.5 2,-8.6 2.6,-12.7 0.4,-2.5 0.5,-5.1 0.4,-7.6 -0.1,-5 -0.7,-9.9 -0.5,-14.9 0.2,-5.8 1,-11.7 1.6,-18.4 -1.8,2.1 -4,3.5 -4.5,5.3 -2.4,8.6 -4.2,17.4 -1.8,26.4 1.4,5.1 2.1,10.2 1.7,15.6 -0.1,1.9 0.3,3.9 0.5,6.3 z"
     id="path582"
     style="fill:#b3b3b3"
     inkscape:connector-curvature="0" />
  <path
     d="m 79.662564,23.253553 c -0.4,0 -0.8,-0.1 -1.2,-0.1 -0.3,1 -1,2.1 -0.9,3.1 0.6,7.1 1.4,14.2 2,21.3 0.3,3.4 0.7,3.7 4,2.7 4.1,-1.3 8.2,-2.5 12.1,-3.7 -2.3,-1.8 -5.1,-3.8 -7.8,-5.9 -5.7,-4.4 -10.1,-9.3 -8.2,-17.4 z"
     id="path584"
     style="fill:#b3b3b3"
     inkscape:connector-curvature="0" />
  <path
     d="m 57.762564,46.553553 c 3.7,1.1 7.6,2.3 11.5,3.6 3.5,1.1 4,0.8 4.2,-2.8 0,-0.7 0.2,-1.4 0.3,-2.1 1.3,-6.4 2.3,-12.8 1.8,-19.4 -0.1,-1 -0.8,-2 -1.2,-3 -0.3,0.1 -0.5,0.2 -0.8,0.3 0.1,0.9 0.3,1.9 0.4,2.8 0.2,4.7 -1.6,8.5 -5.1,11.5 -3.7,3.4 -7.7,6.4 -11.1,9.1 z"
     id="path586"
     style="fill:#b3b3b3"
     inkscape:connector-curvature="0" />
  <path
     d="m 52.162564,54.253553 c -3.8,-2.6 -8.6,-2.9 -11.5,-0.8 -4.8,3.6 -6.8,13.3 -3.5,18.5 5.1,-5.9 10,-11.7 15,-17.7 z"
     id="path588"
     style="fill:#b3b3b3"
     inkscape:connector-curvature="0" />
  <path
     d="m 101.06256,54.253553 c 5.1,6 10,11.8 15,17.8 0.3,-0.1 0.7,-0.2 1,-0.3 0.1,-3 0.7,-6 0.3,-8.9 -1,-9.7 -8.6,-13.5 -16.3,-8.6 z"
     id="path590"
     style="fill:#b3b3b3"
     inkscape:connector-curvature="0" />
  <path
     d="m 109.86256,67.853553 c -0.4,4.3 -0.8,8.1 -1.1,12 -0.2,3.2 -0.6,6.4 -0.3,9.5 0.5,4.7 2.7,8.6 5.5,11.699997 0.4,-5.899997 0.5,-11.899997 1.2,-17.999997 0.7,-5.9 -1.6,-10.7 -5.3,-15.2 z"
     id="path592"
     style="fill:#b3b3b3"
     inkscape:connector-curvature="0" />
  <path
     d="m 38.662564,101.45355 c 3.7,-3.699997 6.3,-8.099997 6.2,-13.299997 -0.1,-6.7 -0.9,-13.3 -1.4,-20.2 -4.3,4.8 -6.1,10.3 -5.2,16.7 0.7,5.6 1.6,11.1 0.4,16.799997 z"
     id="path594"
     style="fill:#b3b3b3"
     inkscape:connector-curvature="0" />
  <path
     d="m 61.062564,72.453553 c -2,-4.8 -3.7,-8.8 -5.4,-12.8 -0.8,-1.7 -2.3,-2.5 -3.9,-1.1 -3.3,2.9 -5.6,6.5 -6.5,11 5.1,1 10,1.9 15.8,2.9 z"
     id="path596"
     style="fill:#b3b3b3"
     inkscape:connector-curvature="0" />
  <path
     d="m 92.362564,72.453553 c 5.7,-1 10.599996,-2 15.699996,-2.9 -0.6,-4.2 -2.8,-7.3 -5.4,-10.1 -2.1,-2.3 -3.799997,-2.1 -5.099996,0.7 -1.8,3.7 -3.3,7.6 -5.2,12.3 z"
     id="path598"
     style="fill:#b3b3b3"
     inkscape:connector-curvature="0" />
  <path
     d="m 36.962564,106.95355 c -0.3,-0.2 -0.5,-0.4 -0.8,-0.6 -2.9,8.6 -5.9,17.3 -8.8,25.9 6.6,-7.9 11.5,-16.6 14.5,-26.3 -1.8,0.4 -3.4,0.7 -4.9,1 z"
     id="path600"
     style="fill:#b3b3b3"
     inkscape:connector-curvature="0" />
  <path
     d="m 111.56256,105.95355 c 1.2,6.4 9.4,22 13.8,25.8 -1.2,-4.2 -2.3,-8.5 -3.8,-12.7 -1.5,-4.2 -3.3,-8.4 -4.9,-12.6 -0.2,0.2 -0.4,0.4 -0.6,0.6 -1.5,-0.4 -3,-0.8 -4.5,-1.1 z"
     id="path602"
     style="fill:#b3b3b3"
     inkscape:connector-curvature="0" />
  <path
     d="m 72.962564,154.95355 c -3.7,0.3 -4.2,0.9 -4.1,3.9 0.1,3.3 -0.2,6.6 0,9.9 0.3,5.8 0.8,11.6 1.2,17.6 l 0.8,0 c 2,-10.4 2,-20.9 2.1,-31.4 z"
     id="path604"
     style="fill:#b3b3b3"
     inkscape:connector-curvature="0" />
  <path
     d="m 82.862564,186.55355 c 0.2,-1.4 0.4,-2.6 0.6,-3.7 0.4,-3.8 1,-7.6 1.1,-11.4 0.1,-4.2 -0.4,-8.4 -0.2,-12.5 0.2,-2.9 -1.2,-3.7 -3.6,-3.9 -1.2,5.4 0.3,26.9 2.1,31.5 z"
     id="path606"
     style="fill:#b3b3b3"
     inkscape:connector-curvature="0" />
  <path
     d="m 102.76256,139.45355 c -1,-4.5 -1.8,-9 -2.999997,-13.5 -0.8,-3.1 -2.599999,-4.1 -5.499999,-4 -2.9,0.1 -5.2,1.9 -6.1,4.6 10.699999,6.2 10.699999,6.2 14.599996,12.9 z"
     id="path608"
     style="fill:#ff00ff"
     inkscape:connector-curvature="0" />
  <path
     d="m 50.762564,139.05355 c 0.2,0.1 0.5,0.2 0.7,0.3 1.8,-7.4 7.6,-10.4 13.9,-12.7 -1.8,-3.4 -4.4,-5 -7.5,-4.6 -3.2,0.4 -4.2,2.7 -4.8,5.3 -0.9,3.8 -1.6,7.8 -2.3,11.7 z"
     id="path610"
     style="fill:#ff00ff"
     inkscape:connector-curvature="0" />
  <path
     d="m 83.862564,212.85355 c 3.8,-7.1 4.2,-14.7 1.7,-31.5 -2.2,7.1 -3.4,27.4 -1.7,31.5 z"
     id="path612"
     style="fill:#b3b3b3"
     inkscape:connector-curvature="0" />
  <path
     d="m 69.462564,213.15355 c 1.5,-6 0.4,-25.6 -1.8,-31.3 -0.4,3.7 -0.6,7.5 -1.1,11.1 -1,7 -0.4,13.6 2.9,20.2 z"
     id="path614"
     style="fill:#b3b3b3"
     inkscape:connector-curvature="0" />
  <path
     d="m 130.86256,137.65355 c 0.5,-6.1 -4.9,-27.2 -7.6,-31 0.4,10.6 2.1,21.1 7.6,31 z"
     id="path616"
     style="fill:#b3b3b3"
     inkscape:connector-curvature="0" />
  <path
     d="m 29.762564,107.35355 c -3.8,9.8 -6.9,19.9 -7.8,31.2 5.6,-10.1 7.7,-20.3 7.8,-31.2 z"
     id="path618"
     style="fill:#b3b3b3"
     inkscape:connector-curvature="0" />
  <path
     d="m 133.76256,138.75355 c 1.8,-0.7 4.2,-0.5 3.4,-3.2 -2.2,-7.3 -4.3,-14.7 -6.7,-22 -1.2,-3.6 -2.9,-7.1 -4.4,-10.7 -0.2,0.1 -0.5,0.2 -0.7,0.3 4.4,11.2 7.3,23 8.4,35.6 z"
     id="path620"
     style="fill:#b3b3b3"
     inkscape:connector-curvature="0" />
  <path
     d="m 27.462564,104.45355 c -0.3,-0.1 -0.5,-0.2 -0.8,-0.3 -1.2,3 -2.6,6 -3.6,9 -2.3,7.1 -4.3,14.3 -6.5,21.5 -0.9,2.8 -0.1,4 3.1,3.6 0.8,-11.6 3.8,-22.9 7.8,-33.8 z"
     id="path622"
     style="fill:#b3b3b3"
     inkscape:connector-curvature="0" />
  <path
     d="m 73.862564,150.05355 c 0.4,-0.1 0.7,-0.2 1.1,-0.2 0.1,-1.7 0,-3.5 0.4,-5.2 1,-5.1 -0.1,-9.1 -6.1,-11.3 1.5,5.8 3.1,11.3 4.6,16.7 z"
     id="path624"
     style="fill:#b3b3b3"
     inkscape:connector-curvature="0" />
  <path
     d="m 78.262564,149.85355 c 3.2,-5 4.8,-10.2 4.9,-16 -4.3,1.6 -6,4.4 -5.4,8.7 0.3,2.4 0.4,4.8 0.5,7.3 z"
     id="path626"
     style="fill:#b3b3b3"
     inkscape:connector-curvature="0" />
  <path
     d="m 90.462564,296.25355 c 0.3,0.1 0.7,0.2 1,0.3 0.2,-0.8 0.6,-1.6 0.7,-2.4 0.1,-1.4 -0.2,-2.9 0,-4.2 0.5,-3.9 1.5,-7.7 1.8,-11.6 0.3,-3.6 0.1,-7.3 0.1,-10.9 -0.4,0 -0.9,0 -1.3,0 -0.6,9.5 -1.4,19.2 -2.3,28.8 z"
     id="path628"
     style="fill:#b3b3b3"
     inkscape:connector-curvature="0" />
  <path
     d="m 62.062564,296.75355 c 0,-5.3 0.3,-10.2 -0.1,-15.1 -0.4,-4.7 -1.4,-9.4 -2.1,-14 -0.3,0 -0.5,0.1 -0.8,0.1 0,3.3 -0.2,6.6 0.1,9.9 0.3,3.4 0.6,6.8 1.7,10 0.9,2.9 -1.2,6.3 1.2,9.1 z"
     id="path630"
     style="fill:#b3b3b3"
     inkscape:connector-curvature="0" />
  <path
     d="m 59.362564,119.65355 c -1.5,-4.7 -3,-9.2 -4.5,-13.7 -0.1,0.1 -0.2,0.1 -0.3,0.2 -0.2,5 -0.5,10 -0.7,15.1 1.7,-0.5 3.4,-1 5.5,-1.6 z"
     id="path632"
     style="fill:#b3b3b3"
     inkscape:connector-curvature="0" />
  <path
     d="m 99.662563,121.25355 c -0.4,-5 -0.7,-9.6 -0.999999,-14.2 -0.2,0 -0.4,0 -0.6,-0.1 -1.3,4.2 -2.6,8.5 -4,12.8 2.2,0.6 3.8,1 5.599999,1.5 z"
     id="path634"
     style="fill:#b3b3b3"
     inkscape:connector-curvature="0" />
  <g
     id="g636"
     style="fill:#b3b3b3"
     transform="translate(-173.23744,-0.64644661)">
    <path
       d="m 247.7,7.7 c -3,1.7 -6,3.1 -8.7,5 -0.9,0.6 -0.7,2.3 1.1,2.3 1.4,0 2.8,-0.3 4.2,-0.6 3.9,-0.9 4.6,-2.1 3.4,-6.7 z"
       id="path638"
       style="fill:#b3b3b3"
       inkscape:connector-curvature="0" />
    <path
       d="m 251.9,7.8 c -1.1,4.5 -0.4,5.7 3.4,6.6 0.8,0.2 1.6,0.5 2.4,0.5 1.1,-0.1 2.3,-0.4 3.4,-0.7 -0.8,-0.9 -1.5,-1.9 -2.4,-2.7 -0.9,-0.8 -2.1,-1.4 -3.2,-2 -1.1,-0.6 -2.3,-1.1 -3.6,-1.7 z"
       id="path640"
       style="fill:#b3b3b3"
       inkscape:connector-curvature="0" />
    <path
       d="m 222.4,176.7 c 2.9,-5.8 3.7,-11.7 0,-18.2 z"
       id="path642"
       style="fill:#b3b3b3"
       inkscape:connector-curvature="0" />
    <path
       d="m 276.2,177.5 0.9,0 c 0,-6 0,-12.1 0,-18.2 -1.2,2 -2.3,4 -2.3,6 0.2,4.2 0.9,8.2 1.4,12.2 z"
       id="path644"
       style="fill:#b3b3b3"
       inkscape:connector-curvature="0" />
    <path
       d="m 242.2,31.8 c 4.3,-4.3 4.3,-7.5 0,-12.2 z"
       id="path646"
       style="fill:#b3b3b3"
       inkscape:connector-curvature="0" />
    <path
       d="m 257.6,19 c -4.3,5.6 -4.4,9.3 -0.4,13.1 1.4,-4.3 0.5,-8.4 0.4,-13.1 z"
       id="path648"
       style="fill:#b3b3b3"
       inkscape:connector-curvature="0" />
    <path
       d="m 205.3,97 c 1.5,-7.1 3.1,-14.3 4.8,-22.3 -4.5,7.4 -4.9,14.9 -4.8,22.3 z"
       id="path650"
       style="fill:#b3b3b3"
       inkscape:connector-curvature="0" />
    <path
       d="m 289.6,74.8 c 1.7,7.8 3.3,15.4 4.9,23.1 0.3,-8 -0.3,-15.9 -4.9,-23.1 z"
       id="path652"
       style="fill:#b3b3b3"
       inkscape:connector-curvature="0" />
    <path
       d="m 290.5,84.5 c -0.3,0 -0.6,0 -0.8,0 0,4.1 -0.1,8.3 0.1,12.4 0,0.6 0.8,1.3 1.2,1.9 0.5,-0.7 1.4,-1.4 1.3,-2 -0.5,-4.1 -1.2,-8.2 -1.8,-12.3 z"
       id="path654"
       style="fill:#b3b3b3"
       inkscape:connector-curvature="0" />
    <path
       d="m 210.2,84.5 c -0.3,0 -0.7,0 -1,0 -0.6,4.1 -1.2,8.2 -1.6,12.3 -0.1,0.7 0.9,1.4 1.4,2.1 0.4,-0.7 1.1,-1.4 1.1,-2.1 0.2,-2 0.1,-4.1 0.1,-6.1 0,-2.1 0,-4.1 0,-6.2 z"
       id="path656"
       style="fill:#b3b3b3"
       inkscape:connector-curvature="0" />
    <path
       d="m 315.2,155.3 c -0.2,0.3 -0.4,0.6 -0.6,0.8 1,2.6 1.9,5.2 2.9,7.7 0.3,0.6 1,1 1.6,1.5 0.1,-0.8 0.5,-1.6 0.3,-2.3 -0.6,-2.1 -1.4,-4.2 -2.3,-6.2 -0.4,-0.6 -1.3,-1 -1.9,-1.5 z"
       id="path658"
       style="fill:#b3b3b3"
       inkscape:connector-curvature="0" />
    <path
       d="m 180,165 c 0.4,0.1 0.7,0.3 1.1,0.4 2.1,-2.7 2.7,-6.1 3.9,-9.2 0,-0.1 -0.6,-0.7 -0.9,-0.7 -0.4,0.1 -1,0.4 -1.2,0.8 -0.8,1.8 -1.4,3.6 -2.1,5.5 -0.3,1 -0.5,2.1 -0.8,3.2 z"
       id="path660"
       style="fill:#b3b3b3"
       inkscape:connector-curvature="0" />
    <path
       d="m 205.7,112.5 c 1.5,-3.8 2.9,-7.1 4.5,-11.1 -3.9,2 -5.7,6.9 -4.5,11.1 z"
       id="path662"
       style="fill:#b3b3b3"
       inkscape:connector-curvature="0" />
    <path
       d="m 293.8,112 c 1.1,-4.3 -0.4,-8.4 -4,-9.9 1.3,3.3 2.7,6.6 4,9.9 z"
       id="path664"
       style="fill:#b3b3b3"
       inkscape:connector-curvature="0" />
    <path
       d="m 321.8,145.4 c -0.6,0.5 -1.1,0.8 -1.4,1.3 -0.2,0.4 -0.2,1.2 0,1.4 1.3,1 2.7,2 4.2,2.8 0.3,0.2 1.1,0 1.4,-0.3 0.3,-0.3 0.4,-1.2 0.1,-1.4 -1.3,-1.3 -2.8,-2.5 -4.3,-3.8 z"
       id="path666"
       style="fill:#b3b3b3"
       inkscape:connector-curvature="0" />
    <path
       d="m 178.1,145.5 c -1.3,1 -2.8,1.8 -4,3 -0.4,0.4 -0.3,1.4 -0.4,2.1 0.7,0.1 1.5,0.4 2.1,0.1 0.9,-0.4 1.6,-1.2 2.4,-1.7 2,-1.1 1.6,-2.2 -0.1,-3.5 z"
       id="path668"
       style="fill:#b3b3b3"
       inkscape:connector-curvature="0" />
    <path
       d="m 180.9,154.3 c -2.4,-0.3 -5.6,5 -5,8.2 2.2,-2.2 3.2,-5.2 5,-8.2 z"
       id="path670"
       style="fill:#b3b3b3"
       inkscape:connector-curvature="0" />
    <path
       d="m 310.8,155.8 c -0.2,0.2 -0.3,0.3 -0.5,0.5 0.7,2.6 1.3,5.2 2.1,7.8 0.1,0.4 0.9,0.6 1.3,0.9 0.2,-0.4 0.6,-1 0.5,-1.3 -0.6,-2.3 -1.2,-4.6 -2,-6.8 0,-0.5 -0.9,-0.8 -1.4,-1.1 z"
       id="path672"
       style="fill:#b3b3b3"
       inkscape:connector-curvature="0" />
    <path
       d="m 324.1,162.6 c 0.3,-0.2 0.5,-0.4 0.8,-0.6 -1.3,-2.5 -2.6,-5.1 -3.9,-7.6 -0.2,-0.3 -0.9,-0.3 -1.3,-0.4 -0.1,0.5 -0.3,1 -0.2,1.4 1,2.1 2.1,4.3 3.3,6.3 0.2,0.4 0.8,0.6 1.3,0.9 z"
       id="path674"
       style="fill:#b3b3b3"
       inkscape:connector-curvature="0" />
    <path
       d="m 185.1,165.1 c 1,-0.1 1.5,0 1.5,-0.1 0.9,-2.7 1.8,-5.5 2.6,-8.3 0.1,-0.2 -0.4,-0.7 -0.6,-0.7 -0.4,0 -1,0.2 -1.1,0.4 -0.8,2.8 -1.6,5.6 -2.4,8.7 z"
       id="path676"
       style="fill:#b3b3b3"
       inkscape:connector-curvature="0" />
    <path
       d="m 317.9,149.4 c 0.3,-2.6 -2.6,-7 -4.4,-7.4 -0.3,-0.1 -0.8,0.1 -0.9,0.3 -0.1,0.3 -0.2,0.9 0,1.2 1.7,1.8 3.3,3.6 5.3,5.9 z"
       id="path678"
       style="fill:#b3b3b3"
       inkscape:connector-curvature="0" />
    <path
       d="m 187.5,142.8 c -0.1,-0.2 -0.2,-0.4 -0.3,-0.6 -0.6,0.1 -1.4,0.1 -1.7,0.4 -1.6,1.8 -4.8,2.7 -3.7,6.7 2.1,-2.4 3.9,-4.4 5.7,-6.5 z"
       id="path680"
       style="fill:#b3b3b3"
       inkscape:connector-curvature="0" />
    <path
       d="m 235.8,302 c 0.6,-2.8 -2.2,-5.8 -5.5,-5.7 1.7,1.8 3.5,3.6 5.5,5.7 z"
       id="path682"
       style="fill:#b3b3b3"
       inkscape:connector-curvature="0" />
    <path
       d="m 263.7,301.4 c 3,-1.3 4.9,-3.5 5.1,-5.8 -3.4,1.4 -5.4,3.6 -5.1,5.8 z"
       id="path684"
       style="fill:#b3b3b3"
       inkscape:connector-curvature="0" />
    <path
       d="m 259.6,26 c 0.4,0 0.8,0 1.2,-0.1 0.1,-1.8 0.2,-3.7 0.2,-5.5 0,-0.4 -0.8,-0.7 -1.2,-1.1 -0.3,0.4 -1,0.9 -1,1.3 0.1,1.8 0.5,3.6 0.8,5.4 z"
       id="path686"
       style="fill:#b3b3b3"
       inkscape:connector-curvature="0" />
    <path
       d="m 238.9,26 1.3,0 c 0.2,-1.8 0.5,-3.6 0.6,-5.3 0,-0.4 -0.6,-0.9 -0.9,-1.3 -0.4,0.4 -1.1,0.8 -1.1,1.2 -0.1,1.7 0.1,3.5 0.1,5.4 z"
       id="path688"
       style="fill:#b3b3b3"
       inkscape:connector-curvature="0" />
    <path
       d="m 192.1,155.1 c -0.6,3 -1.1,5.5 -1.5,8 0.2,0 0.5,0.1 0.7,0.1 1.6,-2.3 2.2,-6.4 0.8,-8.1 z"
       id="path690"
       style="fill:#b3b3b3"
       inkscape:connector-curvature="0" />
    <path
       d="m 308,163.4 c 0.3,-0.1 0.6,-0.1 0.9,-0.2 0.4,-2.8 -0.7,-6.6 -2.8,-7.9 0.7,3.1 1.3,5.6 1.9,8.1 z"
       id="path692"
       style="fill:#b3b3b3"
       inkscape:connector-curvature="0" />
    <path
       d="m 251.7,0.6 c -0.3,0.5 -0.5,0.9 -0.8,1.4 2.4,1 4.9,2 7.3,3 0.1,-0.3 0.3,-0.5 0.4,-0.8 C 256.3,3 254,1.8 251.7,0.6 Z"
       id="path694"
       style="fill:#b3b3b3"
       inkscape:connector-curvature="0" />
    <path
       d="m 241.4,5.1 c 2.5,-1.1 5,-2 7.9,-3.2 -3.3,-1 -6,0.2 -7.9,3.2 z"
       id="path696"
       style="fill:#b3b3b3"
       inkscape:connector-curvature="0" />
    <path
       d="m 257.8,298.6 c 0.4,-0.2 0.7,-0.3 1.1,-0.5 -0.8,-1.7 -1.5,-3.4 -2.3,-5.1 -0.4,0.2 -0.7,0.3 -1.1,0.5 -1.5,2.6 2.2,3.1 2.3,5.1 z"
       id="path698"
       style="fill:#b3b3b3"
       inkscape:connector-curvature="0" />
    <path
       d="m 240.9,298.1 c 0.2,0.1 0.5,0.2 0.7,0.3 3.5,-3.9 3.5,-3.9 1.4,-5.4 -0.7,1.8 -1.4,3.5 -2.1,5.1 z"
       id="path700"
       style="fill:#b3b3b3"
       inkscape:connector-curvature="0" />
    <path
       d="m 184.7,149.5 0.6,2.1 3.4,-6 z"
       id="path702"
       style="fill:#b3b3b3"
       inkscape:connector-curvature="0" />
    <path
       d="m 187.8,151.8 1.6,0 1,-5.4 z"
       id="path704"
       style="fill:#b3b3b3"
       inkscape:connector-curvature="0" />
    <path
       d="m 191.6,151.8 1.6,0 0.5,-5.9 z"
       id="path706"
       style="fill:#b3b3b3"
       inkscape:connector-curvature="0" />
    <path
       d="m 306.7,146.3 0.7,5.4 1.4,0 z"
       id="path708"
       style="fill:#b3b3b3"
       inkscape:connector-curvature="0" />
    <path
       d="m 310.1,146.2 1.1,5.5 1.4,0 0,-1.2 z"
       id="path710"
       style="fill:#b3b3b3"
       inkscape:connector-curvature="0" />
    <path
       d="m 312.6,145.1 2.4,6.5 1,-1.6 z"
       id="path712"
       style="fill:#b3b3b3"
       inkscape:connector-curvature="0" />
    <path
       d="m 239,301.2 c -0.7,0 -1.3,-0.6 -1.3,-1.3 0,-0.7 0.6,-1.3 1.3,-1.3 0.7,0 1.3,0.6 1.3,1.3 0.1,0.7 -0.5,1.3 -1.3,1.3 z"
       id="path714"
       style="fill:#b3b3b3"
       inkscape:connector-curvature="0" />
    <path
       d="m 260.9,301.2 c -0.7,0 -1.3,-0.6 -1.3,-1.3 0,-0.7 0.6,-1.3 1.3,-1.3 0.7,0 1.3,0.6 1.3,1.3 0.1,0.7 -0.5,1.3 -1.3,1.3 z"
       id="path716"
       style="fill:#b3b3b3"
       inkscape:connector-curvature="0" />
  </g>
  <path
     style="fill:#ff00ff;stroke-width:0.08838835"
     d="m 49.228454,166.95493 c -0.0043,-4.8492 0.01167,-8.81674 0.03544,-8.81674 0.07982,0 0.725955,1.36061 1.145965,2.41313 1.809975,4.53566 1.534545,9.53512 -0.794695,14.42485 l -0.378936,0.7955 z"
     id="path89"
     inkscape:connector-curvature="0" />
  <path
     style="fill:#ff00ff;stroke-width:0.08838835"
     d="m 54.054206,215.7674 c -0.0273,-0.12154 -0.13882,-1.01647 -0.247828,-1.98874 -0.161821,-1.44332 -0.191215,-2.10032 -0.160159,-3.57973 0.137705,-6.55958 -0.19925,-9.69881 -1.650477,-15.37663 -0.903666,-3.53553 -1.199019,-5.83241 -1.19947,-9.32791 -4.97e-4,-3.85945 0.412517,-7.13306 1.522179,-12.06501 0.451469,-2.00658 1.357483,-5.37997 1.580098,-5.88323 0.275175,-0.62208 0.848458,-1.29286 2.562977,-2.99888 l 1.597992,-1.59007 v 0.31936 c 0,0.17564 -0.237248,2.68104 -0.527218,5.56754 -0.893387,8.89321 -1.016099,10.68838 -1.005244,14.70574 0.0052,1.92688 0.0756,4.13111 0.19618,6.14299 0.103432,1.72579 0.231757,4.32431 0.285167,5.7745 0.198628,5.39323 -0.173128,8.32277 -2.228346,17.56003 -0.72089,3.24006 -0.662797,3.02077 -0.725851,2.74004 z"
     id="path91"
     inkscape:connector-curvature="0" />
  <path
     style="fill:#ff00ff;stroke-width:0.08838835"
     d="m 67.02887,218.75829 c -0.133508,-0.40534 -0.977007,-2.84505 -1.874443,-5.42157 -2.832951,-8.13335 -3.907824,-11.47347 -4.935021,-15.33538 -1.218339,-4.58054 -1.469058,-6.87625 -1.462145,-13.38814 0.0046,-4.36218 0.08793,-6.81029 0.323409,-9.50444 0.282821,-3.23586 1.191627,-11.12487 1.36442,-11.84404 0.50072,-2.08402 1.741974,-3.41043 3.845807,-4.10968 0.425504,-0.14142 2.008492,-0.49873 2.041536,-0.4608 0.0089,0.0102 0.06898,0.79409 0.133608,1.74205 0.162534,2.3841 0.139423,7.71181 -0.04524,10.42983 -0.264484,3.89281 -0.505728,6.01411 -1.59324,14.00955 -0.469808,3.45404 -0.661852,5.90229 -0.727999,9.28078 -0.147724,7.54503 1.010872,13.4717 3.80472,19.46261 0.695034,1.49037 0.861889,2.04603 0.863852,2.87679 0.0024,1.00588 -0.415203,1.95374 -1.191419,2.70438 l -0.3051,0.29506 z"
     id="path93"
     inkscape:connector-curvature="0" />
  <path
     style="fill:#ff00ff;stroke-width:0.08838835"
     d="m 70.080334,186.20178 c 0,-0.0728 -0.216895,-3.16525 -0.481988,-6.87219 -0.778427,-10.88518 -0.777136,-10.85462 -0.713901,-16.90456 0.03049,-2.91682 0.07903,-5.40274 0.107872,-5.52427 0.141085,-0.59449 0.523833,-1.08929 1.043822,-1.3494 0.36965,-0.18491 1.372089,-0.4097 2.201615,-0.4937 l 0.699013,-0.0708 -0.06036,4.82393 c -0.142909,11.42162 -0.60228,18.07399 -1.694074,24.53269 -0.168579,0.99726 -0.306507,1.85311 -0.306507,1.90189 0,0.0488 -0.178987,0.0887 -0.397748,0.0887 -0.294246,0 -0.397747,-0.0344 -0.397747,-0.1323 z"
     id="path95"
     inkscape:connector-curvature="0" />
  <path
     style="fill:#ff00ff;stroke-width:0.08838835"
     d="m 69.31514,212.79206 c -0.05625,-0.13796 -0.30053,-0.68836 -0.542833,-1.22311 -0.835501,-1.8439 -1.623908,-4.38507 -2.047566,-6.59964 -0.349985,-1.82947 -0.455944,-2.9479 -0.505219,-5.33279 -0.05503,-2.66347 0.01672,-3.88028 0.411714,-6.98268 0.142358,-1.11811 0.42265,-3.88245 0.62287,-6.14299 0.20022,-2.26053 0.38653,-4.16972 0.414022,-4.24264 0.117167,-0.31077 0.738597,2.13739 1.127866,4.44329 0.812299,4.81181 1.282727,11.13571 1.283768,17.25756 7.25e-4,4.27049 -0.206135,7.50209 -0.557774,8.71357 l -0.104567,0.36026 z"
     id="path97"
     inkscape:connector-curvature="0" />
  <path
     style="fill:#ff00ff;stroke-width:0.08838835"
     d="m 82.650374,185.79851 c -0.784251,-2.66356 -1.559966,-8.83229 -2.005563,-15.94886 -0.382776,-6.11327 -0.341211,-12.44657 0.09506,-14.48483 l 0.05443,-0.2543 0.555518,0.0569 c 1.08682,0.11134 1.984326,0.5507 2.450899,1.19979 0.461718,0.64234 0.493248,0.95199 0.544804,5.35069 0.02621,2.23623 0.08822,5.08012 0.137802,6.31977 0.09679,2.42 0.01882,5.03926 -0.222092,7.46086 -0.233147,2.34355 -0.924885,7.91225 -1.175146,9.46027 l -0.24207,1.49737 z"
     id="path99"
     inkscape:connector-curvature="0" />
  <path
     style="fill:#ff00ff;stroke-width:0.08838835"
     d="m 83.648337,212.03299 c -0.84966,-3.72012 -0.697706,-13.07664 0.35779,-22.0308 0.34654,-2.93983 1.006049,-6.70476 1.401222,-7.99914 0.153988,-0.50439 0.148542,-0.52603 0.489228,1.94454 0.849221,6.15834 1.17483,10.05709 1.177408,14.09794 0.0031,4.92477 -0.5348,8.35053 -1.845502,11.75267 -0.384183,0.99721 -1.276975,2.8756 -1.366763,2.8756 -0.03686,0 -0.132885,-0.28836 -0.213383,-0.64081 z"
     id="path101"
     inkscape:connector-curvature="0" />
  <path
     style="fill:#ff00ff;stroke-width:0.08838835"
     d="m 85.114866,219.32594 -0.389233,-0.0345 0.0593,-1.38637 c 0.03262,-0.76251 0.113816,-1.62502 0.180443,-1.9167 0.163794,-0.71706 0.850065,-2.68761 1.754599,-5.03814 1.586408,-4.12244 1.80699,-5.08008 2.025756,-8.79464 0.152194,-2.5842 0.152735,-10.87774 8.76e-4,-13.43503 -0.248596,-4.18635 -0.420133,-6.04327 -1.077784,-11.66726 -0.2416,-2.06608 -0.52073,-4.65144 -0.620287,-5.74524 -0.357667,-3.92957 -0.371917,-8.13787 -0.03719,-10.98225 l 0.153424,-1.30373 h 0.241087 c 0.132598,0 0.631904,0.0991 1.10957,0.22031 2.289452,0.58076 3.680448,1.81833 4.272632,3.80136 0.235869,0.78984 1.159038,8.20389 1.595837,12.81631 0.584737,6.17455 0.627795,11.7446 0.125723,16.26345 -0.513045,4.61762 -1.354638,7.85971 -3.659592,14.09794 -0.475997,1.28826 -1.247752,3.37644 -1.71501,4.64039 -0.467258,1.26396 -1.395816,3.69974 -2.063464,5.41286 -1.053213,2.70244 -1.237304,3.11284 -1.39068,3.10025 -0.09723,-0.008 -0.351932,-0.03 -0.566011,-0.049 z"
     id="path103"
     inkscape:connector-curvature="0" />
  <path
     style="fill:#ff00ff;stroke-width:0.08838835"
     d="m 98.940969,215.48013 c -0.02515,-0.10938 -0.182454,-0.85515 -0.349571,-1.65728 -0.167116,-0.80212 -0.541778,-2.53232 -0.832582,-3.84489 -1.256086,-5.66945 -1.581791,-7.81915 -1.787815,-11.79984 -0.124273,-2.40114 -0.06076,-4.26087 0.327521,-9.59014 0.472643,-6.48717 0.488619,-9.66329 0.0718,-14.27472 -0.102336,-1.13219 -0.916247,-8.7702 -1.133299,-10.63526 -0.04587,-0.39411 -0.01886,-0.39207 0.727017,0.055 2.036046,1.22049 3.51936,3.4495 4.42326,6.64693 0.67551,2.38951 1.47439,7.3102 1.79376,11.04854 0.17197,2.01296 0.14451,6.89846 -0.0492,8.75045 -0.28565,2.73125 -0.67313,4.78505 -1.43006,7.57986 -0.68458,2.52771 -0.773967,3.35617 -0.922576,8.55101 -0.04937,1.72579 -0.147365,4.09238 -0.217768,5.25911 -0.0704,1.16673 -0.15366,2.56879 -0.185017,3.11569 -0.05129,0.89452 -0.07372,0.99437 -0.223384,0.99437 -0.100063,0 -0.184597,-0.0793 -0.212096,-0.19888 z"
     id="path105"
     inkscape:connector-curvature="0" />
  <path
     style="fill:#ff00ff;stroke-width:0.08838835"
     d="m 102.9608,176.69186 c 0,-0.053 -0.2163,-1.71355 -0.48066,-3.69022 -0.59451,-4.44518 -0.75448,-5.95331 -0.81719,-7.70399 -0.0583,-1.62599 0.0768,-2.35165 0.70168,-3.76977 0.3692,-0.83789 1.36,-2.68258 1.44083,-2.68258 0.0216,0 0.0392,4.03714 0.0392,8.97142 v 8.97142 h -0.44194 c -0.25985,0 -0.44194,-0.0397 -0.44194,-0.0963 z"
     id="path107"
     inkscape:connector-curvature="0" />
  <path
     style="fill:#ff00ff;stroke-width:0.25"
     d="m 57.47799,251.34217 c -1.599664,-2.61754 -2.51409,-4.59068 -3.230997,-6.97183 -1.117839,-3.7128 -0.936228,-7.96744 0.904896,-21.19915 0.535708,-3.85 1.225808,-8.98907 1.533555,-11.42016 0.477656,-3.77332 0.625556,-4.43744 1.010649,-4.53814 0.350607,-0.0917 0.614231,0.22471 1.183288,1.42017 l 0.732179,1.53813 0.14262,8.5 c 0.164414,9.79888 0.46105,15.4615 1.178662,22.5 0.280377,2.75 0.573641,5.93332 0.651698,7.07405 l 0.141923,2.07404 -1.220362,1.13645 c -1.915089,1.78342 -1.867718,1.78519 -3.028111,-0.11356 z"
     id="path109"
     inkscape:connector-curvature="0" />
  <path
     style="fill:#ff00ff;stroke-width:0.25"
     d="m 68.509326,254.511 c -2.524081,-1.89769 -4.416344,-4.37685 -5.100516,-6.68249 -0.730007,-2.46009 -1.504266,-17.11891 -1.504266,-28.47983 0,-4.84137 0.09289,-8.80249 0.206421,-8.80249 0.322076,0 1.166759,1.00549 1.995167,2.375 2.879178,4.75981 5.71209,15.9695 6.813534,26.96081 0.169745,1.69389 0.245609,4.79614 0.177296,7.25 -0.102405,3.67847 -0.204697,4.53618 -0.718413,6.02383 -0.329453,0.95405 -0.720603,1.77271 -0.869223,1.81924 -0.14862,0.0465 -0.59862,-0.1623 -1,-0.46407 z"
     id="path111"
     inkscape:connector-curvature="0" />
  <path
     style="fill:#ff00ff;stroke-width:0.25"
     d="m 83.171127,253.99432 c -1.524936,-2.67006 -1.868219,-6.52401 -1.142333,-12.82466 0.815337,-7.07708 1.791937,-11.11286 5.126477,-21.18507 2.415061,-7.29487 3.881004,-10.60698 4.58735,-10.36453 0.382105,0.13116 0.276752,4.87964 -0.353348,15.92613 -0.270587,4.74375 -0.643243,11.61044 -0.828125,15.25931 -0.292176,5.76643 -0.405762,6.79168 -0.868289,7.8373 -0.776642,1.75573 -2.025203,3.34676 -4.012186,5.11268 l -1.755093,1.55984 z"
     id="path113"
     inkscape:connector-curvature="0" />
  <path
     style="fill:#ff00ff;stroke-width:0.25"
     d="m 93.569989,252.15023 c -1.903145,-1.29322 -2.317859,-3.31963 -1.408376,-6.88172 1.182545,-4.63157 1.299985,-6.50958 1.334945,-21.34732 0.03126,-13.26593 0.05815,-14.0507 0.512977,-14.96701 0.400522,-0.80691 1.825415,-2.06091 2.067122,-1.81921 0.03865,0.0386 0.190811,0.96261 0.33814,2.05325 0.147329,1.09063 1.013061,6.87672 1.923849,12.85797 2.304114,15.1314 2.293524,17.56549 -0.10441,23.98563 -1.178581,3.1555 -2.712308,6.18396 -3.287753,6.49193 -0.353985,0.18945 -0.67701,0.10179 -1.376494,-0.37352 z"
     id="path115"
     inkscape:connector-curvature="0" />
</svg>
